M48
; DRILL file {KiCad (5.1.5-0-10_14)} date 2020 June 18, Thursday 21:24:11
; FORMAT={-:-/ absolute / inch / decimal}
; #@! TF.CreationDate,2020-06-18T21:24:11+02:00
; #@! TF.GenerationSoftware,Kicad,Pcbnew,(5.1.5-0-10_14)
FMAT,2
INCH
T1C0.0394
T2C0.0512
T3C0.0591
T4C0.0787
T5C0.1063
T6C0.1378
%
G90
G05
T1
X2.8Y-3.2
X2.8Y-3.3
X1.95Y-2.3
X1.95Y-2.4
X1.95Y-2.5
X1.95Y-2.6
X1.95Y-2.7
X1.95Y-2.8
X0.8768Y-1.5839
X0.8768Y-1.6839
X0.9768Y-1.5839
X0.9768Y-1.6839
X1.0768Y-1.5839
X1.0768Y-1.6839
X1.1768Y-1.5839
X1.1768Y-1.6839
X1.2768Y-1.5839
X1.2768Y-1.6839
X1.3768Y-1.5839
X1.3768Y-1.6839
X1.4768Y-1.5839
X1.4768Y-1.6839
X1.5768Y-1.5839
X1.5768Y-1.6839
X1.6768Y-1.5839
X1.6768Y-1.6839
X1.7768Y-1.5839
X1.7768Y-1.6839
X1.8768Y-1.5839
X1.8768Y-1.6839
X1.9768Y-1.5839
X1.9768Y-1.6839
X2.0768Y-1.5839
X2.0768Y-1.6839
X2.1768Y-1.5839
X2.1768Y-1.6839
X2.2768Y-1.5839
X2.2768Y-1.6839
X2.3768Y-1.5839
X2.3768Y-1.6839
X2.4768Y-1.5839
X2.4768Y-1.6839
X2.5768Y-1.5839
X2.5768Y-1.6839
X2.6768Y-1.5839
X2.6768Y-1.6839
X2.7768Y-1.5839
X2.7768Y-1.6839
X2.0Y-4.65
X2.0Y-4.75
X1.8972Y-3.6744
X1.8972Y-3.8122
X1.8972Y-4.0878
X1.8972Y-4.2256
X2.8028Y-3.6744
X2.8028Y-4.2256
X2.5Y-4.55
X2.5Y-4.65
X2.5Y-4.75
T2
X0.6642Y-3.15
X1.55Y-3.15
X0.6642Y-4.75
X1.55Y-4.75
X0.6642Y-5.3
X1.55Y-5.3
X0.6642Y-2.1
X1.55Y-2.1
X0.6642Y-3.65
X1.55Y-3.65
X0.6642Y-5.8
X1.55Y-5.8
X0.6642Y-4.2
X1.55Y-4.2
X0.6642Y-2.65
X1.55Y-2.65
T3
X0.3917Y-3.5256
X0.3917Y-4.2854
X0.3917Y-5.0453
X0.3917Y-5.8051
X3.2618Y-3.5256
X3.2618Y-4.2854
X3.2618Y-5.0453
X3.2618Y-5.8051
X0.3917Y-0.4102
X0.3917Y-1.1701
X0.3917Y-1.9299
X0.3917Y-2.6898
X3.2618Y-0.4102
X3.2618Y-1.1701
X3.2618Y-1.9299
X3.2618Y-2.6898
T4
X2.9Y-5.4
X2.9Y-5.65
X2.2Y-5.4
X2.2Y-5.65
T5
X1.1071Y-3.15
X1.1071Y-4.75
X1.1071Y-5.3
X1.1071Y-2.1
X1.1071Y-3.65
X1.1071Y-5.8
X1.1071Y-4.2
X1.1071Y-2.65
T6
X2.9685Y-0.7283
X3.5079Y-4.4094
X0.1457Y-0.2362
X0.1457Y-4.4094
X0.685Y-0.7283
X3.5079Y-0.2362
X3.5079Y-2.5984
X0.1457Y-5.9843
X2.9685Y-1.6339
X0.1457Y-2.5984
X0.685Y-1.6339
X3.5079Y-5.9843
T0
M30
