G04 #@! TF.GenerationSoftware,KiCad,Pcbnew,(5.1.5-0-10_14)*
G04 #@! TF.CreationDate,2020-06-18T21:24:06+02:00*
G04 #@! TF.ProjectId,basepcb2,62617365-7063-4623-922e-6b696361645f,rev?*
G04 #@! TF.SameCoordinates,Original*
G04 #@! TF.FileFunction,Legend,Top*
G04 #@! TF.FilePolarity,Positive*
%FSLAX46Y46*%
G04 Gerber Fmt 4.6, Leading zero omitted, Abs format (unit mm)*
G04 Created by KiCad (PCBNEW (5.1.5-0-10_14)) date 2020-06-18 21:24:06*
%MOMM*%
%LPD*%
G04 APERTURE LIST*
%ADD10C,0.300000*%
%ADD11C,0.120000*%
%ADD12C,0.150000*%
G04 APERTURE END LIST*
D10*
X57547142Y-115248571D02*
X57904285Y-116248571D01*
X58261428Y-115248571D01*
X59047142Y-116248571D02*
X58904285Y-116177142D01*
X58832857Y-116105714D01*
X58761428Y-115962857D01*
X58761428Y-115534285D01*
X58832857Y-115391428D01*
X58904285Y-115320000D01*
X59047142Y-115248571D01*
X59261428Y-115248571D01*
X59404285Y-115320000D01*
X59475714Y-115391428D01*
X59547142Y-115534285D01*
X59547142Y-115962857D01*
X59475714Y-116105714D01*
X59404285Y-116177142D01*
X59261428Y-116248571D01*
X59047142Y-116248571D01*
X60832857Y-115248571D02*
X60832857Y-116248571D01*
X60190000Y-115248571D02*
X60190000Y-116034285D01*
X60261428Y-116177142D01*
X60404285Y-116248571D01*
X60618571Y-116248571D01*
X60761428Y-116177142D01*
X60832857Y-116105714D01*
X61332857Y-115248571D02*
X61904285Y-115248571D01*
X61547142Y-114748571D02*
X61547142Y-116034285D01*
X61618571Y-116177142D01*
X61761428Y-116248571D01*
X61904285Y-116248571D01*
X58654285Y-117788571D02*
X58654285Y-119002857D01*
X58582857Y-119145714D01*
X58511428Y-119217142D01*
X58368571Y-119288571D01*
X58154285Y-119288571D01*
X58011428Y-119217142D01*
X58654285Y-118717142D02*
X58511428Y-118788571D01*
X58225714Y-118788571D01*
X58082857Y-118717142D01*
X58011428Y-118645714D01*
X57940000Y-118502857D01*
X57940000Y-118074285D01*
X58011428Y-117931428D01*
X58082857Y-117860000D01*
X58225714Y-117788571D01*
X58511428Y-117788571D01*
X58654285Y-117860000D01*
X59368571Y-117788571D02*
X59368571Y-118788571D01*
X59368571Y-117931428D02*
X59440000Y-117860000D01*
X59582857Y-117788571D01*
X59797142Y-117788571D01*
X59940000Y-117860000D01*
X60011428Y-118002857D01*
X60011428Y-118788571D01*
X61368571Y-118788571D02*
X61368571Y-117288571D01*
X61368571Y-118717142D02*
X61225714Y-118788571D01*
X60940000Y-118788571D01*
X60797142Y-118717142D01*
X60725714Y-118645714D01*
X60654285Y-118502857D01*
X60654285Y-118074285D01*
X60725714Y-117931428D01*
X60797142Y-117860000D01*
X60940000Y-117788571D01*
X61225714Y-117788571D01*
X61368571Y-117860000D01*
X58297142Y-120328571D02*
X58654285Y-121328571D01*
X59011428Y-120328571D01*
X59582857Y-121328571D02*
X59582857Y-120328571D01*
X59582857Y-119828571D02*
X59511428Y-119900000D01*
X59582857Y-119971428D01*
X59654285Y-119900000D01*
X59582857Y-119828571D01*
X59582857Y-119971428D01*
X60297142Y-120328571D02*
X60297142Y-121328571D01*
X60297142Y-120471428D02*
X60368571Y-120400000D01*
X60511428Y-120328571D01*
X60725714Y-120328571D01*
X60868571Y-120400000D01*
X60940000Y-120542857D01*
X60940000Y-121328571D01*
X36648571Y-29888571D02*
X36148571Y-29174285D01*
X35791428Y-29888571D02*
X35791428Y-28388571D01*
X36362857Y-28388571D01*
X36505714Y-28460000D01*
X36577142Y-28531428D01*
X36648571Y-28674285D01*
X36648571Y-28888571D01*
X36577142Y-29031428D01*
X36505714Y-29102857D01*
X36362857Y-29174285D01*
X35791428Y-29174285D01*
X37934285Y-29888571D02*
X37934285Y-29102857D01*
X37862857Y-28960000D01*
X37720000Y-28888571D01*
X37434285Y-28888571D01*
X37291428Y-28960000D01*
X37934285Y-29817142D02*
X37791428Y-29888571D01*
X37434285Y-29888571D01*
X37291428Y-29817142D01*
X37220000Y-29674285D01*
X37220000Y-29531428D01*
X37291428Y-29388571D01*
X37434285Y-29317142D01*
X37791428Y-29317142D01*
X37934285Y-29245714D01*
X38577142Y-29817142D02*
X38720000Y-29888571D01*
X39005714Y-29888571D01*
X39148571Y-29817142D01*
X39220000Y-29674285D01*
X39220000Y-29602857D01*
X39148571Y-29460000D01*
X39005714Y-29388571D01*
X38791428Y-29388571D01*
X38648571Y-29317142D01*
X38577142Y-29174285D01*
X38577142Y-29102857D01*
X38648571Y-28960000D01*
X38791428Y-28888571D01*
X39005714Y-28888571D01*
X39148571Y-28960000D01*
X39862857Y-28888571D02*
X39862857Y-30388571D01*
X39862857Y-28960000D02*
X40005714Y-28888571D01*
X40291428Y-28888571D01*
X40434285Y-28960000D01*
X40505714Y-29031428D01*
X40577142Y-29174285D01*
X40577142Y-29602857D01*
X40505714Y-29745714D01*
X40434285Y-29817142D01*
X40291428Y-29888571D01*
X40005714Y-29888571D01*
X39862857Y-29817142D01*
X41220000Y-29888571D02*
X41220000Y-28388571D01*
X41220000Y-28960000D02*
X41362857Y-28888571D01*
X41648571Y-28888571D01*
X41791428Y-28960000D01*
X41862857Y-29031428D01*
X41934285Y-29174285D01*
X41934285Y-29602857D01*
X41862857Y-29745714D01*
X41791428Y-29817142D01*
X41648571Y-29888571D01*
X41362857Y-29888571D01*
X41220000Y-29817142D01*
X43148571Y-29817142D02*
X43005714Y-29888571D01*
X42720000Y-29888571D01*
X42577142Y-29817142D01*
X42505714Y-29674285D01*
X42505714Y-29102857D01*
X42577142Y-28960000D01*
X42720000Y-28888571D01*
X43005714Y-28888571D01*
X43148571Y-28960000D01*
X43220000Y-29102857D01*
X43220000Y-29245714D01*
X42505714Y-29388571D01*
X43862857Y-29888571D02*
X43862857Y-28888571D01*
X43862857Y-29174285D02*
X43934285Y-29031428D01*
X44005714Y-28960000D01*
X44148571Y-28888571D01*
X44291428Y-28888571D01*
X44791428Y-29888571D02*
X44791428Y-28888571D01*
X44791428Y-29174285D02*
X44862857Y-29031428D01*
X44934285Y-28960000D01*
X45077142Y-28888571D01*
X45220000Y-28888571D01*
X45577142Y-28888571D02*
X45934285Y-29888571D01*
X46291428Y-28888571D02*
X45934285Y-29888571D01*
X45791428Y-30245714D01*
X45720000Y-30317142D01*
X45577142Y-30388571D01*
X48005714Y-29888571D02*
X48005714Y-28388571D01*
X48577142Y-28388571D01*
X48720000Y-28460000D01*
X48791428Y-28531428D01*
X48862857Y-28674285D01*
X48862857Y-28888571D01*
X48791428Y-29031428D01*
X48720000Y-29102857D01*
X48577142Y-29174285D01*
X48005714Y-29174285D01*
X49505714Y-29888571D02*
X49505714Y-28388571D01*
X51220000Y-28388571D02*
X52220000Y-28388571D01*
X51220000Y-29888571D01*
X52220000Y-29888571D01*
X53362857Y-29817142D02*
X53220000Y-29888571D01*
X52934285Y-29888571D01*
X52791428Y-29817142D01*
X52720000Y-29674285D01*
X52720000Y-29102857D01*
X52791428Y-28960000D01*
X52934285Y-28888571D01*
X53220000Y-28888571D01*
X53362857Y-28960000D01*
X53434285Y-29102857D01*
X53434285Y-29245714D01*
X52720000Y-29388571D01*
X54077142Y-29888571D02*
X54077142Y-28888571D01*
X54077142Y-29174285D02*
X54148571Y-29031428D01*
X54220000Y-28960000D01*
X54362857Y-28888571D01*
X54505714Y-28888571D01*
X55220000Y-29888571D02*
X55077142Y-29817142D01*
X55005714Y-29745714D01*
X54934285Y-29602857D01*
X54934285Y-29174285D01*
X55005714Y-29031428D01*
X55077142Y-28960000D01*
X55220000Y-28888571D01*
X55434285Y-28888571D01*
X55577142Y-28960000D01*
X55648571Y-29031428D01*
X55720000Y-29174285D01*
X55720000Y-29602857D01*
X55648571Y-29745714D01*
X55577142Y-29817142D01*
X55434285Y-29888571D01*
X55220000Y-29888571D01*
X52757142Y-55217142D02*
X52971428Y-55288571D01*
X53328571Y-55288571D01*
X53471428Y-55217142D01*
X53542857Y-55145714D01*
X53614285Y-55002857D01*
X53614285Y-54860000D01*
X53542857Y-54717142D01*
X53471428Y-54645714D01*
X53328571Y-54574285D01*
X53042857Y-54502857D01*
X52900000Y-54431428D01*
X52828571Y-54360000D01*
X52757142Y-54217142D01*
X52757142Y-54074285D01*
X52828571Y-53931428D01*
X52900000Y-53860000D01*
X53042857Y-53788571D01*
X53400000Y-53788571D01*
X53614285Y-53860000D01*
X54257142Y-55288571D02*
X54257142Y-53788571D01*
X54971428Y-55288571D02*
X54971428Y-53788571D01*
X55471428Y-54860000D01*
X55971428Y-53788571D01*
X55971428Y-55288571D01*
X56900000Y-54431428D02*
X56757142Y-54360000D01*
X56685714Y-54288571D01*
X56614285Y-54145714D01*
X56614285Y-54074285D01*
X56685714Y-53931428D01*
X56757142Y-53860000D01*
X56900000Y-53788571D01*
X57185714Y-53788571D01*
X57328571Y-53860000D01*
X57400000Y-53931428D01*
X57471428Y-54074285D01*
X57471428Y-54145714D01*
X57400000Y-54288571D01*
X57328571Y-54360000D01*
X57185714Y-54431428D01*
X56900000Y-54431428D01*
X56757142Y-54502857D01*
X56685714Y-54574285D01*
X56614285Y-54717142D01*
X56614285Y-55002857D01*
X56685714Y-55145714D01*
X56757142Y-55217142D01*
X56900000Y-55288571D01*
X57185714Y-55288571D01*
X57328571Y-55217142D01*
X57400000Y-55145714D01*
X57471428Y-55002857D01*
X57471428Y-54717142D01*
X57400000Y-54574285D01*
X57328571Y-54502857D01*
X57185714Y-54431428D01*
X58400000Y-53788571D02*
X58542857Y-53788571D01*
X58685714Y-53860000D01*
X58757142Y-53931428D01*
X58828571Y-54074285D01*
X58900000Y-54360000D01*
X58900000Y-54717142D01*
X58828571Y-55002857D01*
X58757142Y-55145714D01*
X58685714Y-55217142D01*
X58542857Y-55288571D01*
X58400000Y-55288571D01*
X58257142Y-55217142D01*
X58185714Y-55145714D01*
X58114285Y-55002857D01*
X58042857Y-54717142D01*
X58042857Y-54360000D01*
X58114285Y-54074285D01*
X58185714Y-53931428D01*
X58257142Y-53860000D01*
X58400000Y-53788571D01*
X59828571Y-53788571D02*
X59971428Y-53788571D01*
X60114285Y-53860000D01*
X60185714Y-53931428D01*
X60257142Y-54074285D01*
X60328571Y-54360000D01*
X60328571Y-54717142D01*
X60257142Y-55002857D01*
X60185714Y-55145714D01*
X60114285Y-55217142D01*
X59971428Y-55288571D01*
X59828571Y-55288571D01*
X59685714Y-55217142D01*
X59614285Y-55145714D01*
X59542857Y-55002857D01*
X59471428Y-54717142D01*
X59471428Y-54360000D01*
X59542857Y-54074285D01*
X59614285Y-53931428D01*
X59685714Y-53860000D01*
X59828571Y-53788571D01*
X61685714Y-55288571D02*
X60971428Y-55288571D01*
X60971428Y-53788571D01*
X66738571Y-83927142D02*
X67881428Y-83927142D01*
X66738571Y-81387142D02*
X67881428Y-81387142D01*
X67310000Y-81958571D02*
X67310000Y-80815714D01*
D11*
X7410000Y-157920000D02*
X7410000Y-79080000D01*
X85390000Y-157920000D02*
X7410000Y-157920000D01*
X85390000Y-79080000D02*
X85390000Y-157920000D01*
X7410000Y-79080000D02*
X85390000Y-79080000D01*
X7410000Y-78790000D02*
X7410000Y50000D01*
X85390000Y-78790000D02*
X7410000Y-78790000D01*
X85390000Y50000D02*
X85390000Y-78790000D01*
X7410000Y50000D02*
X85390000Y50000D01*
X39480000Y-62400000D02*
X39480000Y-65560000D01*
X39480000Y-62400000D02*
X16760000Y-62400000D01*
X39480000Y-72220000D02*
X16760000Y-72220000D01*
X39480000Y-69060000D02*
X39480000Y-72220000D01*
X16760000Y-69060000D02*
X16760000Y-72220000D01*
X16760000Y-62400000D02*
X16760000Y-65560000D01*
X16760000Y-101770000D02*
X16760000Y-104930000D01*
X16760000Y-108430000D02*
X16760000Y-111590000D01*
X39480000Y-108430000D02*
X39480000Y-111590000D01*
X39480000Y-111590000D02*
X16760000Y-111590000D01*
X39480000Y-101770000D02*
X16760000Y-101770000D01*
X39480000Y-101770000D02*
X39480000Y-104930000D01*
X39480000Y-115740000D02*
X39480000Y-118900000D01*
X39480000Y-115740000D02*
X16760000Y-115740000D01*
X39480000Y-125560000D02*
X16760000Y-125560000D01*
X39480000Y-122400000D02*
X39480000Y-125560000D01*
X16760000Y-122400000D02*
X16760000Y-125560000D01*
X16760000Y-115740000D02*
X16760000Y-118900000D01*
X16760000Y-129710000D02*
X16760000Y-132870000D01*
X16760000Y-136370000D02*
X16760000Y-139530000D01*
X39480000Y-136370000D02*
X39480000Y-139530000D01*
X39480000Y-139530000D02*
X16760000Y-139530000D01*
X39480000Y-129710000D02*
X16760000Y-129710000D01*
X39480000Y-129710000D02*
X39480000Y-132870000D01*
X39480000Y-142410000D02*
X39480000Y-145570000D01*
X39480000Y-142410000D02*
X16760000Y-142410000D01*
X39480000Y-152230000D02*
X16760000Y-152230000D01*
X39480000Y-149070000D02*
X39480000Y-152230000D01*
X16760000Y-149070000D02*
X16760000Y-152230000D01*
X16760000Y-142410000D02*
X16760000Y-145570000D01*
X16760000Y-48430000D02*
X16760000Y-51590000D01*
X16760000Y-55090000D02*
X16760000Y-58250000D01*
X39480000Y-55090000D02*
X39480000Y-58250000D01*
X39480000Y-58250000D02*
X16760000Y-58250000D01*
X39480000Y-48430000D02*
X16760000Y-48430000D01*
X39480000Y-48430000D02*
X39480000Y-51590000D01*
X16760000Y-75100000D02*
X16760000Y-78260000D01*
X16760000Y-81760000D02*
X16760000Y-84920000D01*
X39480000Y-81760000D02*
X39480000Y-84920000D01*
X39480000Y-84920000D02*
X16760000Y-84920000D01*
X39480000Y-75100000D02*
X16760000Y-75100000D01*
X39480000Y-75100000D02*
X39480000Y-78260000D01*
X39480000Y-87800000D02*
X39480000Y-90960000D01*
X39480000Y-87800000D02*
X16760000Y-87800000D01*
X39480000Y-97620000D02*
X16760000Y-97620000D01*
X39480000Y-94460000D02*
X39480000Y-97620000D01*
X16760000Y-94460000D02*
X16760000Y-97620000D01*
X16760000Y-87800000D02*
X16760000Y-90960000D01*
X49470000Y-121980000D02*
X52130000Y-121980000D01*
X49470000Y-119380000D02*
X49470000Y-121980000D01*
X52130000Y-119380000D02*
X52130000Y-121980000D01*
X49470000Y-119380000D02*
X52130000Y-119380000D01*
X49470000Y-118110000D02*
X49470000Y-116780000D01*
X49470000Y-116780000D02*
X50800000Y-116780000D01*
X48200000Y-72450000D02*
X50860000Y-72450000D01*
X48200000Y-59690000D02*
X48200000Y-72450000D01*
X50860000Y-59690000D02*
X50860000Y-72450000D01*
X48200000Y-59690000D02*
X50860000Y-59690000D01*
X48200000Y-58420000D02*
X48200000Y-57090000D01*
X48200000Y-57090000D02*
X49530000Y-57090000D01*
X75120500Y-114046000D02*
X75120500Y-122174000D01*
X75120500Y-122174000D02*
X62039500Y-122174000D01*
X62039500Y-122174000D02*
X62039500Y-114046000D01*
X62039500Y-114046000D02*
X75120500Y-114046000D01*
X45690000Y-108930000D02*
X45690000Y-91730000D01*
X45690000Y-91730000D02*
X73690000Y-91730000D01*
X73690000Y-108930000D02*
X73690000Y-91730000D01*
X45690000Y-108930000D02*
X73690000Y-108930000D01*
X20940000Y-38900000D02*
X20940000Y-44100000D01*
X69260000Y-38900000D02*
X20940000Y-38900000D01*
X71860000Y-44100000D02*
X20940000Y-44100000D01*
X69260000Y-38900000D02*
X69260000Y-41500000D01*
X69260000Y-41500000D02*
X71860000Y-41500000D01*
X71860000Y-41500000D02*
X71860000Y-44100000D01*
X70530000Y-38900000D02*
X71860000Y-38900000D01*
X71860000Y-38900000D02*
X71860000Y-40230000D01*
X72450000Y-79950000D02*
X69790000Y-79950000D01*
X72450000Y-82550000D02*
X72450000Y-79950000D01*
X69790000Y-82550000D02*
X69790000Y-79950000D01*
X72450000Y-82550000D02*
X69790000Y-82550000D01*
X72450000Y-83820000D02*
X72450000Y-85150000D01*
X72450000Y-85150000D02*
X71120000Y-85150000D01*
D12*
X26500952Y-61238571D02*
X26167619Y-61238571D01*
X26167619Y-61762380D02*
X26167619Y-60762380D01*
X26643809Y-60762380D01*
X27453333Y-61095714D02*
X27453333Y-61762380D01*
X27024761Y-61095714D02*
X27024761Y-61619523D01*
X27072380Y-61714761D01*
X27167619Y-61762380D01*
X27310476Y-61762380D01*
X27405714Y-61714761D01*
X27453333Y-61667142D01*
X27881904Y-61714761D02*
X27977142Y-61762380D01*
X28167619Y-61762380D01*
X28262857Y-61714761D01*
X28310476Y-61619523D01*
X28310476Y-61571904D01*
X28262857Y-61476666D01*
X28167619Y-61429047D01*
X28024761Y-61429047D01*
X27929523Y-61381428D01*
X27881904Y-61286190D01*
X27881904Y-61238571D01*
X27929523Y-61143333D01*
X28024761Y-61095714D01*
X28167619Y-61095714D01*
X28262857Y-61143333D01*
X29120000Y-61714761D02*
X29024761Y-61762380D01*
X28834285Y-61762380D01*
X28739047Y-61714761D01*
X28691428Y-61619523D01*
X28691428Y-61238571D01*
X28739047Y-61143333D01*
X28834285Y-61095714D01*
X29024761Y-61095714D01*
X29120000Y-61143333D01*
X29167619Y-61238571D01*
X29167619Y-61333809D01*
X28691428Y-61429047D01*
X29548571Y-60857619D02*
X29596190Y-60810000D01*
X29691428Y-60762380D01*
X29929523Y-60762380D01*
X30024761Y-60810000D01*
X30072380Y-60857619D01*
X30120000Y-60952857D01*
X30120000Y-61048095D01*
X30072380Y-61190952D01*
X29500952Y-61762380D01*
X30120000Y-61762380D01*
X26500952Y-100608571D02*
X26167619Y-100608571D01*
X26167619Y-101132380D02*
X26167619Y-100132380D01*
X26643809Y-100132380D01*
X27453333Y-100465714D02*
X27453333Y-101132380D01*
X27024761Y-100465714D02*
X27024761Y-100989523D01*
X27072380Y-101084761D01*
X27167619Y-101132380D01*
X27310476Y-101132380D01*
X27405714Y-101084761D01*
X27453333Y-101037142D01*
X27881904Y-101084761D02*
X27977142Y-101132380D01*
X28167619Y-101132380D01*
X28262857Y-101084761D01*
X28310476Y-100989523D01*
X28310476Y-100941904D01*
X28262857Y-100846666D01*
X28167619Y-100799047D01*
X28024761Y-100799047D01*
X27929523Y-100751428D01*
X27881904Y-100656190D01*
X27881904Y-100608571D01*
X27929523Y-100513333D01*
X28024761Y-100465714D01*
X28167619Y-100465714D01*
X28262857Y-100513333D01*
X29120000Y-101084761D02*
X29024761Y-101132380D01*
X28834285Y-101132380D01*
X28739047Y-101084761D01*
X28691428Y-100989523D01*
X28691428Y-100608571D01*
X28739047Y-100513333D01*
X28834285Y-100465714D01*
X29024761Y-100465714D01*
X29120000Y-100513333D01*
X29167619Y-100608571D01*
X29167619Y-100703809D01*
X28691428Y-100799047D01*
X30072380Y-100132380D02*
X29596190Y-100132380D01*
X29548571Y-100608571D01*
X29596190Y-100560952D01*
X29691428Y-100513333D01*
X29929523Y-100513333D01*
X30024761Y-100560952D01*
X30072380Y-100608571D01*
X30120000Y-100703809D01*
X30120000Y-100941904D01*
X30072380Y-101037142D01*
X30024761Y-101084761D01*
X29929523Y-101132380D01*
X29691428Y-101132380D01*
X29596190Y-101084761D01*
X29548571Y-101037142D01*
X26500952Y-114578571D02*
X26167619Y-114578571D01*
X26167619Y-115102380D02*
X26167619Y-114102380D01*
X26643809Y-114102380D01*
X27453333Y-114435714D02*
X27453333Y-115102380D01*
X27024761Y-114435714D02*
X27024761Y-114959523D01*
X27072380Y-115054761D01*
X27167619Y-115102380D01*
X27310476Y-115102380D01*
X27405714Y-115054761D01*
X27453333Y-115007142D01*
X27881904Y-115054761D02*
X27977142Y-115102380D01*
X28167619Y-115102380D01*
X28262857Y-115054761D01*
X28310476Y-114959523D01*
X28310476Y-114911904D01*
X28262857Y-114816666D01*
X28167619Y-114769047D01*
X28024761Y-114769047D01*
X27929523Y-114721428D01*
X27881904Y-114626190D01*
X27881904Y-114578571D01*
X27929523Y-114483333D01*
X28024761Y-114435714D01*
X28167619Y-114435714D01*
X28262857Y-114483333D01*
X29120000Y-115054761D02*
X29024761Y-115102380D01*
X28834285Y-115102380D01*
X28739047Y-115054761D01*
X28691428Y-114959523D01*
X28691428Y-114578571D01*
X28739047Y-114483333D01*
X28834285Y-114435714D01*
X29024761Y-114435714D01*
X29120000Y-114483333D01*
X29167619Y-114578571D01*
X29167619Y-114673809D01*
X28691428Y-114769047D01*
X30024761Y-114102380D02*
X29834285Y-114102380D01*
X29739047Y-114150000D01*
X29691428Y-114197619D01*
X29596190Y-114340476D01*
X29548571Y-114530952D01*
X29548571Y-114911904D01*
X29596190Y-115007142D01*
X29643809Y-115054761D01*
X29739047Y-115102380D01*
X29929523Y-115102380D01*
X30024761Y-115054761D01*
X30072380Y-115007142D01*
X30120000Y-114911904D01*
X30120000Y-114673809D01*
X30072380Y-114578571D01*
X30024761Y-114530952D01*
X29929523Y-114483333D01*
X29739047Y-114483333D01*
X29643809Y-114530952D01*
X29596190Y-114578571D01*
X29548571Y-114673809D01*
X26500952Y-128548571D02*
X26167619Y-128548571D01*
X26167619Y-129072380D02*
X26167619Y-128072380D01*
X26643809Y-128072380D01*
X27453333Y-128405714D02*
X27453333Y-129072380D01*
X27024761Y-128405714D02*
X27024761Y-128929523D01*
X27072380Y-129024761D01*
X27167619Y-129072380D01*
X27310476Y-129072380D01*
X27405714Y-129024761D01*
X27453333Y-128977142D01*
X27881904Y-129024761D02*
X27977142Y-129072380D01*
X28167619Y-129072380D01*
X28262857Y-129024761D01*
X28310476Y-128929523D01*
X28310476Y-128881904D01*
X28262857Y-128786666D01*
X28167619Y-128739047D01*
X28024761Y-128739047D01*
X27929523Y-128691428D01*
X27881904Y-128596190D01*
X27881904Y-128548571D01*
X27929523Y-128453333D01*
X28024761Y-128405714D01*
X28167619Y-128405714D01*
X28262857Y-128453333D01*
X29120000Y-129024761D02*
X29024761Y-129072380D01*
X28834285Y-129072380D01*
X28739047Y-129024761D01*
X28691428Y-128929523D01*
X28691428Y-128548571D01*
X28739047Y-128453333D01*
X28834285Y-128405714D01*
X29024761Y-128405714D01*
X29120000Y-128453333D01*
X29167619Y-128548571D01*
X29167619Y-128643809D01*
X28691428Y-128739047D01*
X29500952Y-128072380D02*
X30167619Y-128072380D01*
X29739047Y-129072380D01*
X26500952Y-141248571D02*
X26167619Y-141248571D01*
X26167619Y-141772380D02*
X26167619Y-140772380D01*
X26643809Y-140772380D01*
X27453333Y-141105714D02*
X27453333Y-141772380D01*
X27024761Y-141105714D02*
X27024761Y-141629523D01*
X27072380Y-141724761D01*
X27167619Y-141772380D01*
X27310476Y-141772380D01*
X27405714Y-141724761D01*
X27453333Y-141677142D01*
X27881904Y-141724761D02*
X27977142Y-141772380D01*
X28167619Y-141772380D01*
X28262857Y-141724761D01*
X28310476Y-141629523D01*
X28310476Y-141581904D01*
X28262857Y-141486666D01*
X28167619Y-141439047D01*
X28024761Y-141439047D01*
X27929523Y-141391428D01*
X27881904Y-141296190D01*
X27881904Y-141248571D01*
X27929523Y-141153333D01*
X28024761Y-141105714D01*
X28167619Y-141105714D01*
X28262857Y-141153333D01*
X29120000Y-141724761D02*
X29024761Y-141772380D01*
X28834285Y-141772380D01*
X28739047Y-141724761D01*
X28691428Y-141629523D01*
X28691428Y-141248571D01*
X28739047Y-141153333D01*
X28834285Y-141105714D01*
X29024761Y-141105714D01*
X29120000Y-141153333D01*
X29167619Y-141248571D01*
X29167619Y-141343809D01*
X28691428Y-141439047D01*
X29739047Y-141200952D02*
X29643809Y-141153333D01*
X29596190Y-141105714D01*
X29548571Y-141010476D01*
X29548571Y-140962857D01*
X29596190Y-140867619D01*
X29643809Y-140820000D01*
X29739047Y-140772380D01*
X29929523Y-140772380D01*
X30024761Y-140820000D01*
X30072380Y-140867619D01*
X30120000Y-140962857D01*
X30120000Y-141010476D01*
X30072380Y-141105714D01*
X30024761Y-141153333D01*
X29929523Y-141200952D01*
X29739047Y-141200952D01*
X29643809Y-141248571D01*
X29596190Y-141296190D01*
X29548571Y-141391428D01*
X29548571Y-141581904D01*
X29596190Y-141677142D01*
X29643809Y-141724761D01*
X29739047Y-141772380D01*
X29929523Y-141772380D01*
X30024761Y-141724761D01*
X30072380Y-141677142D01*
X30120000Y-141581904D01*
X30120000Y-141391428D01*
X30072380Y-141296190D01*
X30024761Y-141248571D01*
X29929523Y-141200952D01*
X26500952Y-47268571D02*
X26167619Y-47268571D01*
X26167619Y-47792380D02*
X26167619Y-46792380D01*
X26643809Y-46792380D01*
X27453333Y-47125714D02*
X27453333Y-47792380D01*
X27024761Y-47125714D02*
X27024761Y-47649523D01*
X27072380Y-47744761D01*
X27167619Y-47792380D01*
X27310476Y-47792380D01*
X27405714Y-47744761D01*
X27453333Y-47697142D01*
X27881904Y-47744761D02*
X27977142Y-47792380D01*
X28167619Y-47792380D01*
X28262857Y-47744761D01*
X28310476Y-47649523D01*
X28310476Y-47601904D01*
X28262857Y-47506666D01*
X28167619Y-47459047D01*
X28024761Y-47459047D01*
X27929523Y-47411428D01*
X27881904Y-47316190D01*
X27881904Y-47268571D01*
X27929523Y-47173333D01*
X28024761Y-47125714D01*
X28167619Y-47125714D01*
X28262857Y-47173333D01*
X29120000Y-47744761D02*
X29024761Y-47792380D01*
X28834285Y-47792380D01*
X28739047Y-47744761D01*
X28691428Y-47649523D01*
X28691428Y-47268571D01*
X28739047Y-47173333D01*
X28834285Y-47125714D01*
X29024761Y-47125714D01*
X29120000Y-47173333D01*
X29167619Y-47268571D01*
X29167619Y-47363809D01*
X28691428Y-47459047D01*
X30120000Y-47792380D02*
X29548571Y-47792380D01*
X29834285Y-47792380D02*
X29834285Y-46792380D01*
X29739047Y-46935238D01*
X29643809Y-47030476D01*
X29548571Y-47078095D01*
X26500952Y-73938571D02*
X26167619Y-73938571D01*
X26167619Y-74462380D02*
X26167619Y-73462380D01*
X26643809Y-73462380D01*
X27453333Y-73795714D02*
X27453333Y-74462380D01*
X27024761Y-73795714D02*
X27024761Y-74319523D01*
X27072380Y-74414761D01*
X27167619Y-74462380D01*
X27310476Y-74462380D01*
X27405714Y-74414761D01*
X27453333Y-74367142D01*
X27881904Y-74414761D02*
X27977142Y-74462380D01*
X28167619Y-74462380D01*
X28262857Y-74414761D01*
X28310476Y-74319523D01*
X28310476Y-74271904D01*
X28262857Y-74176666D01*
X28167619Y-74129047D01*
X28024761Y-74129047D01*
X27929523Y-74081428D01*
X27881904Y-73986190D01*
X27881904Y-73938571D01*
X27929523Y-73843333D01*
X28024761Y-73795714D01*
X28167619Y-73795714D01*
X28262857Y-73843333D01*
X29120000Y-74414761D02*
X29024761Y-74462380D01*
X28834285Y-74462380D01*
X28739047Y-74414761D01*
X28691428Y-74319523D01*
X28691428Y-73938571D01*
X28739047Y-73843333D01*
X28834285Y-73795714D01*
X29024761Y-73795714D01*
X29120000Y-73843333D01*
X29167619Y-73938571D01*
X29167619Y-74033809D01*
X28691428Y-74129047D01*
X29500952Y-73462380D02*
X30120000Y-73462380D01*
X29786666Y-73843333D01*
X29929523Y-73843333D01*
X30024761Y-73890952D01*
X30072380Y-73938571D01*
X30120000Y-74033809D01*
X30120000Y-74271904D01*
X30072380Y-74367142D01*
X30024761Y-74414761D01*
X29929523Y-74462380D01*
X29643809Y-74462380D01*
X29548571Y-74414761D01*
X29500952Y-74367142D01*
X26500952Y-86638571D02*
X26167619Y-86638571D01*
X26167619Y-87162380D02*
X26167619Y-86162380D01*
X26643809Y-86162380D01*
X27453333Y-86495714D02*
X27453333Y-87162380D01*
X27024761Y-86495714D02*
X27024761Y-87019523D01*
X27072380Y-87114761D01*
X27167619Y-87162380D01*
X27310476Y-87162380D01*
X27405714Y-87114761D01*
X27453333Y-87067142D01*
X27881904Y-87114761D02*
X27977142Y-87162380D01*
X28167619Y-87162380D01*
X28262857Y-87114761D01*
X28310476Y-87019523D01*
X28310476Y-86971904D01*
X28262857Y-86876666D01*
X28167619Y-86829047D01*
X28024761Y-86829047D01*
X27929523Y-86781428D01*
X27881904Y-86686190D01*
X27881904Y-86638571D01*
X27929523Y-86543333D01*
X28024761Y-86495714D01*
X28167619Y-86495714D01*
X28262857Y-86543333D01*
X29120000Y-87114761D02*
X29024761Y-87162380D01*
X28834285Y-87162380D01*
X28739047Y-87114761D01*
X28691428Y-87019523D01*
X28691428Y-86638571D01*
X28739047Y-86543333D01*
X28834285Y-86495714D01*
X29024761Y-86495714D01*
X29120000Y-86543333D01*
X29167619Y-86638571D01*
X29167619Y-86733809D01*
X28691428Y-86829047D01*
X30024761Y-86495714D02*
X30024761Y-87162380D01*
X29786666Y-86114761D02*
X29548571Y-86829047D01*
X30167619Y-86829047D01*
X46847619Y-122642380D02*
X47038095Y-122642380D01*
X47133333Y-122690000D01*
X47228571Y-122785238D01*
X47276190Y-122975714D01*
X47276190Y-123309047D01*
X47228571Y-123499523D01*
X47133333Y-123594761D01*
X47038095Y-123642380D01*
X46847619Y-123642380D01*
X46752380Y-123594761D01*
X46657142Y-123499523D01*
X46609523Y-123309047D01*
X46609523Y-122975714D01*
X46657142Y-122785238D01*
X46752380Y-122690000D01*
X46847619Y-122642380D01*
X47704761Y-123642380D02*
X47704761Y-122642380D01*
X48276190Y-123642380D01*
X48276190Y-122642380D01*
X49466666Y-122594761D02*
X48609523Y-123880476D01*
X49990476Y-122642380D02*
X50180952Y-122642380D01*
X50276190Y-122690000D01*
X50371428Y-122785238D01*
X50419047Y-122975714D01*
X50419047Y-123309047D01*
X50371428Y-123499523D01*
X50276190Y-123594761D01*
X50180952Y-123642380D01*
X49990476Y-123642380D01*
X49895238Y-123594761D01*
X49800000Y-123499523D01*
X49752380Y-123309047D01*
X49752380Y-122975714D01*
X49800000Y-122785238D01*
X49895238Y-122690000D01*
X49990476Y-122642380D01*
X51180952Y-123118571D02*
X50847619Y-123118571D01*
X50847619Y-123642380D02*
X50847619Y-122642380D01*
X51323809Y-122642380D01*
X52038095Y-123118571D02*
X51704761Y-123118571D01*
X51704761Y-123642380D02*
X51704761Y-122642380D01*
X52180952Y-122642380D01*
X53276190Y-123594761D02*
X53419047Y-123642380D01*
X53657142Y-123642380D01*
X53752380Y-123594761D01*
X53800000Y-123547142D01*
X53847619Y-123451904D01*
X53847619Y-123356666D01*
X53800000Y-123261428D01*
X53752380Y-123213809D01*
X53657142Y-123166190D01*
X53466666Y-123118571D01*
X53371428Y-123070952D01*
X53323809Y-123023333D01*
X53276190Y-122928095D01*
X53276190Y-122832857D01*
X53323809Y-122737619D01*
X53371428Y-122690000D01*
X53466666Y-122642380D01*
X53704761Y-122642380D01*
X53847619Y-122690000D01*
X54180952Y-122642380D02*
X54419047Y-123642380D01*
X54609523Y-122928095D01*
X54800000Y-123642380D01*
X55038095Y-122642380D01*
X49196666Y-55542380D02*
X49196666Y-56256666D01*
X49149047Y-56399523D01*
X49053809Y-56494761D01*
X48910952Y-56542380D01*
X48815714Y-56542380D01*
X49720476Y-56542380D02*
X49910952Y-56542380D01*
X50006190Y-56494761D01*
X50053809Y-56447142D01*
X50149047Y-56304285D01*
X50196666Y-56113809D01*
X50196666Y-55732857D01*
X50149047Y-55637619D01*
X50101428Y-55590000D01*
X50006190Y-55542380D01*
X49815714Y-55542380D01*
X49720476Y-55590000D01*
X49672857Y-55637619D01*
X49625238Y-55732857D01*
X49625238Y-55970952D01*
X49672857Y-56066190D01*
X49720476Y-56113809D01*
X49815714Y-56161428D01*
X50006190Y-56161428D01*
X50101428Y-56113809D01*
X50149047Y-56066190D01*
X50196666Y-55970952D01*
X77922380Y-124276666D02*
X76922380Y-124276666D01*
X76922380Y-123895714D01*
X76970000Y-123800476D01*
X77017619Y-123752857D01*
X77112857Y-123705238D01*
X77255714Y-123705238D01*
X77350952Y-123752857D01*
X77398571Y-123800476D01*
X77446190Y-123895714D01*
X77446190Y-124276666D01*
X76922380Y-123086190D02*
X76922380Y-122895714D01*
X76970000Y-122800476D01*
X77065238Y-122705238D01*
X77255714Y-122657619D01*
X77589047Y-122657619D01*
X77779523Y-122705238D01*
X77874761Y-122800476D01*
X77922380Y-122895714D01*
X77922380Y-123086190D01*
X77874761Y-123181428D01*
X77779523Y-123276666D01*
X77589047Y-123324285D01*
X77255714Y-123324285D01*
X77065238Y-123276666D01*
X76970000Y-123181428D01*
X76922380Y-123086190D01*
X77922380Y-121752857D02*
X77922380Y-122229047D01*
X76922380Y-122229047D01*
X76922380Y-121229047D02*
X76922380Y-121038571D01*
X76970000Y-120943333D01*
X77065238Y-120848095D01*
X77255714Y-120800476D01*
X77589047Y-120800476D01*
X77779523Y-120848095D01*
X77874761Y-120943333D01*
X77922380Y-121038571D01*
X77922380Y-121229047D01*
X77874761Y-121324285D01*
X77779523Y-121419523D01*
X77589047Y-121467142D01*
X77255714Y-121467142D01*
X77065238Y-121419523D01*
X76970000Y-121324285D01*
X76922380Y-121229047D01*
X77922380Y-119895714D02*
X77922380Y-120371904D01*
X76922380Y-120371904D01*
X76922380Y-119562380D02*
X77731904Y-119562380D01*
X77827142Y-119514761D01*
X77874761Y-119467142D01*
X77922380Y-119371904D01*
X77922380Y-119181428D01*
X77874761Y-119086190D01*
X77827142Y-119038571D01*
X77731904Y-118990952D01*
X76922380Y-118990952D01*
X77827142Y-118514761D02*
X77874761Y-118467142D01*
X77922380Y-118514761D01*
X77874761Y-118562380D01*
X77827142Y-118514761D01*
X77922380Y-118514761D01*
X76922380Y-118038571D02*
X77731904Y-118038571D01*
X77827142Y-117990952D01*
X77874761Y-117943333D01*
X77922380Y-117848095D01*
X77922380Y-117657619D01*
X77874761Y-117562380D01*
X77827142Y-117514761D01*
X77731904Y-117467142D01*
X76922380Y-117467142D01*
X76922380Y-117086190D02*
X76922380Y-116467142D01*
X77303333Y-116800476D01*
X77303333Y-116657619D01*
X77350952Y-116562380D01*
X77398571Y-116514761D01*
X77493809Y-116467142D01*
X77731904Y-116467142D01*
X77827142Y-116514761D01*
X77874761Y-116562380D01*
X77922380Y-116657619D01*
X77922380Y-116943333D01*
X77874761Y-117038571D01*
X77827142Y-117086190D01*
X76922380Y-116181428D02*
X77922380Y-115848095D01*
X76922380Y-115514761D01*
X77922380Y-114657619D02*
X77922380Y-115229047D01*
X77922380Y-114943333D02*
X76922380Y-114943333D01*
X77065238Y-115038571D01*
X77160476Y-115133809D01*
X77208095Y-115229047D01*
X77017619Y-114276666D02*
X76970000Y-114229047D01*
X76922380Y-114133809D01*
X76922380Y-113895714D01*
X76970000Y-113800476D01*
X77017619Y-113752857D01*
X77112857Y-113705238D01*
X77208095Y-113705238D01*
X77350952Y-113752857D01*
X77922380Y-114324285D01*
X77922380Y-113705238D01*
X77398571Y-112943333D02*
X77398571Y-113276666D01*
X77922380Y-113276666D02*
X76922380Y-113276666D01*
X76922380Y-112800476D01*
X76922380Y-111943333D02*
X76922380Y-112419523D01*
X77398571Y-112467142D01*
X77350952Y-112419523D01*
X77303333Y-112324285D01*
X77303333Y-112086190D01*
X77350952Y-111990952D01*
X77398571Y-111943333D01*
X77493809Y-111895714D01*
X77731904Y-111895714D01*
X77827142Y-111943333D01*
X77874761Y-111990952D01*
X77922380Y-112086190D01*
X77922380Y-112324285D01*
X77874761Y-112419523D01*
X77827142Y-112467142D01*
X43902380Y-103020476D02*
X43902380Y-102449047D01*
X44902380Y-102734761D02*
X43902380Y-102734761D01*
X44902380Y-102115714D02*
X43902380Y-102115714D01*
X43902380Y-101734761D01*
X43950000Y-101639523D01*
X43997619Y-101591904D01*
X44092857Y-101544285D01*
X44235714Y-101544285D01*
X44330952Y-101591904D01*
X44378571Y-101639523D01*
X44426190Y-101734761D01*
X44426190Y-102115714D01*
X44235714Y-100687142D02*
X44902380Y-100687142D01*
X43854761Y-100925238D02*
X44569047Y-101163333D01*
X44569047Y-100544285D01*
X43902380Y-99972857D02*
X43902380Y-99877619D01*
X43950000Y-99782380D01*
X43997619Y-99734761D01*
X44092857Y-99687142D01*
X44283333Y-99639523D01*
X44521428Y-99639523D01*
X44711904Y-99687142D01*
X44807142Y-99734761D01*
X44854761Y-99782380D01*
X44902380Y-99877619D01*
X44902380Y-99972857D01*
X44854761Y-100068095D01*
X44807142Y-100115714D01*
X44711904Y-100163333D01*
X44521428Y-100210952D01*
X44283333Y-100210952D01*
X44092857Y-100163333D01*
X43997619Y-100115714D01*
X43950000Y-100068095D01*
X43902380Y-99972857D01*
X43902380Y-98734761D02*
X43902380Y-99210952D01*
X44378571Y-99258571D01*
X44330952Y-99210952D01*
X44283333Y-99115714D01*
X44283333Y-98877619D01*
X44330952Y-98782380D01*
X44378571Y-98734761D01*
X44473809Y-98687142D01*
X44711904Y-98687142D01*
X44807142Y-98734761D01*
X44854761Y-98782380D01*
X44902380Y-98877619D01*
X44902380Y-99115714D01*
X44854761Y-99210952D01*
X44807142Y-99258571D01*
X43902380Y-97830000D02*
X43902380Y-98020476D01*
X43950000Y-98115714D01*
X43997619Y-98163333D01*
X44140476Y-98258571D01*
X44330952Y-98306190D01*
X44711904Y-98306190D01*
X44807142Y-98258571D01*
X44854761Y-98210952D01*
X44902380Y-98115714D01*
X44902380Y-97925238D01*
X44854761Y-97830000D01*
X44807142Y-97782380D01*
X44711904Y-97734761D01*
X44473809Y-97734761D01*
X44378571Y-97782380D01*
X44330952Y-97830000D01*
X44283333Y-97925238D01*
X44283333Y-98115714D01*
X44330952Y-98210952D01*
X44378571Y-98258571D01*
X44473809Y-98306190D01*
X72312380Y-41833333D02*
X73026666Y-41833333D01*
X73169523Y-41880952D01*
X73264761Y-41976190D01*
X73312380Y-42119047D01*
X73312380Y-42214285D01*
X72407619Y-41404761D02*
X72360000Y-41357142D01*
X72312380Y-41261904D01*
X72312380Y-41023809D01*
X72360000Y-40928571D01*
X72407619Y-40880952D01*
X72502857Y-40833333D01*
X72598095Y-40833333D01*
X72740952Y-40880952D01*
X73312380Y-41452380D01*
X73312380Y-40833333D01*
X52474761Y-146954047D02*
X52522380Y-146811190D01*
X52522380Y-146573095D01*
X52474761Y-146477857D01*
X52427142Y-146430238D01*
X52331904Y-146382619D01*
X52236666Y-146382619D01*
X52141428Y-146430238D01*
X52093809Y-146477857D01*
X52046190Y-146573095D01*
X51998571Y-146763571D01*
X51950952Y-146858809D01*
X51903333Y-146906428D01*
X51808095Y-146954047D01*
X51712857Y-146954047D01*
X51617619Y-146906428D01*
X51570000Y-146858809D01*
X51522380Y-146763571D01*
X51522380Y-146525476D01*
X51570000Y-146382619D01*
X52522380Y-145811190D02*
X52474761Y-145906428D01*
X52427142Y-145954047D01*
X52331904Y-146001666D01*
X52046190Y-146001666D01*
X51950952Y-145954047D01*
X51903333Y-145906428D01*
X51855714Y-145811190D01*
X51855714Y-145668333D01*
X51903333Y-145573095D01*
X51950952Y-145525476D01*
X52046190Y-145477857D01*
X52331904Y-145477857D01*
X52427142Y-145525476D01*
X52474761Y-145573095D01*
X52522380Y-145668333D01*
X52522380Y-145811190D01*
X52522380Y-144906428D02*
X52474761Y-145001666D01*
X52379523Y-145049285D01*
X51522380Y-145049285D01*
X52522380Y-144096904D02*
X51998571Y-144096904D01*
X51903333Y-144144523D01*
X51855714Y-144239761D01*
X51855714Y-144430238D01*
X51903333Y-144525476D01*
X52474761Y-144096904D02*
X52522380Y-144192142D01*
X52522380Y-144430238D01*
X52474761Y-144525476D01*
X52379523Y-144573095D01*
X52284285Y-144573095D01*
X52189047Y-144525476D01*
X52141428Y-144430238D01*
X52141428Y-144192142D01*
X52093809Y-144096904D01*
X52522380Y-143620714D02*
X51855714Y-143620714D01*
X52046190Y-143620714D02*
X51950952Y-143573095D01*
X51903333Y-143525476D01*
X51855714Y-143430238D01*
X51855714Y-143335000D01*
X52474761Y-141811190D02*
X52522380Y-141906428D01*
X52522380Y-142096904D01*
X52474761Y-142192142D01*
X52427142Y-142239761D01*
X52331904Y-142287380D01*
X52046190Y-142287380D01*
X51950952Y-142239761D01*
X51903333Y-142192142D01*
X51855714Y-142096904D01*
X51855714Y-141906428D01*
X51903333Y-141811190D01*
X52522380Y-141239761D02*
X52474761Y-141335000D01*
X52427142Y-141382619D01*
X52331904Y-141430238D01*
X52046190Y-141430238D01*
X51950952Y-141382619D01*
X51903333Y-141335000D01*
X51855714Y-141239761D01*
X51855714Y-141096904D01*
X51903333Y-141001666D01*
X51950952Y-140954047D01*
X52046190Y-140906428D01*
X52331904Y-140906428D01*
X52427142Y-140954047D01*
X52474761Y-141001666D01*
X52522380Y-141096904D01*
X52522380Y-141239761D01*
X51855714Y-140477857D02*
X52522380Y-140477857D01*
X51950952Y-140477857D02*
X51903333Y-140430238D01*
X51855714Y-140335000D01*
X51855714Y-140192142D01*
X51903333Y-140096904D01*
X51998571Y-140049285D01*
X52522380Y-140049285D01*
X51855714Y-139668333D02*
X52522380Y-139430238D01*
X51855714Y-139192142D01*
X52474761Y-138430238D02*
X52522380Y-138525476D01*
X52522380Y-138715952D01*
X52474761Y-138811190D01*
X52379523Y-138858809D01*
X51998571Y-138858809D01*
X51903333Y-138811190D01*
X51855714Y-138715952D01*
X51855714Y-138525476D01*
X51903333Y-138430238D01*
X51998571Y-138382619D01*
X52093809Y-138382619D01*
X52189047Y-138858809D01*
X52522380Y-137954047D02*
X51855714Y-137954047D01*
X52046190Y-137954047D02*
X51950952Y-137906428D01*
X51903333Y-137858809D01*
X51855714Y-137763571D01*
X51855714Y-137668333D01*
X51855714Y-137477857D02*
X51855714Y-137096904D01*
X51522380Y-137335000D02*
X52379523Y-137335000D01*
X52474761Y-137287380D01*
X52522380Y-137192142D01*
X52522380Y-137096904D01*
X52474761Y-136382619D02*
X52522380Y-136477857D01*
X52522380Y-136668333D01*
X52474761Y-136763571D01*
X52379523Y-136811190D01*
X51998571Y-136811190D01*
X51903333Y-136763571D01*
X51855714Y-136668333D01*
X51855714Y-136477857D01*
X51903333Y-136382619D01*
X51998571Y-136335000D01*
X52093809Y-136335000D01*
X52189047Y-136811190D01*
X52522380Y-135906428D02*
X51855714Y-135906428D01*
X52046190Y-135906428D02*
X51950952Y-135858809D01*
X51903333Y-135811190D01*
X51855714Y-135715952D01*
X51855714Y-135620714D01*
X52141428Y-134525476D02*
X52141428Y-133763571D01*
X52522380Y-134144523D02*
X51760476Y-134144523D01*
X70254761Y-146954047D02*
X70302380Y-146811190D01*
X70302380Y-146573095D01*
X70254761Y-146477857D01*
X70207142Y-146430238D01*
X70111904Y-146382619D01*
X70016666Y-146382619D01*
X69921428Y-146430238D01*
X69873809Y-146477857D01*
X69826190Y-146573095D01*
X69778571Y-146763571D01*
X69730952Y-146858809D01*
X69683333Y-146906428D01*
X69588095Y-146954047D01*
X69492857Y-146954047D01*
X69397619Y-146906428D01*
X69350000Y-146858809D01*
X69302380Y-146763571D01*
X69302380Y-146525476D01*
X69350000Y-146382619D01*
X70302380Y-145811190D02*
X70254761Y-145906428D01*
X70207142Y-145954047D01*
X70111904Y-146001666D01*
X69826190Y-146001666D01*
X69730952Y-145954047D01*
X69683333Y-145906428D01*
X69635714Y-145811190D01*
X69635714Y-145668333D01*
X69683333Y-145573095D01*
X69730952Y-145525476D01*
X69826190Y-145477857D01*
X70111904Y-145477857D01*
X70207142Y-145525476D01*
X70254761Y-145573095D01*
X70302380Y-145668333D01*
X70302380Y-145811190D01*
X70302380Y-144906428D02*
X70254761Y-145001666D01*
X70159523Y-145049285D01*
X69302380Y-145049285D01*
X70302380Y-144096904D02*
X69778571Y-144096904D01*
X69683333Y-144144523D01*
X69635714Y-144239761D01*
X69635714Y-144430238D01*
X69683333Y-144525476D01*
X70254761Y-144096904D02*
X70302380Y-144192142D01*
X70302380Y-144430238D01*
X70254761Y-144525476D01*
X70159523Y-144573095D01*
X70064285Y-144573095D01*
X69969047Y-144525476D01*
X69921428Y-144430238D01*
X69921428Y-144192142D01*
X69873809Y-144096904D01*
X70302380Y-143620714D02*
X69635714Y-143620714D01*
X69826190Y-143620714D02*
X69730952Y-143573095D01*
X69683333Y-143525476D01*
X69635714Y-143430238D01*
X69635714Y-143335000D01*
X70254761Y-141811190D02*
X70302380Y-141906428D01*
X70302380Y-142096904D01*
X70254761Y-142192142D01*
X70207142Y-142239761D01*
X70111904Y-142287380D01*
X69826190Y-142287380D01*
X69730952Y-142239761D01*
X69683333Y-142192142D01*
X69635714Y-142096904D01*
X69635714Y-141906428D01*
X69683333Y-141811190D01*
X70302380Y-141239761D02*
X70254761Y-141335000D01*
X70207142Y-141382619D01*
X70111904Y-141430238D01*
X69826190Y-141430238D01*
X69730952Y-141382619D01*
X69683333Y-141335000D01*
X69635714Y-141239761D01*
X69635714Y-141096904D01*
X69683333Y-141001666D01*
X69730952Y-140954047D01*
X69826190Y-140906428D01*
X70111904Y-140906428D01*
X70207142Y-140954047D01*
X70254761Y-141001666D01*
X70302380Y-141096904D01*
X70302380Y-141239761D01*
X69635714Y-140477857D02*
X70302380Y-140477857D01*
X69730952Y-140477857D02*
X69683333Y-140430238D01*
X69635714Y-140335000D01*
X69635714Y-140192142D01*
X69683333Y-140096904D01*
X69778571Y-140049285D01*
X70302380Y-140049285D01*
X69635714Y-139668333D02*
X70302380Y-139430238D01*
X69635714Y-139192142D01*
X70254761Y-138430238D02*
X70302380Y-138525476D01*
X70302380Y-138715952D01*
X70254761Y-138811190D01*
X70159523Y-138858809D01*
X69778571Y-138858809D01*
X69683333Y-138811190D01*
X69635714Y-138715952D01*
X69635714Y-138525476D01*
X69683333Y-138430238D01*
X69778571Y-138382619D01*
X69873809Y-138382619D01*
X69969047Y-138858809D01*
X70302380Y-137954047D02*
X69635714Y-137954047D01*
X69826190Y-137954047D02*
X69730952Y-137906428D01*
X69683333Y-137858809D01*
X69635714Y-137763571D01*
X69635714Y-137668333D01*
X69635714Y-137477857D02*
X69635714Y-137096904D01*
X69302380Y-137335000D02*
X70159523Y-137335000D01*
X70254761Y-137287380D01*
X70302380Y-137192142D01*
X70302380Y-137096904D01*
X70254761Y-136382619D02*
X70302380Y-136477857D01*
X70302380Y-136668333D01*
X70254761Y-136763571D01*
X70159523Y-136811190D01*
X69778571Y-136811190D01*
X69683333Y-136763571D01*
X69635714Y-136668333D01*
X69635714Y-136477857D01*
X69683333Y-136382619D01*
X69778571Y-136335000D01*
X69873809Y-136335000D01*
X69969047Y-136811190D01*
X70302380Y-135906428D02*
X69635714Y-135906428D01*
X69826190Y-135906428D02*
X69730952Y-135858809D01*
X69683333Y-135811190D01*
X69635714Y-135715952D01*
X69635714Y-135620714D01*
X69921428Y-134525476D02*
X69921428Y-133763571D01*
X68191428Y-78192380D02*
X68191428Y-79001904D01*
X68239047Y-79097142D01*
X68286666Y-79144761D01*
X68381904Y-79192380D01*
X68572380Y-79192380D01*
X68667619Y-79144761D01*
X68715238Y-79097142D01*
X68762857Y-79001904D01*
X68762857Y-78192380D01*
X69191428Y-79144761D02*
X69334285Y-79192380D01*
X69572380Y-79192380D01*
X69667619Y-79144761D01*
X69715238Y-79097142D01*
X69762857Y-79001904D01*
X69762857Y-78906666D01*
X69715238Y-78811428D01*
X69667619Y-78763809D01*
X69572380Y-78716190D01*
X69381904Y-78668571D01*
X69286666Y-78620952D01*
X69239047Y-78573333D01*
X69191428Y-78478095D01*
X69191428Y-78382857D01*
X69239047Y-78287619D01*
X69286666Y-78240000D01*
X69381904Y-78192380D01*
X69620000Y-78192380D01*
X69762857Y-78240000D01*
X70524761Y-78668571D02*
X70667619Y-78716190D01*
X70715238Y-78763809D01*
X70762857Y-78859047D01*
X70762857Y-79001904D01*
X70715238Y-79097142D01*
X70667619Y-79144761D01*
X70572380Y-79192380D01*
X70191428Y-79192380D01*
X70191428Y-78192380D01*
X70524761Y-78192380D01*
X70620000Y-78240000D01*
X70667619Y-78287619D01*
X70715238Y-78382857D01*
X70715238Y-78478095D01*
X70667619Y-78573333D01*
X70620000Y-78620952D01*
X70524761Y-78668571D01*
X70191428Y-78668571D01*
X71953333Y-78525714D02*
X71953333Y-79525714D01*
X71953333Y-78573333D02*
X72048571Y-78525714D01*
X72239047Y-78525714D01*
X72334285Y-78573333D01*
X72381904Y-78620952D01*
X72429523Y-78716190D01*
X72429523Y-79001904D01*
X72381904Y-79097142D01*
X72334285Y-79144761D01*
X72239047Y-79192380D01*
X72048571Y-79192380D01*
X71953333Y-79144761D01*
X72762857Y-78525714D02*
X72953333Y-79192380D01*
X73143809Y-78716190D01*
X73334285Y-79192380D01*
X73524761Y-78525714D01*
X73905714Y-79192380D02*
X73905714Y-78525714D01*
X73905714Y-78716190D02*
X73953333Y-78620952D01*
X74000952Y-78573333D01*
X74096190Y-78525714D01*
X74191428Y-78525714D01*
M02*
