G04 #@! TF.GenerationSoftware,KiCad,Pcbnew,(5.1.5-0-10_14)*
G04 #@! TF.CreationDate,2020-06-18T21:24:06+02:00*
G04 #@! TF.ProjectId,basepcb2,62617365-7063-4623-922e-6b696361645f,rev?*
G04 #@! TF.SameCoordinates,Original*
G04 #@! TF.FileFunction,Copper,L2,Bot*
G04 #@! TF.FilePolarity,Positive*
%FSLAX46Y46*%
G04 Gerber Fmt 4.6, Leading zero omitted, Abs format (unit mm)*
G04 Created by KiCad (PCBNEW (5.1.5-0-10_14)) date 2020-06-18 21:24:06*
%MOMM*%
%LPD*%
G04 APERTURE LIST*
%ADD10C,2.200000*%
%ADD11C,3.000000*%
%ADD12R,1.700000X1.700000*%
%ADD13O,1.700000X1.700000*%
%ADD14C,1.700000*%
%ADD15C,4.500880*%
%ADD16R,4.500880X4.500880*%
%ADD17C,1.000000*%
G04 APERTURE END LIST*
D10*
X82850000Y-147450000D03*
X9950000Y-147450000D03*
X82850000Y-128150000D03*
X9950000Y-128150000D03*
X82850000Y-108850000D03*
X9950000Y-108850000D03*
X82850000Y-89550000D03*
X9950000Y-89550000D03*
X82850000Y-68320000D03*
X9950000Y-68320000D03*
X82850000Y-49020000D03*
X9950000Y-49020000D03*
X82850000Y-29720000D03*
X9950000Y-29720000D03*
X82850000Y-10420000D03*
X9950000Y-10420000D03*
D11*
X16870000Y-67310000D03*
X39370000Y-67310000D03*
X39370000Y-106680000D03*
X16870000Y-106680000D03*
X16870000Y-120650000D03*
X39370000Y-120650000D03*
X39370000Y-134620000D03*
X16870000Y-134620000D03*
X16870000Y-147320000D03*
X39370000Y-147320000D03*
X39370000Y-53340000D03*
X16870000Y-53340000D03*
X39370000Y-80010000D03*
X16870000Y-80010000D03*
X16870000Y-92710000D03*
X39370000Y-92710000D03*
D12*
X50800000Y-118110000D03*
D13*
X50800000Y-120650000D03*
D12*
X49530000Y-58420000D03*
D13*
X49530000Y-60960000D03*
X49530000Y-63500000D03*
X49530000Y-66040000D03*
X49530000Y-68580000D03*
X49530000Y-71120000D03*
D14*
X63500000Y-115570000D03*
X63500000Y-118110000D03*
X63500000Y-120650000D03*
X48190000Y-107330000D03*
X48190000Y-103830000D03*
X48190000Y-96830000D03*
X48190000Y-93330000D03*
X71190000Y-93330000D03*
X71190000Y-107330000D03*
D12*
X70530000Y-40230000D03*
D13*
X70530000Y-42770000D03*
X67990000Y-40230000D03*
X67990000Y-42770000D03*
X65450000Y-40230000D03*
X65450000Y-42770000D03*
X62910000Y-40230000D03*
X62910000Y-42770000D03*
X60370000Y-40230000D03*
X60370000Y-42770000D03*
X57830000Y-40230000D03*
X57830000Y-42770000D03*
X55290000Y-40230000D03*
X55290000Y-42770000D03*
X52750000Y-40230000D03*
X52750000Y-42770000D03*
X50210000Y-40230000D03*
X50210000Y-42770000D03*
X47670000Y-40230000D03*
X47670000Y-42770000D03*
X45130000Y-40230000D03*
X45130000Y-42770000D03*
X42590000Y-40230000D03*
X42590000Y-42770000D03*
X40050000Y-40230000D03*
X40050000Y-42770000D03*
X37510000Y-40230000D03*
X37510000Y-42770000D03*
X34970000Y-40230000D03*
X34970000Y-42770000D03*
X32430000Y-40230000D03*
X32430000Y-42770000D03*
X29890000Y-40230000D03*
X29890000Y-42770000D03*
X27350000Y-40230000D03*
X27350000Y-42770000D03*
X24810000Y-40230000D03*
X24810000Y-42770000D03*
X22270000Y-40230000D03*
X22270000Y-42770000D03*
D15*
X55880000Y-143510000D03*
D16*
X55880000Y-137160000D03*
X73660000Y-137160000D03*
D15*
X73660000Y-143510000D03*
D12*
X71120000Y-83820000D03*
D13*
X71120000Y-81280000D03*
D17*
X48190000Y-117350000D02*
X48950000Y-118110000D01*
X48950000Y-118110000D02*
X50800000Y-118110000D01*
X48190000Y-107330000D02*
X48190000Y-117350000D01*
X54610000Y-107955998D02*
X54610000Y-120650000D01*
X46639999Y-99985997D02*
X54610000Y-107955998D01*
X46639999Y-63850001D02*
X46639999Y-99985997D01*
X49530000Y-60960000D02*
X46639999Y-63850001D01*
X54610000Y-120650000D02*
X63500000Y-120650000D01*
X50800000Y-120650000D02*
X54610000Y-120650000D01*
X65450000Y-71710000D02*
X65450000Y-42770000D01*
X63500000Y-118110000D02*
X60960000Y-118110000D01*
X60960000Y-118110000D02*
X58420000Y-115570000D01*
X58420000Y-78740000D02*
X65450000Y-71710000D01*
X58420000Y-115570000D02*
X58420000Y-93980000D01*
X57770000Y-93330000D02*
X48190000Y-93330000D01*
X58420000Y-93980000D02*
X57770000Y-93330000D01*
X58420000Y-93980000D02*
X58420000Y-78740000D01*
X58420000Y-78740000D02*
X52070000Y-78740000D01*
X49530000Y-76200000D02*
X49530000Y-71120000D01*
X52070000Y-78740000D02*
X49530000Y-76200000D01*
X67990000Y-111080000D02*
X63500000Y-115570000D01*
X67990000Y-42770000D02*
X67990000Y-111080000D01*
X71190000Y-83890000D02*
X71120000Y-83820000D01*
X71190000Y-93330000D02*
X71190000Y-83890000D01*
X71190000Y-107330000D02*
X74930000Y-103590000D01*
X74930000Y-83887919D02*
X72322081Y-81280000D01*
X72322081Y-81280000D02*
X71120000Y-81280000D01*
X74930000Y-103590000D02*
X74930000Y-83887919D01*
M02*
