G04 #@! TF.GenerationSoftware,KiCad,Pcbnew,(5.1.5-0-10_14)*
G04 #@! TF.CreationDate,2020-06-18T21:24:06+02:00*
G04 #@! TF.ProjectId,basepcb2,62617365-7063-4623-922e-6b696361645f,rev?*
G04 #@! TF.SameCoordinates,Original*
G04 #@! TF.FileFunction,Copper,L1,Top*
G04 #@! TF.FilePolarity,Positive*
%FSLAX46Y46*%
G04 Gerber Fmt 4.6, Leading zero omitted, Abs format (unit mm)*
G04 Created by KiCad (PCBNEW (5.1.5-0-10_14)) date 2020-06-18 21:24:06*
%MOMM*%
%LPD*%
G04 APERTURE LIST*
%ADD10C,2.200000*%
%ADD11C,3.000000*%
%ADD12R,1.700000X1.700000*%
%ADD13O,1.700000X1.700000*%
%ADD14C,1.700000*%
%ADD15C,4.500880*%
%ADD16R,4.500880X4.500880*%
%ADD17C,2.000000*%
%ADD18C,1.000000*%
G04 APERTURE END LIST*
D10*
X82850000Y-147450000D03*
X9950000Y-147450000D03*
X82850000Y-128150000D03*
X9950000Y-128150000D03*
X82850000Y-108850000D03*
X9950000Y-108850000D03*
X82850000Y-89550000D03*
X9950000Y-89550000D03*
X82850000Y-68320000D03*
X9950000Y-68320000D03*
X82850000Y-49020000D03*
X9950000Y-49020000D03*
X82850000Y-29720000D03*
X9950000Y-29720000D03*
X82850000Y-10420000D03*
X9950000Y-10420000D03*
D11*
X16870000Y-67310000D03*
X39370000Y-67310000D03*
X39370000Y-106680000D03*
X16870000Y-106680000D03*
X16870000Y-120650000D03*
X39370000Y-120650000D03*
X39370000Y-134620000D03*
X16870000Y-134620000D03*
X16870000Y-147320000D03*
X39370000Y-147320000D03*
X39370000Y-53340000D03*
X16870000Y-53340000D03*
X39370000Y-80010000D03*
X16870000Y-80010000D03*
X16870000Y-92710000D03*
X39370000Y-92710000D03*
D12*
X50800000Y-118110000D03*
D13*
X50800000Y-120650000D03*
D12*
X49530000Y-58420000D03*
D13*
X49530000Y-60960000D03*
X49530000Y-63500000D03*
X49530000Y-66040000D03*
X49530000Y-68580000D03*
X49530000Y-71120000D03*
D14*
X63500000Y-115570000D03*
X63500000Y-118110000D03*
X63500000Y-120650000D03*
X48190000Y-107330000D03*
X48190000Y-103830000D03*
X48190000Y-96830000D03*
X48190000Y-93330000D03*
X71190000Y-93330000D03*
X71190000Y-107330000D03*
D12*
X70530000Y-40230000D03*
D13*
X70530000Y-42770000D03*
X67990000Y-40230000D03*
X67990000Y-42770000D03*
X65450000Y-40230000D03*
X65450000Y-42770000D03*
X62910000Y-40230000D03*
X62910000Y-42770000D03*
X60370000Y-40230000D03*
X60370000Y-42770000D03*
X57830000Y-40230000D03*
X57830000Y-42770000D03*
X55290000Y-40230000D03*
X55290000Y-42770000D03*
X52750000Y-40230000D03*
X52750000Y-42770000D03*
X50210000Y-40230000D03*
X50210000Y-42770000D03*
X47670000Y-40230000D03*
X47670000Y-42770000D03*
X45130000Y-40230000D03*
X45130000Y-42770000D03*
X42590000Y-40230000D03*
X42590000Y-42770000D03*
X40050000Y-40230000D03*
X40050000Y-42770000D03*
X37510000Y-40230000D03*
X37510000Y-42770000D03*
X34970000Y-40230000D03*
X34970000Y-42770000D03*
X32430000Y-40230000D03*
X32430000Y-42770000D03*
X29890000Y-40230000D03*
X29890000Y-42770000D03*
X27350000Y-40230000D03*
X27350000Y-42770000D03*
X24810000Y-40230000D03*
X24810000Y-42770000D03*
X22270000Y-40230000D03*
X22270000Y-42770000D03*
D15*
X55880000Y-143510000D03*
D16*
X55880000Y-137160000D03*
X73660000Y-137160000D03*
D15*
X73660000Y-143510000D03*
D12*
X71120000Y-83820000D03*
D13*
X71120000Y-81280000D03*
D17*
X39370000Y-147320000D02*
X39370000Y-134620000D01*
X39370000Y-134620000D02*
X39370000Y-120650000D01*
X39370000Y-120650000D02*
X39370000Y-106680000D01*
X39370000Y-106680000D02*
X39370000Y-92710000D01*
X39370000Y-92710000D02*
X39370000Y-80010000D01*
X39370000Y-80010000D02*
X39370000Y-67310000D01*
X39370000Y-67310000D02*
X39370000Y-53340000D01*
X41910000Y-137160000D02*
X39370000Y-134620000D01*
X55880000Y-137160000D02*
X41910000Y-137160000D01*
D18*
X42220000Y-103830000D02*
X48190000Y-103830000D01*
X39370000Y-106680000D02*
X42220000Y-103830000D01*
D17*
X9950000Y-99760000D02*
X9950000Y-89550000D01*
X16870000Y-106680000D02*
X9950000Y-99760000D01*
X16870000Y-115770000D02*
X9950000Y-108850000D01*
X16870000Y-120650000D02*
X16870000Y-115770000D01*
X16420000Y-134620000D02*
X9950000Y-128150000D01*
X16870000Y-134620000D02*
X16420000Y-134620000D01*
X10080000Y-147320000D02*
X9950000Y-147450000D01*
X16870000Y-147320000D02*
X10080000Y-147320000D01*
X12700000Y-41910000D02*
X12700000Y-13170000D01*
X16870000Y-46080000D02*
X12700000Y-41910000D01*
X12700000Y-13170000D02*
X9950000Y-10420000D01*
X16870000Y-53340000D02*
X16870000Y-46080000D01*
X16870000Y-67310000D02*
X16870000Y-61320000D01*
X16870000Y-61320000D02*
X13970000Y-58420000D01*
X13970000Y-58420000D02*
X13970000Y-48260000D01*
X9950000Y-44240000D02*
X9950000Y-29720000D01*
X13970000Y-48260000D02*
X9950000Y-44240000D01*
X14169999Y-77309999D02*
X14169999Y-68779999D01*
X16870000Y-80010000D02*
X14169999Y-77309999D01*
X9950000Y-64560000D02*
X9950000Y-49020000D01*
X14169999Y-68779999D02*
X9950000Y-64560000D01*
X9950000Y-85790000D02*
X9950000Y-68320000D01*
X16870000Y-92710000D02*
X9950000Y-85790000D01*
X82850000Y-108850000D02*
X82850000Y-128150000D01*
X82850000Y-108850000D02*
X82850000Y-89550000D01*
X82850000Y-88135787D02*
X82850000Y-68320000D01*
X82850000Y-89550000D02*
X82850000Y-88135787D01*
X82850000Y-68320000D02*
X82850000Y-49020000D01*
X82850000Y-49020000D02*
X82850000Y-29720000D01*
X82850000Y-29720000D02*
X82850000Y-10420000D01*
X82850000Y-147450000D02*
X82850000Y-128150000D01*
X73840000Y-137160000D02*
X82850000Y-128150000D01*
X73660000Y-137160000D02*
X73840000Y-137160000D01*
D18*
X75570000Y-96830000D02*
X82850000Y-89550000D01*
X48190000Y-96830000D02*
X75570000Y-96830000D01*
X49530000Y-66040000D02*
X59690000Y-66040000D01*
X62910000Y-62820000D02*
X62910000Y-42770000D01*
X59690000Y-66040000D02*
X62910000Y-62820000D01*
X49530000Y-68580000D02*
X45720000Y-68580000D01*
X45720000Y-68580000D02*
X44450000Y-67310000D01*
X44450000Y-67310000D02*
X44450000Y-55880000D01*
X44450000Y-55880000D02*
X50800000Y-49530000D01*
X50800000Y-49530000D02*
X58420000Y-49530000D01*
X60370000Y-47580000D02*
X60370000Y-42770000D01*
X58420000Y-49530000D02*
X60370000Y-47580000D01*
M02*
