G04 #@! TF.GenerationSoftware,KiCad,Pcbnew,(5.1.5-0-10_14)*
G04 #@! TF.CreationDate,2020-06-18T21:24:07+02:00*
G04 #@! TF.ProjectId,basepcb2,62617365-7063-4623-922e-6b696361645f,rev?*
G04 #@! TF.SameCoordinates,Original*
G04 #@! TF.FileFunction,Soldermask,Bot*
G04 #@! TF.FilePolarity,Negative*
%FSLAX46Y46*%
G04 Gerber Fmt 4.6, Leading zero omitted, Abs format (unit mm)*
G04 Created by KiCad (PCBNEW (5.1.5-0-10_14)) date 2020-06-18 21:24:07*
%MOMM*%
%LPD*%
G04 APERTURE LIST*
%ADD10C,0.100000*%
G04 APERTURE END LIST*
D10*
G36*
X89625331Y-150268211D02*
G01*
X89953092Y-150403974D01*
X90248070Y-150601072D01*
X90498928Y-150851930D01*
X90696026Y-151146908D01*
X90831789Y-151474669D01*
X90901000Y-151822616D01*
X90901000Y-152177384D01*
X90831789Y-152525331D01*
X90696026Y-152853092D01*
X90498928Y-153148070D01*
X90248070Y-153398928D01*
X89953092Y-153596026D01*
X89625331Y-153731789D01*
X89277384Y-153801000D01*
X88922616Y-153801000D01*
X88574669Y-153731789D01*
X88246908Y-153596026D01*
X87951930Y-153398928D01*
X87701072Y-153148070D01*
X87503974Y-152853092D01*
X87368211Y-152525331D01*
X87299000Y-152177384D01*
X87299000Y-151822616D01*
X87368211Y-151474669D01*
X87503974Y-151146908D01*
X87701072Y-150851930D01*
X87951930Y-150601072D01*
X88246908Y-150403974D01*
X88574669Y-150268211D01*
X88922616Y-150199000D01*
X89277384Y-150199000D01*
X89625331Y-150268211D01*
G37*
G36*
X4225331Y-150268211D02*
G01*
X4553092Y-150403974D01*
X4848070Y-150601072D01*
X5098928Y-150851930D01*
X5296026Y-151146908D01*
X5431789Y-151474669D01*
X5501000Y-151822616D01*
X5501000Y-152177384D01*
X5431789Y-152525331D01*
X5296026Y-152853092D01*
X5098928Y-153148070D01*
X4848070Y-153398928D01*
X4553092Y-153596026D01*
X4225331Y-153731789D01*
X3877384Y-153801000D01*
X3522616Y-153801000D01*
X3174669Y-153731789D01*
X2846908Y-153596026D01*
X2551930Y-153398928D01*
X2301072Y-153148070D01*
X2103974Y-152853092D01*
X1968211Y-152525331D01*
X1899000Y-152177384D01*
X1899000Y-151822616D01*
X1968211Y-151474669D01*
X2103974Y-151146908D01*
X2301072Y-150851930D01*
X2551930Y-150601072D01*
X2846908Y-150403974D01*
X3174669Y-150268211D01*
X3522616Y-150199000D01*
X3877384Y-150199000D01*
X4225331Y-150268211D01*
G37*
G36*
X39672585Y-145798802D02*
G01*
X39822410Y-145828604D01*
X40104674Y-145945521D01*
X40358705Y-146115259D01*
X40574741Y-146331295D01*
X40744479Y-146585326D01*
X40861396Y-146867590D01*
X40921000Y-147167240D01*
X40921000Y-147472760D01*
X40861396Y-147772410D01*
X40744479Y-148054674D01*
X40574741Y-148308705D01*
X40358705Y-148524741D01*
X40104674Y-148694479D01*
X39822410Y-148811396D01*
X39672585Y-148841198D01*
X39522761Y-148871000D01*
X39217239Y-148871000D01*
X39067415Y-148841198D01*
X38917590Y-148811396D01*
X38635326Y-148694479D01*
X38381295Y-148524741D01*
X38165259Y-148308705D01*
X37995521Y-148054674D01*
X37878604Y-147772410D01*
X37819000Y-147472760D01*
X37819000Y-147167240D01*
X37878604Y-146867590D01*
X37995521Y-146585326D01*
X38165259Y-146331295D01*
X38381295Y-146115259D01*
X38635326Y-145945521D01*
X38917590Y-145828604D01*
X39067415Y-145798802D01*
X39217239Y-145769000D01*
X39522761Y-145769000D01*
X39672585Y-145798802D01*
G37*
G36*
X17172585Y-145798802D02*
G01*
X17322410Y-145828604D01*
X17604674Y-145945521D01*
X17858705Y-146115259D01*
X18074741Y-146331295D01*
X18244479Y-146585326D01*
X18361396Y-146867590D01*
X18421000Y-147167240D01*
X18421000Y-147472760D01*
X18361396Y-147772410D01*
X18244479Y-148054674D01*
X18074741Y-148308705D01*
X17858705Y-148524741D01*
X17604674Y-148694479D01*
X17322410Y-148811396D01*
X17172585Y-148841198D01*
X17022761Y-148871000D01*
X16717239Y-148871000D01*
X16567415Y-148841198D01*
X16417590Y-148811396D01*
X16135326Y-148694479D01*
X15881295Y-148524741D01*
X15665259Y-148308705D01*
X15495521Y-148054674D01*
X15378604Y-147772410D01*
X15319000Y-147472760D01*
X15319000Y-147167240D01*
X15378604Y-146867590D01*
X15495521Y-146585326D01*
X15665259Y-146331295D01*
X15881295Y-146115259D01*
X16135326Y-145945521D01*
X16417590Y-145828604D01*
X16567415Y-145798802D01*
X16717239Y-145769000D01*
X17022761Y-145769000D01*
X17172585Y-145798802D01*
G37*
G36*
X28438433Y-145954893D02*
G01*
X28528657Y-145972839D01*
X28634267Y-146016585D01*
X28783621Y-146078449D01*
X28859763Y-146129325D01*
X29013086Y-146231772D01*
X29208228Y-146426914D01*
X29294453Y-146555960D01*
X29361551Y-146656379D01*
X29386363Y-146716281D01*
X29464450Y-146904797D01*
X29467161Y-146911344D01*
X29521000Y-147182012D01*
X29521000Y-147457988D01*
X29518061Y-147472761D01*
X29467161Y-147728657D01*
X29443519Y-147785733D01*
X29361551Y-147983621D01*
X29361550Y-147983622D01*
X29208228Y-148213086D01*
X29013086Y-148408228D01*
X28920631Y-148470004D01*
X28783621Y-148561551D01*
X28634267Y-148623415D01*
X28528657Y-148667161D01*
X28438433Y-148685107D01*
X28257988Y-148721000D01*
X27982012Y-148721000D01*
X27801567Y-148685107D01*
X27711343Y-148667161D01*
X27605733Y-148623415D01*
X27456379Y-148561551D01*
X27319369Y-148470004D01*
X27226914Y-148408228D01*
X27031772Y-148213086D01*
X26878450Y-147983622D01*
X26878449Y-147983621D01*
X26796481Y-147785733D01*
X26772839Y-147728657D01*
X26721939Y-147472761D01*
X26719000Y-147457988D01*
X26719000Y-147182012D01*
X26772839Y-146911344D01*
X26775551Y-146904797D01*
X26853637Y-146716281D01*
X26878449Y-146656379D01*
X26945547Y-146555960D01*
X27031772Y-146426914D01*
X27226914Y-146231772D01*
X27380237Y-146129325D01*
X27456379Y-146078449D01*
X27605733Y-146016585D01*
X27711343Y-145972839D01*
X27801567Y-145954893D01*
X27982012Y-145919000D01*
X28257988Y-145919000D01*
X28438433Y-145954893D01*
G37*
G36*
X83074549Y-146321116D02*
G01*
X83185734Y-146343232D01*
X83333850Y-146404584D01*
X83387763Y-146426915D01*
X83395203Y-146429997D01*
X83583720Y-146555960D01*
X83744040Y-146716280D01*
X83870003Y-146904797D01*
X83870004Y-146904799D01*
X83956768Y-147114267D01*
X84001000Y-147336635D01*
X84001000Y-147563365D01*
X83956768Y-147785733D01*
X83874801Y-147983621D01*
X83870003Y-147995203D01*
X83744040Y-148183720D01*
X83583720Y-148344040D01*
X83395203Y-148470003D01*
X83185734Y-148556768D01*
X83074549Y-148578884D01*
X82963365Y-148601000D01*
X82736635Y-148601000D01*
X82625451Y-148578884D01*
X82514266Y-148556768D01*
X82304797Y-148470003D01*
X82116280Y-148344040D01*
X81955960Y-148183720D01*
X81829997Y-147995203D01*
X81825200Y-147983621D01*
X81743232Y-147785733D01*
X81699000Y-147563365D01*
X81699000Y-147336635D01*
X81743232Y-147114267D01*
X81829996Y-146904799D01*
X81829997Y-146904797D01*
X81955960Y-146716280D01*
X82116280Y-146555960D01*
X82304797Y-146429997D01*
X82312238Y-146426915D01*
X82366150Y-146404584D01*
X82514266Y-146343232D01*
X82625451Y-146321116D01*
X82736635Y-146299000D01*
X82963365Y-146299000D01*
X83074549Y-146321116D01*
G37*
G36*
X10174549Y-146321116D02*
G01*
X10285734Y-146343232D01*
X10433850Y-146404584D01*
X10487763Y-146426915D01*
X10495203Y-146429997D01*
X10683720Y-146555960D01*
X10844040Y-146716280D01*
X10970003Y-146904797D01*
X10970004Y-146904799D01*
X11056768Y-147114267D01*
X11101000Y-147336635D01*
X11101000Y-147563365D01*
X11056768Y-147785733D01*
X10974801Y-147983621D01*
X10970003Y-147995203D01*
X10844040Y-148183720D01*
X10683720Y-148344040D01*
X10495203Y-148470003D01*
X10285734Y-148556768D01*
X10174549Y-148578884D01*
X10063365Y-148601000D01*
X9836635Y-148601000D01*
X9725451Y-148578884D01*
X9614266Y-148556768D01*
X9404797Y-148470003D01*
X9216280Y-148344040D01*
X9055960Y-148183720D01*
X8929997Y-147995203D01*
X8925200Y-147983621D01*
X8843232Y-147785733D01*
X8799000Y-147563365D01*
X8799000Y-147336635D01*
X8843232Y-147114267D01*
X8929996Y-146904799D01*
X8929997Y-146904797D01*
X9055960Y-146716280D01*
X9216280Y-146555960D01*
X9404797Y-146429997D01*
X9412238Y-146426915D01*
X9466150Y-146404584D01*
X9614266Y-146343232D01*
X9725451Y-146321116D01*
X9836635Y-146299000D01*
X10063365Y-146299000D01*
X10174549Y-146321116D01*
G37*
G36*
X56551304Y-141297002D02*
G01*
X56970139Y-141470489D01*
X56970141Y-141470490D01*
X57159891Y-141597277D01*
X57347082Y-141722354D01*
X57667646Y-142042918D01*
X57919511Y-142419861D01*
X58092998Y-142838696D01*
X58181440Y-143283327D01*
X58181440Y-143736673D01*
X58092998Y-144181304D01*
X57919511Y-144600139D01*
X57919510Y-144600141D01*
X57667645Y-144977083D01*
X57347083Y-145297645D01*
X56970141Y-145549510D01*
X56970140Y-145549511D01*
X56970139Y-145549511D01*
X56551304Y-145722998D01*
X56106673Y-145811440D01*
X55653327Y-145811440D01*
X55208696Y-145722998D01*
X54789861Y-145549511D01*
X54789860Y-145549511D01*
X54789859Y-145549510D01*
X54412917Y-145297645D01*
X54092355Y-144977083D01*
X53840490Y-144600141D01*
X53840489Y-144600139D01*
X53667002Y-144181304D01*
X53578560Y-143736673D01*
X53578560Y-143283327D01*
X53667002Y-142838696D01*
X53840489Y-142419861D01*
X54092354Y-142042918D01*
X54412918Y-141722354D01*
X54600109Y-141597277D01*
X54789859Y-141470490D01*
X54789861Y-141470489D01*
X55208696Y-141297002D01*
X55653327Y-141208560D01*
X56106673Y-141208560D01*
X56551304Y-141297002D01*
G37*
G36*
X74331304Y-141297002D02*
G01*
X74750139Y-141470489D01*
X74750141Y-141470490D01*
X74939891Y-141597277D01*
X75127082Y-141722354D01*
X75447646Y-142042918D01*
X75699511Y-142419861D01*
X75872998Y-142838696D01*
X75961440Y-143283327D01*
X75961440Y-143736673D01*
X75872998Y-144181304D01*
X75699511Y-144600139D01*
X75699510Y-144600141D01*
X75447645Y-144977083D01*
X75127083Y-145297645D01*
X74750141Y-145549510D01*
X74750140Y-145549511D01*
X74750139Y-145549511D01*
X74331304Y-145722998D01*
X73886673Y-145811440D01*
X73433327Y-145811440D01*
X72988696Y-145722998D01*
X72569861Y-145549511D01*
X72569860Y-145549511D01*
X72569859Y-145549510D01*
X72192917Y-145297645D01*
X71872355Y-144977083D01*
X71620490Y-144600141D01*
X71620489Y-144600139D01*
X71447002Y-144181304D01*
X71358560Y-143736673D01*
X71358560Y-143283327D01*
X71447002Y-142838696D01*
X71620489Y-142419861D01*
X71872354Y-142042918D01*
X72192918Y-141722354D01*
X72380109Y-141597277D01*
X72569859Y-141470490D01*
X72569861Y-141470489D01*
X72988696Y-141297002D01*
X73433327Y-141208560D01*
X73886673Y-141208560D01*
X74331304Y-141297002D01*
G37*
G36*
X58181440Y-139461440D02*
G01*
X53578560Y-139461440D01*
X53578560Y-134858560D01*
X58181440Y-134858560D01*
X58181440Y-139461440D01*
G37*
G36*
X75961440Y-139461440D02*
G01*
X71358560Y-139461440D01*
X71358560Y-134858560D01*
X75961440Y-134858560D01*
X75961440Y-139461440D01*
G37*
G36*
X39672585Y-133098802D02*
G01*
X39822410Y-133128604D01*
X40104674Y-133245521D01*
X40358705Y-133415259D01*
X40574741Y-133631295D01*
X40744479Y-133885326D01*
X40861396Y-134167590D01*
X40921000Y-134467240D01*
X40921000Y-134772760D01*
X40861396Y-135072410D01*
X40744479Y-135354674D01*
X40574741Y-135608705D01*
X40358705Y-135824741D01*
X40104674Y-135994479D01*
X39822410Y-136111396D01*
X39672585Y-136141198D01*
X39522761Y-136171000D01*
X39217239Y-136171000D01*
X39067415Y-136141198D01*
X38917590Y-136111396D01*
X38635326Y-135994479D01*
X38381295Y-135824741D01*
X38165259Y-135608705D01*
X37995521Y-135354674D01*
X37878604Y-135072410D01*
X37819000Y-134772760D01*
X37819000Y-134467240D01*
X37878604Y-134167590D01*
X37995521Y-133885326D01*
X38165259Y-133631295D01*
X38381295Y-133415259D01*
X38635326Y-133245521D01*
X38917590Y-133128604D01*
X39067415Y-133098802D01*
X39217239Y-133069000D01*
X39522761Y-133069000D01*
X39672585Y-133098802D01*
G37*
G36*
X17172585Y-133098802D02*
G01*
X17322410Y-133128604D01*
X17604674Y-133245521D01*
X17858705Y-133415259D01*
X18074741Y-133631295D01*
X18244479Y-133885326D01*
X18361396Y-134167590D01*
X18421000Y-134467240D01*
X18421000Y-134772760D01*
X18361396Y-135072410D01*
X18244479Y-135354674D01*
X18074741Y-135608705D01*
X17858705Y-135824741D01*
X17604674Y-135994479D01*
X17322410Y-136111396D01*
X17172585Y-136141198D01*
X17022761Y-136171000D01*
X16717239Y-136171000D01*
X16567415Y-136141198D01*
X16417590Y-136111396D01*
X16135326Y-135994479D01*
X15881295Y-135824741D01*
X15665259Y-135608705D01*
X15495521Y-135354674D01*
X15378604Y-135072410D01*
X15319000Y-134772760D01*
X15319000Y-134467240D01*
X15378604Y-134167590D01*
X15495521Y-133885326D01*
X15665259Y-133631295D01*
X15881295Y-133415259D01*
X16135326Y-133245521D01*
X16417590Y-133128604D01*
X16567415Y-133098802D01*
X16717239Y-133069000D01*
X17022761Y-133069000D01*
X17172585Y-133098802D01*
G37*
G36*
X28438433Y-133254893D02*
G01*
X28528657Y-133272839D01*
X28634267Y-133316585D01*
X28783621Y-133378449D01*
X28859763Y-133429325D01*
X29013086Y-133531772D01*
X29208228Y-133726914D01*
X29310675Y-133880237D01*
X29361551Y-133956379D01*
X29423415Y-134105733D01*
X29449038Y-134167590D01*
X29467161Y-134211344D01*
X29521000Y-134482012D01*
X29521000Y-134757988D01*
X29518061Y-134772761D01*
X29467161Y-135028657D01*
X29423415Y-135134267D01*
X29361551Y-135283621D01*
X29361550Y-135283622D01*
X29208228Y-135513086D01*
X29013086Y-135708228D01*
X28859763Y-135810675D01*
X28783621Y-135861551D01*
X28634267Y-135923415D01*
X28528657Y-135967161D01*
X28438433Y-135985107D01*
X28257988Y-136021000D01*
X27982012Y-136021000D01*
X27801567Y-135985107D01*
X27711343Y-135967161D01*
X27605733Y-135923415D01*
X27456379Y-135861551D01*
X27380237Y-135810675D01*
X27226914Y-135708228D01*
X27031772Y-135513086D01*
X26878450Y-135283622D01*
X26878449Y-135283621D01*
X26816585Y-135134267D01*
X26772839Y-135028657D01*
X26721939Y-134772761D01*
X26719000Y-134757988D01*
X26719000Y-134482012D01*
X26772839Y-134211344D01*
X26790963Y-134167590D01*
X26816585Y-134105733D01*
X26878449Y-133956379D01*
X26929325Y-133880237D01*
X27031772Y-133726914D01*
X27226914Y-133531772D01*
X27380237Y-133429325D01*
X27456379Y-133378449D01*
X27605733Y-133316585D01*
X27711343Y-133272839D01*
X27801567Y-133254893D01*
X27982012Y-133219000D01*
X28257988Y-133219000D01*
X28438433Y-133254893D01*
G37*
G36*
X10174549Y-127021116D02*
G01*
X10285734Y-127043232D01*
X10495203Y-127129997D01*
X10683720Y-127255960D01*
X10844040Y-127416280D01*
X10970003Y-127604797D01*
X11056768Y-127814266D01*
X11101000Y-128036636D01*
X11101000Y-128263364D01*
X11056768Y-128485734D01*
X10970003Y-128695203D01*
X10844040Y-128883720D01*
X10683720Y-129044040D01*
X10495203Y-129170003D01*
X10285734Y-129256768D01*
X10174549Y-129278884D01*
X10063365Y-129301000D01*
X9836635Y-129301000D01*
X9725451Y-129278884D01*
X9614266Y-129256768D01*
X9404797Y-129170003D01*
X9216280Y-129044040D01*
X9055960Y-128883720D01*
X8929997Y-128695203D01*
X8843232Y-128485734D01*
X8799000Y-128263364D01*
X8799000Y-128036636D01*
X8843232Y-127814266D01*
X8929997Y-127604797D01*
X9055960Y-127416280D01*
X9216280Y-127255960D01*
X9404797Y-127129997D01*
X9614266Y-127043232D01*
X9725451Y-127021116D01*
X9836635Y-126999000D01*
X10063365Y-126999000D01*
X10174549Y-127021116D01*
G37*
G36*
X83074549Y-127021116D02*
G01*
X83185734Y-127043232D01*
X83395203Y-127129997D01*
X83583720Y-127255960D01*
X83744040Y-127416280D01*
X83870003Y-127604797D01*
X83956768Y-127814266D01*
X84001000Y-128036636D01*
X84001000Y-128263364D01*
X83956768Y-128485734D01*
X83870003Y-128695203D01*
X83744040Y-128883720D01*
X83583720Y-129044040D01*
X83395203Y-129170003D01*
X83185734Y-129256768D01*
X83074549Y-129278884D01*
X82963365Y-129301000D01*
X82736635Y-129301000D01*
X82625451Y-129278884D01*
X82514266Y-129256768D01*
X82304797Y-129170003D01*
X82116280Y-129044040D01*
X81955960Y-128883720D01*
X81829997Y-128695203D01*
X81743232Y-128485734D01*
X81699000Y-128263364D01*
X81699000Y-128036636D01*
X81743232Y-127814266D01*
X81829997Y-127604797D01*
X81955960Y-127416280D01*
X82116280Y-127255960D01*
X82304797Y-127129997D01*
X82514266Y-127043232D01*
X82625451Y-127021116D01*
X82736635Y-126999000D01*
X82963365Y-126999000D01*
X83074549Y-127021116D01*
G37*
G36*
X17172585Y-119128802D02*
G01*
X17322410Y-119158604D01*
X17604674Y-119275521D01*
X17858705Y-119445259D01*
X18074741Y-119661295D01*
X18244479Y-119915326D01*
X18361396Y-120197590D01*
X18421000Y-120497240D01*
X18421000Y-120802760D01*
X18361396Y-121102410D01*
X18244479Y-121384674D01*
X18074741Y-121638705D01*
X17858705Y-121854741D01*
X17604674Y-122024479D01*
X17322410Y-122141396D01*
X17172585Y-122171198D01*
X17022761Y-122201000D01*
X16717239Y-122201000D01*
X16567415Y-122171198D01*
X16417590Y-122141396D01*
X16135326Y-122024479D01*
X15881295Y-121854741D01*
X15665259Y-121638705D01*
X15495521Y-121384674D01*
X15378604Y-121102410D01*
X15319000Y-120802760D01*
X15319000Y-120497240D01*
X15378604Y-120197590D01*
X15495521Y-119915326D01*
X15665259Y-119661295D01*
X15881295Y-119445259D01*
X16135326Y-119275521D01*
X16417590Y-119158604D01*
X16567415Y-119128802D01*
X16717239Y-119099000D01*
X17022761Y-119099000D01*
X17172585Y-119128802D01*
G37*
G36*
X39672585Y-119128802D02*
G01*
X39822410Y-119158604D01*
X40104674Y-119275521D01*
X40358705Y-119445259D01*
X40574741Y-119661295D01*
X40744479Y-119915326D01*
X40861396Y-120197590D01*
X40921000Y-120497240D01*
X40921000Y-120802760D01*
X40861396Y-121102410D01*
X40744479Y-121384674D01*
X40574741Y-121638705D01*
X40358705Y-121854741D01*
X40104674Y-122024479D01*
X39822410Y-122141396D01*
X39672585Y-122171198D01*
X39522761Y-122201000D01*
X39217239Y-122201000D01*
X39067415Y-122171198D01*
X38917590Y-122141396D01*
X38635326Y-122024479D01*
X38381295Y-121854741D01*
X38165259Y-121638705D01*
X37995521Y-121384674D01*
X37878604Y-121102410D01*
X37819000Y-120802760D01*
X37819000Y-120497240D01*
X37878604Y-120197590D01*
X37995521Y-119915326D01*
X38165259Y-119661295D01*
X38381295Y-119445259D01*
X38635326Y-119275521D01*
X38917590Y-119158604D01*
X39067415Y-119128802D01*
X39217239Y-119099000D01*
X39522761Y-119099000D01*
X39672585Y-119128802D01*
G37*
G36*
X28438433Y-119284893D02*
G01*
X28528657Y-119302839D01*
X28634267Y-119346585D01*
X28783621Y-119408449D01*
X28859763Y-119459325D01*
X29013086Y-119561772D01*
X29208228Y-119756914D01*
X29271457Y-119851544D01*
X29361551Y-119986379D01*
X29398527Y-120075647D01*
X29449038Y-120197590D01*
X29467161Y-120241344D01*
X29521000Y-120512012D01*
X29521000Y-120787988D01*
X29518061Y-120802761D01*
X29467161Y-121058657D01*
X29423415Y-121164267D01*
X29361551Y-121313621D01*
X29314076Y-121384672D01*
X29208228Y-121543086D01*
X29013086Y-121738228D01*
X28859763Y-121840675D01*
X28783621Y-121891551D01*
X28634267Y-121953415D01*
X28528657Y-121997161D01*
X28438433Y-122015107D01*
X28257988Y-122051000D01*
X27982012Y-122051000D01*
X27801567Y-122015107D01*
X27711343Y-121997161D01*
X27605733Y-121953415D01*
X27456379Y-121891551D01*
X27380237Y-121840675D01*
X27226914Y-121738228D01*
X27031772Y-121543086D01*
X26925924Y-121384672D01*
X26878449Y-121313621D01*
X26816585Y-121164267D01*
X26772839Y-121058657D01*
X26721939Y-120802761D01*
X26719000Y-120787988D01*
X26719000Y-120512012D01*
X26772839Y-120241344D01*
X26790963Y-120197590D01*
X26841473Y-120075647D01*
X26878449Y-119986379D01*
X26968543Y-119851544D01*
X27031772Y-119756914D01*
X27226914Y-119561772D01*
X27380237Y-119459325D01*
X27456379Y-119408449D01*
X27605733Y-119346585D01*
X27711343Y-119302839D01*
X27801567Y-119284893D01*
X27982012Y-119249000D01*
X28257988Y-119249000D01*
X28438433Y-119284893D01*
G37*
G36*
X50913512Y-119753927D02*
G01*
X51062812Y-119783624D01*
X51226784Y-119851544D01*
X51374354Y-119950147D01*
X51499853Y-120075646D01*
X51598456Y-120223216D01*
X51666376Y-120387188D01*
X51701000Y-120561259D01*
X51701000Y-120738741D01*
X51666376Y-120912812D01*
X51598456Y-121076784D01*
X51499853Y-121224354D01*
X51374354Y-121349853D01*
X51226784Y-121448456D01*
X51062812Y-121516376D01*
X50928533Y-121543085D01*
X50888742Y-121551000D01*
X50711258Y-121551000D01*
X50671467Y-121543085D01*
X50537188Y-121516376D01*
X50373216Y-121448456D01*
X50225646Y-121349853D01*
X50100147Y-121224354D01*
X50001544Y-121076784D01*
X49933624Y-120912812D01*
X49899000Y-120738741D01*
X49899000Y-120561259D01*
X49933624Y-120387188D01*
X50001544Y-120223216D01*
X50100147Y-120075646D01*
X50225646Y-119950147D01*
X50373216Y-119851544D01*
X50537188Y-119783624D01*
X50686488Y-119753927D01*
X50711258Y-119749000D01*
X50888742Y-119749000D01*
X50913512Y-119753927D01*
G37*
G36*
X63613512Y-119753927D02*
G01*
X63762812Y-119783624D01*
X63926784Y-119851544D01*
X64074354Y-119950147D01*
X64199853Y-120075646D01*
X64298456Y-120223216D01*
X64366376Y-120387188D01*
X64401000Y-120561259D01*
X64401000Y-120738741D01*
X64366376Y-120912812D01*
X64298456Y-121076784D01*
X64199853Y-121224354D01*
X64074354Y-121349853D01*
X63926784Y-121448456D01*
X63762812Y-121516376D01*
X63628533Y-121543085D01*
X63588742Y-121551000D01*
X63411258Y-121551000D01*
X63371467Y-121543085D01*
X63237188Y-121516376D01*
X63073216Y-121448456D01*
X62925646Y-121349853D01*
X62800147Y-121224354D01*
X62701544Y-121076784D01*
X62633624Y-120912812D01*
X62599000Y-120738741D01*
X62599000Y-120561259D01*
X62633624Y-120387188D01*
X62701544Y-120223216D01*
X62800147Y-120075646D01*
X62925646Y-119950147D01*
X63073216Y-119851544D01*
X63237188Y-119783624D01*
X63386488Y-119753927D01*
X63411258Y-119749000D01*
X63588742Y-119749000D01*
X63613512Y-119753927D01*
G37*
G36*
X63613512Y-117213927D02*
G01*
X63762812Y-117243624D01*
X63926784Y-117311544D01*
X64074354Y-117410147D01*
X64199853Y-117535646D01*
X64298456Y-117683216D01*
X64366376Y-117847188D01*
X64401000Y-118021259D01*
X64401000Y-118198741D01*
X64366376Y-118372812D01*
X64298456Y-118536784D01*
X64199853Y-118684354D01*
X64074354Y-118809853D01*
X63926784Y-118908456D01*
X63762812Y-118976376D01*
X63613512Y-119006073D01*
X63588742Y-119011000D01*
X63411258Y-119011000D01*
X63386488Y-119006073D01*
X63237188Y-118976376D01*
X63073216Y-118908456D01*
X62925646Y-118809853D01*
X62800147Y-118684354D01*
X62701544Y-118536784D01*
X62633624Y-118372812D01*
X62599000Y-118198741D01*
X62599000Y-118021259D01*
X62633624Y-117847188D01*
X62701544Y-117683216D01*
X62800147Y-117535646D01*
X62925646Y-117410147D01*
X63073216Y-117311544D01*
X63237188Y-117243624D01*
X63386488Y-117213927D01*
X63411258Y-117209000D01*
X63588742Y-117209000D01*
X63613512Y-117213927D01*
G37*
G36*
X51701000Y-119011000D02*
G01*
X49899000Y-119011000D01*
X49899000Y-117209000D01*
X51701000Y-117209000D01*
X51701000Y-119011000D01*
G37*
G36*
X63613512Y-114673927D02*
G01*
X63762812Y-114703624D01*
X63926784Y-114771544D01*
X64074354Y-114870147D01*
X64199853Y-114995646D01*
X64298456Y-115143216D01*
X64366376Y-115307188D01*
X64401000Y-115481259D01*
X64401000Y-115658741D01*
X64366376Y-115832812D01*
X64298456Y-115996784D01*
X64199853Y-116144354D01*
X64074354Y-116269853D01*
X63926784Y-116368456D01*
X63762812Y-116436376D01*
X63613512Y-116466073D01*
X63588742Y-116471000D01*
X63411258Y-116471000D01*
X63386488Y-116466073D01*
X63237188Y-116436376D01*
X63073216Y-116368456D01*
X62925646Y-116269853D01*
X62800147Y-116144354D01*
X62701544Y-115996784D01*
X62633624Y-115832812D01*
X62599000Y-115658741D01*
X62599000Y-115481259D01*
X62633624Y-115307188D01*
X62701544Y-115143216D01*
X62800147Y-114995646D01*
X62925646Y-114870147D01*
X63073216Y-114771544D01*
X63237188Y-114703624D01*
X63386488Y-114673927D01*
X63411258Y-114669000D01*
X63588742Y-114669000D01*
X63613512Y-114673927D01*
G37*
G36*
X89625331Y-110268211D02*
G01*
X89953092Y-110403974D01*
X90248070Y-110601072D01*
X90498928Y-110851930D01*
X90696026Y-111146908D01*
X90831789Y-111474669D01*
X90901000Y-111822616D01*
X90901000Y-112177384D01*
X90831789Y-112525331D01*
X90696026Y-112853092D01*
X90498928Y-113148070D01*
X90248070Y-113398928D01*
X89953092Y-113596026D01*
X89625331Y-113731789D01*
X89277384Y-113801000D01*
X88922616Y-113801000D01*
X88574669Y-113731789D01*
X88246908Y-113596026D01*
X87951930Y-113398928D01*
X87701072Y-113148070D01*
X87503974Y-112853092D01*
X87368211Y-112525331D01*
X87299000Y-112177384D01*
X87299000Y-111822616D01*
X87368211Y-111474669D01*
X87503974Y-111146908D01*
X87701072Y-110851930D01*
X87951930Y-110601072D01*
X88246908Y-110403974D01*
X88574669Y-110268211D01*
X88922616Y-110199000D01*
X89277384Y-110199000D01*
X89625331Y-110268211D01*
G37*
G36*
X4225331Y-110268211D02*
G01*
X4553092Y-110403974D01*
X4848070Y-110601072D01*
X5098928Y-110851930D01*
X5296026Y-111146908D01*
X5431789Y-111474669D01*
X5501000Y-111822616D01*
X5501000Y-112177384D01*
X5431789Y-112525331D01*
X5296026Y-112853092D01*
X5098928Y-113148070D01*
X4848070Y-113398928D01*
X4553092Y-113596026D01*
X4225331Y-113731789D01*
X3877384Y-113801000D01*
X3522616Y-113801000D01*
X3174669Y-113731789D01*
X2846908Y-113596026D01*
X2551930Y-113398928D01*
X2301072Y-113148070D01*
X2103974Y-112853092D01*
X1968211Y-112525331D01*
X1899000Y-112177384D01*
X1899000Y-111822616D01*
X1968211Y-111474669D01*
X2103974Y-111146908D01*
X2301072Y-110851930D01*
X2551930Y-110601072D01*
X2846908Y-110403974D01*
X3174669Y-110268211D01*
X3522616Y-110199000D01*
X3877384Y-110199000D01*
X4225331Y-110268211D01*
G37*
G36*
X10174549Y-107721116D02*
G01*
X10285734Y-107743232D01*
X10495203Y-107829997D01*
X10683720Y-107955960D01*
X10844040Y-108116280D01*
X10970003Y-108304797D01*
X11056768Y-108514266D01*
X11101000Y-108736636D01*
X11101000Y-108963364D01*
X11056768Y-109185734D01*
X10970003Y-109395203D01*
X10844040Y-109583720D01*
X10683720Y-109744040D01*
X10495203Y-109870003D01*
X10285734Y-109956768D01*
X10174549Y-109978884D01*
X10063365Y-110001000D01*
X9836635Y-110001000D01*
X9725451Y-109978884D01*
X9614266Y-109956768D01*
X9404797Y-109870003D01*
X9216280Y-109744040D01*
X9055960Y-109583720D01*
X8929997Y-109395203D01*
X8843232Y-109185734D01*
X8799000Y-108963364D01*
X8799000Y-108736636D01*
X8843232Y-108514266D01*
X8929997Y-108304797D01*
X9055960Y-108116280D01*
X9216280Y-107955960D01*
X9404797Y-107829997D01*
X9614266Y-107743232D01*
X9725451Y-107721116D01*
X9836635Y-107699000D01*
X10063365Y-107699000D01*
X10174549Y-107721116D01*
G37*
G36*
X83074549Y-107721116D02*
G01*
X83185734Y-107743232D01*
X83395203Y-107829997D01*
X83583720Y-107955960D01*
X83744040Y-108116280D01*
X83870003Y-108304797D01*
X83956768Y-108514266D01*
X84001000Y-108736636D01*
X84001000Y-108963364D01*
X83956768Y-109185734D01*
X83870003Y-109395203D01*
X83744040Y-109583720D01*
X83583720Y-109744040D01*
X83395203Y-109870003D01*
X83185734Y-109956768D01*
X83074549Y-109978884D01*
X82963365Y-110001000D01*
X82736635Y-110001000D01*
X82625451Y-109978884D01*
X82514266Y-109956768D01*
X82304797Y-109870003D01*
X82116280Y-109744040D01*
X81955960Y-109583720D01*
X81829997Y-109395203D01*
X81743232Y-109185734D01*
X81699000Y-108963364D01*
X81699000Y-108736636D01*
X81743232Y-108514266D01*
X81829997Y-108304797D01*
X81955960Y-108116280D01*
X82116280Y-107955960D01*
X82304797Y-107829997D01*
X82514266Y-107743232D01*
X82625451Y-107721116D01*
X82736635Y-107699000D01*
X82963365Y-107699000D01*
X83074549Y-107721116D01*
G37*
G36*
X71303512Y-106433927D02*
G01*
X71452812Y-106463624D01*
X71616784Y-106531544D01*
X71764354Y-106630147D01*
X71889853Y-106755646D01*
X71988456Y-106903216D01*
X72056376Y-107067188D01*
X72091000Y-107241259D01*
X72091000Y-107418741D01*
X72056376Y-107592812D01*
X71988456Y-107756784D01*
X71889853Y-107904354D01*
X71764354Y-108029853D01*
X71616784Y-108128456D01*
X71452812Y-108196376D01*
X71303512Y-108226073D01*
X71278742Y-108231000D01*
X71101258Y-108231000D01*
X71076488Y-108226073D01*
X70927188Y-108196376D01*
X70763216Y-108128456D01*
X70615646Y-108029853D01*
X70490147Y-107904354D01*
X70391544Y-107756784D01*
X70323624Y-107592812D01*
X70289000Y-107418741D01*
X70289000Y-107241259D01*
X70323624Y-107067188D01*
X70391544Y-106903216D01*
X70490147Y-106755646D01*
X70615646Y-106630147D01*
X70763216Y-106531544D01*
X70927188Y-106463624D01*
X71076488Y-106433927D01*
X71101258Y-106429000D01*
X71278742Y-106429000D01*
X71303512Y-106433927D01*
G37*
G36*
X48303512Y-106433927D02*
G01*
X48452812Y-106463624D01*
X48616784Y-106531544D01*
X48764354Y-106630147D01*
X48889853Y-106755646D01*
X48988456Y-106903216D01*
X49056376Y-107067188D01*
X49091000Y-107241259D01*
X49091000Y-107418741D01*
X49056376Y-107592812D01*
X48988456Y-107756784D01*
X48889853Y-107904354D01*
X48764354Y-108029853D01*
X48616784Y-108128456D01*
X48452812Y-108196376D01*
X48303512Y-108226073D01*
X48278742Y-108231000D01*
X48101258Y-108231000D01*
X48076488Y-108226073D01*
X47927188Y-108196376D01*
X47763216Y-108128456D01*
X47615646Y-108029853D01*
X47490147Y-107904354D01*
X47391544Y-107756784D01*
X47323624Y-107592812D01*
X47289000Y-107418741D01*
X47289000Y-107241259D01*
X47323624Y-107067188D01*
X47391544Y-106903216D01*
X47490147Y-106755646D01*
X47615646Y-106630147D01*
X47763216Y-106531544D01*
X47927188Y-106463624D01*
X48076488Y-106433927D01*
X48101258Y-106429000D01*
X48278742Y-106429000D01*
X48303512Y-106433927D01*
G37*
G36*
X39672585Y-105158802D02*
G01*
X39822410Y-105188604D01*
X40104674Y-105305521D01*
X40358705Y-105475259D01*
X40574741Y-105691295D01*
X40744479Y-105945326D01*
X40861396Y-106227590D01*
X40861396Y-106227591D01*
X40921000Y-106527239D01*
X40921000Y-106832761D01*
X40906985Y-106903218D01*
X40861396Y-107132410D01*
X40744479Y-107414674D01*
X40574741Y-107668705D01*
X40358705Y-107884741D01*
X40104674Y-108054479D01*
X39822410Y-108171396D01*
X39696832Y-108196375D01*
X39522761Y-108231000D01*
X39217239Y-108231000D01*
X39043168Y-108196375D01*
X38917590Y-108171396D01*
X38635326Y-108054479D01*
X38381295Y-107884741D01*
X38165259Y-107668705D01*
X37995521Y-107414674D01*
X37878604Y-107132410D01*
X37833015Y-106903218D01*
X37819000Y-106832761D01*
X37819000Y-106527239D01*
X37878604Y-106227591D01*
X37878604Y-106227590D01*
X37995521Y-105945326D01*
X38165259Y-105691295D01*
X38381295Y-105475259D01*
X38635326Y-105305521D01*
X38917590Y-105188604D01*
X39067415Y-105158802D01*
X39217239Y-105129000D01*
X39522761Y-105129000D01*
X39672585Y-105158802D01*
G37*
G36*
X17172585Y-105158802D02*
G01*
X17322410Y-105188604D01*
X17604674Y-105305521D01*
X17858705Y-105475259D01*
X18074741Y-105691295D01*
X18244479Y-105945326D01*
X18361396Y-106227590D01*
X18361396Y-106227591D01*
X18421000Y-106527239D01*
X18421000Y-106832761D01*
X18406985Y-106903218D01*
X18361396Y-107132410D01*
X18244479Y-107414674D01*
X18074741Y-107668705D01*
X17858705Y-107884741D01*
X17604674Y-108054479D01*
X17322410Y-108171396D01*
X17196832Y-108196375D01*
X17022761Y-108231000D01*
X16717239Y-108231000D01*
X16543168Y-108196375D01*
X16417590Y-108171396D01*
X16135326Y-108054479D01*
X15881295Y-107884741D01*
X15665259Y-107668705D01*
X15495521Y-107414674D01*
X15378604Y-107132410D01*
X15333015Y-106903218D01*
X15319000Y-106832761D01*
X15319000Y-106527239D01*
X15378604Y-106227591D01*
X15378604Y-106227590D01*
X15495521Y-105945326D01*
X15665259Y-105691295D01*
X15881295Y-105475259D01*
X16135326Y-105305521D01*
X16417590Y-105188604D01*
X16567415Y-105158802D01*
X16717239Y-105129000D01*
X17022761Y-105129000D01*
X17172585Y-105158802D01*
G37*
G36*
X28438433Y-105314893D02*
G01*
X28528657Y-105332839D01*
X28634267Y-105376585D01*
X28783621Y-105438449D01*
X28859763Y-105489325D01*
X29013086Y-105591772D01*
X29208228Y-105786914D01*
X29310675Y-105940237D01*
X29361551Y-106016379D01*
X29423415Y-106165733D01*
X29449038Y-106227590D01*
X29467161Y-106271344D01*
X29521000Y-106542012D01*
X29521000Y-106817988D01*
X29518061Y-106832761D01*
X29467161Y-107088657D01*
X29423415Y-107194267D01*
X29361551Y-107343621D01*
X29361550Y-107343622D01*
X29208228Y-107573086D01*
X29013086Y-107768228D01*
X28859763Y-107870675D01*
X28783621Y-107921551D01*
X28700550Y-107955960D01*
X28528657Y-108027161D01*
X28438433Y-108045107D01*
X28257988Y-108081000D01*
X27982012Y-108081000D01*
X27801567Y-108045107D01*
X27711343Y-108027161D01*
X27539450Y-107955960D01*
X27456379Y-107921551D01*
X27380237Y-107870675D01*
X27226914Y-107768228D01*
X27031772Y-107573086D01*
X26878450Y-107343622D01*
X26878449Y-107343621D01*
X26816585Y-107194267D01*
X26772839Y-107088657D01*
X26721939Y-106832761D01*
X26719000Y-106817988D01*
X26719000Y-106542012D01*
X26772839Y-106271344D01*
X26790963Y-106227590D01*
X26816585Y-106165733D01*
X26878449Y-106016379D01*
X26929325Y-105940237D01*
X27031772Y-105786914D01*
X27226914Y-105591772D01*
X27380237Y-105489325D01*
X27456379Y-105438449D01*
X27605733Y-105376585D01*
X27711343Y-105332839D01*
X27801567Y-105314893D01*
X27982012Y-105279000D01*
X28257988Y-105279000D01*
X28438433Y-105314893D01*
G37*
G36*
X48303512Y-102933927D02*
G01*
X48452812Y-102963624D01*
X48616784Y-103031544D01*
X48764354Y-103130147D01*
X48889853Y-103255646D01*
X48988456Y-103403216D01*
X49056376Y-103567188D01*
X49091000Y-103741259D01*
X49091000Y-103918741D01*
X49056376Y-104092812D01*
X48988456Y-104256784D01*
X48889853Y-104404354D01*
X48764354Y-104529853D01*
X48616784Y-104628456D01*
X48452812Y-104696376D01*
X48303512Y-104726073D01*
X48278742Y-104731000D01*
X48101258Y-104731000D01*
X48076488Y-104726073D01*
X47927188Y-104696376D01*
X47763216Y-104628456D01*
X47615646Y-104529853D01*
X47490147Y-104404354D01*
X47391544Y-104256784D01*
X47323624Y-104092812D01*
X47289000Y-103918741D01*
X47289000Y-103741259D01*
X47323624Y-103567188D01*
X47391544Y-103403216D01*
X47490147Y-103255646D01*
X47615646Y-103130147D01*
X47763216Y-103031544D01*
X47927188Y-102963624D01*
X48076488Y-102933927D01*
X48101258Y-102929000D01*
X48278742Y-102929000D01*
X48303512Y-102933927D01*
G37*
G36*
X48303512Y-95933927D02*
G01*
X48452812Y-95963624D01*
X48616784Y-96031544D01*
X48764354Y-96130147D01*
X48889853Y-96255646D01*
X48988456Y-96403216D01*
X49056376Y-96567188D01*
X49091000Y-96741259D01*
X49091000Y-96918741D01*
X49056376Y-97092812D01*
X48988456Y-97256784D01*
X48889853Y-97404354D01*
X48764354Y-97529853D01*
X48616784Y-97628456D01*
X48452812Y-97696376D01*
X48303512Y-97726073D01*
X48278742Y-97731000D01*
X48101258Y-97731000D01*
X48076488Y-97726073D01*
X47927188Y-97696376D01*
X47763216Y-97628456D01*
X47615646Y-97529853D01*
X47490147Y-97404354D01*
X47391544Y-97256784D01*
X47323624Y-97092812D01*
X47289000Y-96918741D01*
X47289000Y-96741259D01*
X47323624Y-96567188D01*
X47391544Y-96403216D01*
X47490147Y-96255646D01*
X47615646Y-96130147D01*
X47763216Y-96031544D01*
X47927188Y-95963624D01*
X48076488Y-95933927D01*
X48101258Y-95929000D01*
X48278742Y-95929000D01*
X48303512Y-95933927D01*
G37*
G36*
X17172585Y-91188802D02*
G01*
X17322410Y-91218604D01*
X17604674Y-91335521D01*
X17858705Y-91505259D01*
X18074741Y-91721295D01*
X18244479Y-91975326D01*
X18361396Y-92257590D01*
X18361396Y-92257591D01*
X18421000Y-92557239D01*
X18421000Y-92862761D01*
X18391198Y-93012585D01*
X18361396Y-93162410D01*
X18244479Y-93444674D01*
X18074741Y-93698705D01*
X17858705Y-93914741D01*
X17604674Y-94084479D01*
X17322410Y-94201396D01*
X17173580Y-94231000D01*
X17022761Y-94261000D01*
X16717239Y-94261000D01*
X16566420Y-94231000D01*
X16417590Y-94201396D01*
X16135326Y-94084479D01*
X15881295Y-93914741D01*
X15665259Y-93698705D01*
X15495521Y-93444674D01*
X15378604Y-93162410D01*
X15348802Y-93012585D01*
X15319000Y-92862761D01*
X15319000Y-92557239D01*
X15378604Y-92257591D01*
X15378604Y-92257590D01*
X15495521Y-91975326D01*
X15665259Y-91721295D01*
X15881295Y-91505259D01*
X16135326Y-91335521D01*
X16417590Y-91218604D01*
X16567415Y-91188802D01*
X16717239Y-91159000D01*
X17022761Y-91159000D01*
X17172585Y-91188802D01*
G37*
G36*
X39672585Y-91188802D02*
G01*
X39822410Y-91218604D01*
X40104674Y-91335521D01*
X40358705Y-91505259D01*
X40574741Y-91721295D01*
X40744479Y-91975326D01*
X40861396Y-92257590D01*
X40861396Y-92257591D01*
X40921000Y-92557239D01*
X40921000Y-92862761D01*
X40891198Y-93012585D01*
X40861396Y-93162410D01*
X40744479Y-93444674D01*
X40574741Y-93698705D01*
X40358705Y-93914741D01*
X40104674Y-94084479D01*
X39822410Y-94201396D01*
X39673580Y-94231000D01*
X39522761Y-94261000D01*
X39217239Y-94261000D01*
X39066420Y-94231000D01*
X38917590Y-94201396D01*
X38635326Y-94084479D01*
X38381295Y-93914741D01*
X38165259Y-93698705D01*
X37995521Y-93444674D01*
X37878604Y-93162410D01*
X37848802Y-93012585D01*
X37819000Y-92862761D01*
X37819000Y-92557239D01*
X37878604Y-92257591D01*
X37878604Y-92257590D01*
X37995521Y-91975326D01*
X38165259Y-91721295D01*
X38381295Y-91505259D01*
X38635326Y-91335521D01*
X38917590Y-91218604D01*
X39067415Y-91188802D01*
X39217239Y-91159000D01*
X39522761Y-91159000D01*
X39672585Y-91188802D01*
G37*
G36*
X71303512Y-92433927D02*
G01*
X71452812Y-92463624D01*
X71616784Y-92531544D01*
X71764354Y-92630147D01*
X71889853Y-92755646D01*
X71988456Y-92903216D01*
X72056376Y-93067188D01*
X72091000Y-93241259D01*
X72091000Y-93418741D01*
X72056376Y-93592812D01*
X71988456Y-93756784D01*
X71889853Y-93904354D01*
X71764354Y-94029853D01*
X71616784Y-94128456D01*
X71452812Y-94196376D01*
X71303512Y-94226073D01*
X71278742Y-94231000D01*
X71101258Y-94231000D01*
X71076488Y-94226073D01*
X70927188Y-94196376D01*
X70763216Y-94128456D01*
X70615646Y-94029853D01*
X70490147Y-93904354D01*
X70391544Y-93756784D01*
X70323624Y-93592812D01*
X70289000Y-93418741D01*
X70289000Y-93241259D01*
X70323624Y-93067188D01*
X70391544Y-92903216D01*
X70490147Y-92755646D01*
X70615646Y-92630147D01*
X70763216Y-92531544D01*
X70927188Y-92463624D01*
X71076488Y-92433927D01*
X71101258Y-92429000D01*
X71278742Y-92429000D01*
X71303512Y-92433927D01*
G37*
G36*
X48303512Y-92433927D02*
G01*
X48452812Y-92463624D01*
X48616784Y-92531544D01*
X48764354Y-92630147D01*
X48889853Y-92755646D01*
X48988456Y-92903216D01*
X49056376Y-93067188D01*
X49091000Y-93241259D01*
X49091000Y-93418741D01*
X49056376Y-93592812D01*
X48988456Y-93756784D01*
X48889853Y-93904354D01*
X48764354Y-94029853D01*
X48616784Y-94128456D01*
X48452812Y-94196376D01*
X48303512Y-94226073D01*
X48278742Y-94231000D01*
X48101258Y-94231000D01*
X48076488Y-94226073D01*
X47927188Y-94196376D01*
X47763216Y-94128456D01*
X47615646Y-94029853D01*
X47490147Y-93904354D01*
X47391544Y-93756784D01*
X47323624Y-93592812D01*
X47289000Y-93418741D01*
X47289000Y-93241259D01*
X47323624Y-93067188D01*
X47391544Y-92903216D01*
X47490147Y-92755646D01*
X47615646Y-92630147D01*
X47763216Y-92531544D01*
X47927188Y-92463624D01*
X48076488Y-92433927D01*
X48101258Y-92429000D01*
X48278742Y-92429000D01*
X48303512Y-92433927D01*
G37*
G36*
X28438433Y-91344893D02*
G01*
X28528657Y-91362839D01*
X28634267Y-91406585D01*
X28783621Y-91468449D01*
X28859763Y-91519325D01*
X29013086Y-91621772D01*
X29208228Y-91816914D01*
X29310675Y-91970237D01*
X29361551Y-92046379D01*
X29423415Y-92195733D01*
X29449038Y-92257590D01*
X29467161Y-92301344D01*
X29521000Y-92572012D01*
X29521000Y-92847988D01*
X29510014Y-92903218D01*
X29467161Y-93118657D01*
X29423415Y-93224267D01*
X29361551Y-93373621D01*
X29361550Y-93373622D01*
X29208228Y-93603086D01*
X29013086Y-93798228D01*
X28859763Y-93900675D01*
X28783621Y-93951551D01*
X28634267Y-94013415D01*
X28528657Y-94057161D01*
X28438433Y-94075107D01*
X28257988Y-94111000D01*
X27982012Y-94111000D01*
X27801567Y-94075107D01*
X27711343Y-94057161D01*
X27605733Y-94013415D01*
X27456379Y-93951551D01*
X27380237Y-93900675D01*
X27226914Y-93798228D01*
X27031772Y-93603086D01*
X26878450Y-93373622D01*
X26878449Y-93373621D01*
X26816585Y-93224267D01*
X26772839Y-93118657D01*
X26729986Y-92903218D01*
X26719000Y-92847988D01*
X26719000Y-92572012D01*
X26772839Y-92301344D01*
X26790963Y-92257590D01*
X26816585Y-92195733D01*
X26878449Y-92046379D01*
X26929325Y-91970237D01*
X27031772Y-91816914D01*
X27226914Y-91621772D01*
X27380237Y-91519325D01*
X27456379Y-91468449D01*
X27605733Y-91406585D01*
X27711343Y-91362839D01*
X27801567Y-91344893D01*
X27982012Y-91309000D01*
X28257988Y-91309000D01*
X28438433Y-91344893D01*
G37*
G36*
X10174549Y-88421116D02*
G01*
X10285734Y-88443232D01*
X10495203Y-88529997D01*
X10683720Y-88655960D01*
X10844040Y-88816280D01*
X10970003Y-89004797D01*
X11056768Y-89214266D01*
X11101000Y-89436636D01*
X11101000Y-89663364D01*
X11056768Y-89885734D01*
X10970003Y-90095203D01*
X10844040Y-90283720D01*
X10683720Y-90444040D01*
X10495203Y-90570003D01*
X10285734Y-90656768D01*
X10174549Y-90678884D01*
X10063365Y-90701000D01*
X9836635Y-90701000D01*
X9725451Y-90678884D01*
X9614266Y-90656768D01*
X9404797Y-90570003D01*
X9216280Y-90444040D01*
X9055960Y-90283720D01*
X8929997Y-90095203D01*
X8843232Y-89885734D01*
X8799000Y-89663364D01*
X8799000Y-89436636D01*
X8843232Y-89214266D01*
X8929997Y-89004797D01*
X9055960Y-88816280D01*
X9216280Y-88655960D01*
X9404797Y-88529997D01*
X9614266Y-88443232D01*
X9725451Y-88421116D01*
X9836635Y-88399000D01*
X10063365Y-88399000D01*
X10174549Y-88421116D01*
G37*
G36*
X83074549Y-88421116D02*
G01*
X83185734Y-88443232D01*
X83395203Y-88529997D01*
X83583720Y-88655960D01*
X83744040Y-88816280D01*
X83870003Y-89004797D01*
X83956768Y-89214266D01*
X84001000Y-89436636D01*
X84001000Y-89663364D01*
X83956768Y-89885734D01*
X83870003Y-90095203D01*
X83744040Y-90283720D01*
X83583720Y-90444040D01*
X83395203Y-90570003D01*
X83185734Y-90656768D01*
X83074549Y-90678884D01*
X82963365Y-90701000D01*
X82736635Y-90701000D01*
X82625451Y-90678884D01*
X82514266Y-90656768D01*
X82304797Y-90570003D01*
X82116280Y-90444040D01*
X81955960Y-90283720D01*
X81829997Y-90095203D01*
X81743232Y-89885734D01*
X81699000Y-89663364D01*
X81699000Y-89436636D01*
X81743232Y-89214266D01*
X81829997Y-89004797D01*
X81955960Y-88816280D01*
X82116280Y-88655960D01*
X82304797Y-88529997D01*
X82514266Y-88443232D01*
X82625451Y-88421116D01*
X82736635Y-88399000D01*
X82963365Y-88399000D01*
X83074549Y-88421116D01*
G37*
G36*
X72021000Y-84721000D02*
G01*
X70219000Y-84721000D01*
X70219000Y-82919000D01*
X72021000Y-82919000D01*
X72021000Y-84721000D01*
G37*
G36*
X71233512Y-80383927D02*
G01*
X71382812Y-80413624D01*
X71546784Y-80481544D01*
X71694354Y-80580147D01*
X71819853Y-80705646D01*
X71918456Y-80853216D01*
X71986376Y-81017188D01*
X72021000Y-81191259D01*
X72021000Y-81368741D01*
X71986376Y-81542812D01*
X71918456Y-81706784D01*
X71819853Y-81854354D01*
X71694354Y-81979853D01*
X71546784Y-82078456D01*
X71382812Y-82146376D01*
X71233512Y-82176073D01*
X71208742Y-82181000D01*
X71031258Y-82181000D01*
X71006488Y-82176073D01*
X70857188Y-82146376D01*
X70693216Y-82078456D01*
X70545646Y-81979853D01*
X70420147Y-81854354D01*
X70321544Y-81706784D01*
X70253624Y-81542812D01*
X70219000Y-81368741D01*
X70219000Y-81191259D01*
X70253624Y-81017188D01*
X70321544Y-80853216D01*
X70420147Y-80705646D01*
X70545646Y-80580147D01*
X70693216Y-80481544D01*
X70857188Y-80413624D01*
X71006488Y-80383927D01*
X71031258Y-80379000D01*
X71208742Y-80379000D01*
X71233512Y-80383927D01*
G37*
G36*
X39672585Y-78488802D02*
G01*
X39822410Y-78518604D01*
X40104674Y-78635521D01*
X40358705Y-78805259D01*
X40574741Y-79021295D01*
X40744479Y-79275326D01*
X40861396Y-79557590D01*
X40921000Y-79857240D01*
X40921000Y-80162760D01*
X40861396Y-80462410D01*
X40744479Y-80744674D01*
X40574741Y-80998705D01*
X40358705Y-81214741D01*
X40104674Y-81384479D01*
X39822410Y-81501396D01*
X39672585Y-81531198D01*
X39522761Y-81561000D01*
X39217239Y-81561000D01*
X39067415Y-81531198D01*
X38917590Y-81501396D01*
X38635326Y-81384479D01*
X38381295Y-81214741D01*
X38165259Y-80998705D01*
X37995521Y-80744674D01*
X37878604Y-80462410D01*
X37819000Y-80162760D01*
X37819000Y-79857240D01*
X37878604Y-79557590D01*
X37995521Y-79275326D01*
X38165259Y-79021295D01*
X38381295Y-78805259D01*
X38635326Y-78635521D01*
X38917590Y-78518604D01*
X39067415Y-78488802D01*
X39217239Y-78459000D01*
X39522761Y-78459000D01*
X39672585Y-78488802D01*
G37*
G36*
X17172585Y-78488802D02*
G01*
X17322410Y-78518604D01*
X17604674Y-78635521D01*
X17858705Y-78805259D01*
X18074741Y-79021295D01*
X18244479Y-79275326D01*
X18361396Y-79557590D01*
X18421000Y-79857240D01*
X18421000Y-80162760D01*
X18361396Y-80462410D01*
X18244479Y-80744674D01*
X18074741Y-80998705D01*
X17858705Y-81214741D01*
X17604674Y-81384479D01*
X17322410Y-81501396D01*
X17172585Y-81531198D01*
X17022761Y-81561000D01*
X16717239Y-81561000D01*
X16567415Y-81531198D01*
X16417590Y-81501396D01*
X16135326Y-81384479D01*
X15881295Y-81214741D01*
X15665259Y-80998705D01*
X15495521Y-80744674D01*
X15378604Y-80462410D01*
X15319000Y-80162760D01*
X15319000Y-79857240D01*
X15378604Y-79557590D01*
X15495521Y-79275326D01*
X15665259Y-79021295D01*
X15881295Y-78805259D01*
X16135326Y-78635521D01*
X16417590Y-78518604D01*
X16567415Y-78488802D01*
X16717239Y-78459000D01*
X17022761Y-78459000D01*
X17172585Y-78488802D01*
G37*
G36*
X28438433Y-78644893D02*
G01*
X28528657Y-78662839D01*
X28634267Y-78706585D01*
X28783621Y-78768449D01*
X28859763Y-78819325D01*
X29013086Y-78921772D01*
X29208228Y-79116914D01*
X29310675Y-79270237D01*
X29361551Y-79346379D01*
X29423415Y-79495733D01*
X29449038Y-79557590D01*
X29467161Y-79601344D01*
X29521000Y-79872012D01*
X29521000Y-80147988D01*
X29518061Y-80162761D01*
X29467161Y-80418657D01*
X29441112Y-80481544D01*
X29361551Y-80673621D01*
X29340152Y-80705647D01*
X29208228Y-80903086D01*
X29013086Y-81098228D01*
X28873856Y-81191258D01*
X28783621Y-81251551D01*
X28634267Y-81313415D01*
X28528657Y-81357161D01*
X28438433Y-81375107D01*
X28257988Y-81411000D01*
X27982012Y-81411000D01*
X27801567Y-81375107D01*
X27711343Y-81357161D01*
X27605733Y-81313415D01*
X27456379Y-81251551D01*
X27366144Y-81191258D01*
X27226914Y-81098228D01*
X27031772Y-80903086D01*
X26899848Y-80705647D01*
X26878449Y-80673621D01*
X26798888Y-80481544D01*
X26772839Y-80418657D01*
X26721939Y-80162761D01*
X26719000Y-80147988D01*
X26719000Y-79872012D01*
X26772839Y-79601344D01*
X26790963Y-79557590D01*
X26816585Y-79495733D01*
X26878449Y-79346379D01*
X26929325Y-79270237D01*
X27031772Y-79116914D01*
X27226914Y-78921772D01*
X27380237Y-78819325D01*
X27456379Y-78768449D01*
X27605733Y-78706585D01*
X27711343Y-78662839D01*
X27801567Y-78644893D01*
X27982012Y-78609000D01*
X28257988Y-78609000D01*
X28438433Y-78644893D01*
G37*
G36*
X49643512Y-70223927D02*
G01*
X49792812Y-70253624D01*
X49956784Y-70321544D01*
X50104354Y-70420147D01*
X50229853Y-70545646D01*
X50328456Y-70693216D01*
X50396376Y-70857188D01*
X50431000Y-71031259D01*
X50431000Y-71208741D01*
X50396376Y-71382812D01*
X50328456Y-71546784D01*
X50229853Y-71694354D01*
X50104354Y-71819853D01*
X49956784Y-71918456D01*
X49792812Y-71986376D01*
X49643512Y-72016073D01*
X49618742Y-72021000D01*
X49441258Y-72021000D01*
X49416488Y-72016073D01*
X49267188Y-71986376D01*
X49103216Y-71918456D01*
X48955646Y-71819853D01*
X48830147Y-71694354D01*
X48731544Y-71546784D01*
X48663624Y-71382812D01*
X48629000Y-71208741D01*
X48629000Y-71031259D01*
X48663624Y-70857188D01*
X48731544Y-70693216D01*
X48830147Y-70545646D01*
X48955646Y-70420147D01*
X49103216Y-70321544D01*
X49267188Y-70253624D01*
X49416488Y-70223927D01*
X49441258Y-70219000D01*
X49618742Y-70219000D01*
X49643512Y-70223927D01*
G37*
G36*
X49643512Y-67683927D02*
G01*
X49792812Y-67713624D01*
X49956784Y-67781544D01*
X50104354Y-67880147D01*
X50229853Y-68005646D01*
X50328456Y-68153216D01*
X50396376Y-68317188D01*
X50431000Y-68491259D01*
X50431000Y-68668741D01*
X50396376Y-68842812D01*
X50328456Y-69006784D01*
X50229853Y-69154354D01*
X50104354Y-69279853D01*
X49956784Y-69378456D01*
X49792812Y-69446376D01*
X49643512Y-69476073D01*
X49618742Y-69481000D01*
X49441258Y-69481000D01*
X49416488Y-69476073D01*
X49267188Y-69446376D01*
X49103216Y-69378456D01*
X48955646Y-69279853D01*
X48830147Y-69154354D01*
X48731544Y-69006784D01*
X48663624Y-68842812D01*
X48629000Y-68668741D01*
X48629000Y-68491259D01*
X48663624Y-68317188D01*
X48731544Y-68153216D01*
X48830147Y-68005646D01*
X48955646Y-67880147D01*
X49103216Y-67781544D01*
X49267188Y-67713624D01*
X49416488Y-67683927D01*
X49441258Y-67679000D01*
X49618742Y-67679000D01*
X49643512Y-67683927D01*
G37*
G36*
X10174549Y-67191116D02*
G01*
X10285734Y-67213232D01*
X10495203Y-67299997D01*
X10683720Y-67425960D01*
X10844040Y-67586280D01*
X10970003Y-67774797D01*
X11056768Y-67984266D01*
X11101000Y-68206636D01*
X11101000Y-68433364D01*
X11056768Y-68655734D01*
X10970003Y-68865203D01*
X10844040Y-69053720D01*
X10683720Y-69214040D01*
X10495203Y-69340003D01*
X10285734Y-69426768D01*
X10174549Y-69448884D01*
X10063365Y-69471000D01*
X9836635Y-69471000D01*
X9725451Y-69448884D01*
X9614266Y-69426768D01*
X9404797Y-69340003D01*
X9216280Y-69214040D01*
X9055960Y-69053720D01*
X8929997Y-68865203D01*
X8843232Y-68655734D01*
X8799000Y-68433364D01*
X8799000Y-68206636D01*
X8843232Y-67984266D01*
X8929997Y-67774797D01*
X9055960Y-67586280D01*
X9216280Y-67425960D01*
X9404797Y-67299997D01*
X9614266Y-67213232D01*
X9725451Y-67191116D01*
X9836635Y-67169000D01*
X10063365Y-67169000D01*
X10174549Y-67191116D01*
G37*
G36*
X83074549Y-67191116D02*
G01*
X83185734Y-67213232D01*
X83395203Y-67299997D01*
X83583720Y-67425960D01*
X83744040Y-67586280D01*
X83870003Y-67774797D01*
X83956768Y-67984266D01*
X84001000Y-68206636D01*
X84001000Y-68433364D01*
X83956768Y-68655734D01*
X83870003Y-68865203D01*
X83744040Y-69053720D01*
X83583720Y-69214040D01*
X83395203Y-69340003D01*
X83185734Y-69426768D01*
X83074549Y-69448884D01*
X82963365Y-69471000D01*
X82736635Y-69471000D01*
X82625451Y-69448884D01*
X82514266Y-69426768D01*
X82304797Y-69340003D01*
X82116280Y-69214040D01*
X81955960Y-69053720D01*
X81829997Y-68865203D01*
X81743232Y-68655734D01*
X81699000Y-68433364D01*
X81699000Y-68206636D01*
X81743232Y-67984266D01*
X81829997Y-67774797D01*
X81955960Y-67586280D01*
X82116280Y-67425960D01*
X82304797Y-67299997D01*
X82514266Y-67213232D01*
X82625451Y-67191116D01*
X82736635Y-67169000D01*
X82963365Y-67169000D01*
X83074549Y-67191116D01*
G37*
G36*
X39672585Y-65788802D02*
G01*
X39822410Y-65818604D01*
X40104674Y-65935521D01*
X40358705Y-66105259D01*
X40574741Y-66321295D01*
X40744479Y-66575326D01*
X40861396Y-66857590D01*
X40921000Y-67157240D01*
X40921000Y-67462760D01*
X40861396Y-67762410D01*
X40744479Y-68044674D01*
X40574741Y-68298705D01*
X40358705Y-68514741D01*
X40104674Y-68684479D01*
X39822410Y-68801396D01*
X39672585Y-68831198D01*
X39522761Y-68861000D01*
X39217239Y-68861000D01*
X39067415Y-68831198D01*
X38917590Y-68801396D01*
X38635326Y-68684479D01*
X38381295Y-68514741D01*
X38165259Y-68298705D01*
X37995521Y-68044674D01*
X37878604Y-67762410D01*
X37819000Y-67462760D01*
X37819000Y-67157240D01*
X37878604Y-66857590D01*
X37995521Y-66575326D01*
X38165259Y-66321295D01*
X38381295Y-66105259D01*
X38635326Y-65935521D01*
X38917590Y-65818604D01*
X39067415Y-65788802D01*
X39217239Y-65759000D01*
X39522761Y-65759000D01*
X39672585Y-65788802D01*
G37*
G36*
X17172585Y-65788802D02*
G01*
X17322410Y-65818604D01*
X17604674Y-65935521D01*
X17858705Y-66105259D01*
X18074741Y-66321295D01*
X18244479Y-66575326D01*
X18361396Y-66857590D01*
X18421000Y-67157240D01*
X18421000Y-67462760D01*
X18361396Y-67762410D01*
X18244479Y-68044674D01*
X18074741Y-68298705D01*
X17858705Y-68514741D01*
X17604674Y-68684479D01*
X17322410Y-68801396D01*
X17172585Y-68831198D01*
X17022761Y-68861000D01*
X16717239Y-68861000D01*
X16567415Y-68831198D01*
X16417590Y-68801396D01*
X16135326Y-68684479D01*
X15881295Y-68514741D01*
X15665259Y-68298705D01*
X15495521Y-68044674D01*
X15378604Y-67762410D01*
X15319000Y-67462760D01*
X15319000Y-67157240D01*
X15378604Y-66857590D01*
X15495521Y-66575326D01*
X15665259Y-66321295D01*
X15881295Y-66105259D01*
X16135326Y-65935521D01*
X16417590Y-65818604D01*
X16567415Y-65788802D01*
X16717239Y-65759000D01*
X17022761Y-65759000D01*
X17172585Y-65788802D01*
G37*
G36*
X28438433Y-65944893D02*
G01*
X28528657Y-65962839D01*
X28634267Y-66006585D01*
X28783621Y-66068449D01*
X28859763Y-66119325D01*
X29013086Y-66221772D01*
X29208228Y-66416914D01*
X29280669Y-66525331D01*
X29361551Y-66646379D01*
X29400269Y-66739852D01*
X29449038Y-66857590D01*
X29467161Y-66901344D01*
X29521000Y-67172012D01*
X29521000Y-67447988D01*
X29485107Y-67628433D01*
X29467161Y-67718657D01*
X29443907Y-67774797D01*
X29361551Y-67973621D01*
X29340152Y-68005647D01*
X29208228Y-68203086D01*
X29013086Y-68398228D01*
X28960499Y-68433365D01*
X28783621Y-68551551D01*
X28634267Y-68613415D01*
X28528657Y-68657161D01*
X28438433Y-68675107D01*
X28257988Y-68711000D01*
X27982012Y-68711000D01*
X27801567Y-68675107D01*
X27711343Y-68657161D01*
X27605733Y-68613415D01*
X27456379Y-68551551D01*
X27279501Y-68433365D01*
X27226914Y-68398228D01*
X27031772Y-68203086D01*
X26899848Y-68005647D01*
X26878449Y-67973621D01*
X26796093Y-67774797D01*
X26772839Y-67718657D01*
X26754893Y-67628433D01*
X26719000Y-67447988D01*
X26719000Y-67172012D01*
X26772839Y-66901344D01*
X26790963Y-66857590D01*
X26839731Y-66739852D01*
X26878449Y-66646379D01*
X26959331Y-66525331D01*
X27031772Y-66416914D01*
X27226914Y-66221772D01*
X27380237Y-66119325D01*
X27456379Y-66068449D01*
X27605733Y-66006585D01*
X27711343Y-65962839D01*
X27801567Y-65944893D01*
X27982012Y-65909000D01*
X28257988Y-65909000D01*
X28438433Y-65944893D01*
G37*
G36*
X89625331Y-64268211D02*
G01*
X89953092Y-64403974D01*
X90248070Y-64601072D01*
X90498928Y-64851930D01*
X90696026Y-65146908D01*
X90831789Y-65474669D01*
X90901000Y-65822616D01*
X90901000Y-66177384D01*
X90831789Y-66525331D01*
X90696026Y-66853092D01*
X90498928Y-67148070D01*
X90248070Y-67398928D01*
X89953092Y-67596026D01*
X89625331Y-67731789D01*
X89277384Y-67801000D01*
X88922616Y-67801000D01*
X88574669Y-67731789D01*
X88246908Y-67596026D01*
X87951930Y-67398928D01*
X87701072Y-67148070D01*
X87503974Y-66853092D01*
X87368211Y-66525331D01*
X87299000Y-66177384D01*
X87299000Y-65822616D01*
X87368211Y-65474669D01*
X87503974Y-65146908D01*
X87701072Y-64851930D01*
X87951930Y-64601072D01*
X88246908Y-64403974D01*
X88574669Y-64268211D01*
X88922616Y-64199000D01*
X89277384Y-64199000D01*
X89625331Y-64268211D01*
G37*
G36*
X4225331Y-64268211D02*
G01*
X4553092Y-64403974D01*
X4848070Y-64601072D01*
X5098928Y-64851930D01*
X5296026Y-65146908D01*
X5431789Y-65474669D01*
X5501000Y-65822616D01*
X5501000Y-66177384D01*
X5431789Y-66525331D01*
X5296026Y-66853092D01*
X5098928Y-67148070D01*
X4848070Y-67398928D01*
X4553092Y-67596026D01*
X4225331Y-67731789D01*
X3877384Y-67801000D01*
X3522616Y-67801000D01*
X3174669Y-67731789D01*
X2846908Y-67596026D01*
X2551930Y-67398928D01*
X2301072Y-67148070D01*
X2103974Y-66853092D01*
X1968211Y-66525331D01*
X1899000Y-66177384D01*
X1899000Y-65822616D01*
X1968211Y-65474669D01*
X2103974Y-65146908D01*
X2301072Y-64851930D01*
X2551930Y-64601072D01*
X2846908Y-64403974D01*
X3174669Y-64268211D01*
X3522616Y-64199000D01*
X3877384Y-64199000D01*
X4225331Y-64268211D01*
G37*
G36*
X49643512Y-65143927D02*
G01*
X49792812Y-65173624D01*
X49956784Y-65241544D01*
X50104354Y-65340147D01*
X50229853Y-65465646D01*
X50328456Y-65613216D01*
X50396376Y-65777188D01*
X50431000Y-65951259D01*
X50431000Y-66128741D01*
X50396376Y-66302812D01*
X50328456Y-66466784D01*
X50229853Y-66614354D01*
X50104354Y-66739853D01*
X49956784Y-66838456D01*
X49792812Y-66906376D01*
X49643512Y-66936073D01*
X49618742Y-66941000D01*
X49441258Y-66941000D01*
X49416488Y-66936073D01*
X49267188Y-66906376D01*
X49103216Y-66838456D01*
X48955646Y-66739853D01*
X48830147Y-66614354D01*
X48731544Y-66466784D01*
X48663624Y-66302812D01*
X48629000Y-66128741D01*
X48629000Y-65951259D01*
X48663624Y-65777188D01*
X48731544Y-65613216D01*
X48830147Y-65465646D01*
X48955646Y-65340147D01*
X49103216Y-65241544D01*
X49267188Y-65173624D01*
X49416488Y-65143927D01*
X49441258Y-65139000D01*
X49618742Y-65139000D01*
X49643512Y-65143927D01*
G37*
G36*
X49643512Y-62603927D02*
G01*
X49792812Y-62633624D01*
X49956784Y-62701544D01*
X50104354Y-62800147D01*
X50229853Y-62925646D01*
X50328456Y-63073216D01*
X50396376Y-63237188D01*
X50431000Y-63411259D01*
X50431000Y-63588741D01*
X50396376Y-63762812D01*
X50328456Y-63926784D01*
X50229853Y-64074354D01*
X50104354Y-64199853D01*
X49956784Y-64298456D01*
X49792812Y-64366376D01*
X49643512Y-64396073D01*
X49618742Y-64401000D01*
X49441258Y-64401000D01*
X49416488Y-64396073D01*
X49267188Y-64366376D01*
X49103216Y-64298456D01*
X48955646Y-64199853D01*
X48830147Y-64074354D01*
X48731544Y-63926784D01*
X48663624Y-63762812D01*
X48629000Y-63588741D01*
X48629000Y-63411259D01*
X48663624Y-63237188D01*
X48731544Y-63073216D01*
X48830147Y-62925646D01*
X48955646Y-62800147D01*
X49103216Y-62701544D01*
X49267188Y-62633624D01*
X49416488Y-62603927D01*
X49441258Y-62599000D01*
X49618742Y-62599000D01*
X49643512Y-62603927D01*
G37*
G36*
X49643512Y-60063927D02*
G01*
X49792812Y-60093624D01*
X49956784Y-60161544D01*
X50104354Y-60260147D01*
X50229853Y-60385646D01*
X50328456Y-60533216D01*
X50396376Y-60697188D01*
X50431000Y-60871259D01*
X50431000Y-61048741D01*
X50396376Y-61222812D01*
X50328456Y-61386784D01*
X50229853Y-61534354D01*
X50104354Y-61659853D01*
X49956784Y-61758456D01*
X49792812Y-61826376D01*
X49643512Y-61856073D01*
X49618742Y-61861000D01*
X49441258Y-61861000D01*
X49416488Y-61856073D01*
X49267188Y-61826376D01*
X49103216Y-61758456D01*
X48955646Y-61659853D01*
X48830147Y-61534354D01*
X48731544Y-61386784D01*
X48663624Y-61222812D01*
X48629000Y-61048741D01*
X48629000Y-60871259D01*
X48663624Y-60697188D01*
X48731544Y-60533216D01*
X48830147Y-60385646D01*
X48955646Y-60260147D01*
X49103216Y-60161544D01*
X49267188Y-60093624D01*
X49416488Y-60063927D01*
X49441258Y-60059000D01*
X49618742Y-60059000D01*
X49643512Y-60063927D01*
G37*
G36*
X50431000Y-59321000D02*
G01*
X48629000Y-59321000D01*
X48629000Y-57519000D01*
X50431000Y-57519000D01*
X50431000Y-59321000D01*
G37*
G36*
X39672585Y-51818802D02*
G01*
X39822410Y-51848604D01*
X40104674Y-51965521D01*
X40358705Y-52135259D01*
X40574741Y-52351295D01*
X40744479Y-52605326D01*
X40861396Y-52887590D01*
X40921000Y-53187240D01*
X40921000Y-53492760D01*
X40861396Y-53792410D01*
X40744479Y-54074674D01*
X40574741Y-54328705D01*
X40358705Y-54544741D01*
X40104674Y-54714479D01*
X39822410Y-54831396D01*
X39672585Y-54861198D01*
X39522761Y-54891000D01*
X39217239Y-54891000D01*
X39067415Y-54861198D01*
X38917590Y-54831396D01*
X38635326Y-54714479D01*
X38381295Y-54544741D01*
X38165259Y-54328705D01*
X37995521Y-54074674D01*
X37878604Y-53792410D01*
X37819000Y-53492760D01*
X37819000Y-53187240D01*
X37878604Y-52887590D01*
X37995521Y-52605326D01*
X38165259Y-52351295D01*
X38381295Y-52135259D01*
X38635326Y-51965521D01*
X38917590Y-51848604D01*
X39067415Y-51818802D01*
X39217239Y-51789000D01*
X39522761Y-51789000D01*
X39672585Y-51818802D01*
G37*
G36*
X17172585Y-51818802D02*
G01*
X17322410Y-51848604D01*
X17604674Y-51965521D01*
X17858705Y-52135259D01*
X18074741Y-52351295D01*
X18244479Y-52605326D01*
X18361396Y-52887590D01*
X18421000Y-53187240D01*
X18421000Y-53492760D01*
X18361396Y-53792410D01*
X18244479Y-54074674D01*
X18074741Y-54328705D01*
X17858705Y-54544741D01*
X17604674Y-54714479D01*
X17322410Y-54831396D01*
X17172585Y-54861198D01*
X17022761Y-54891000D01*
X16717239Y-54891000D01*
X16567415Y-54861198D01*
X16417590Y-54831396D01*
X16135326Y-54714479D01*
X15881295Y-54544741D01*
X15665259Y-54328705D01*
X15495521Y-54074674D01*
X15378604Y-53792410D01*
X15319000Y-53492760D01*
X15319000Y-53187240D01*
X15378604Y-52887590D01*
X15495521Y-52605326D01*
X15665259Y-52351295D01*
X15881295Y-52135259D01*
X16135326Y-51965521D01*
X16417590Y-51848604D01*
X16567415Y-51818802D01*
X16717239Y-51789000D01*
X17022761Y-51789000D01*
X17172585Y-51818802D01*
G37*
G36*
X28438433Y-51974893D02*
G01*
X28528657Y-51992839D01*
X28634267Y-52036585D01*
X28783621Y-52098449D01*
X28859763Y-52149325D01*
X29013086Y-52251772D01*
X29208228Y-52446914D01*
X29310675Y-52600237D01*
X29361551Y-52676379D01*
X29423415Y-52825733D01*
X29449038Y-52887590D01*
X29467161Y-52931344D01*
X29521000Y-53202012D01*
X29521000Y-53477988D01*
X29518061Y-53492761D01*
X29467161Y-53748657D01*
X29423415Y-53854267D01*
X29361551Y-54003621D01*
X29361550Y-54003622D01*
X29208228Y-54233086D01*
X29013086Y-54428228D01*
X28859763Y-54530675D01*
X28783621Y-54581551D01*
X28634267Y-54643415D01*
X28528657Y-54687161D01*
X28438433Y-54705107D01*
X28257988Y-54741000D01*
X27982012Y-54741000D01*
X27801567Y-54705107D01*
X27711343Y-54687161D01*
X27605733Y-54643415D01*
X27456379Y-54581551D01*
X27380237Y-54530675D01*
X27226914Y-54428228D01*
X27031772Y-54233086D01*
X26878450Y-54003622D01*
X26878449Y-54003621D01*
X26816585Y-53854267D01*
X26772839Y-53748657D01*
X26721939Y-53492761D01*
X26719000Y-53477988D01*
X26719000Y-53202012D01*
X26772839Y-52931344D01*
X26790963Y-52887590D01*
X26816585Y-52825733D01*
X26878449Y-52676379D01*
X26929325Y-52600237D01*
X27031772Y-52446914D01*
X27226914Y-52251772D01*
X27380237Y-52149325D01*
X27456379Y-52098449D01*
X27605733Y-52036585D01*
X27711343Y-51992839D01*
X27801567Y-51974893D01*
X27982012Y-51939000D01*
X28257988Y-51939000D01*
X28438433Y-51974893D01*
G37*
G36*
X83074549Y-47891116D02*
G01*
X83185734Y-47913232D01*
X83395203Y-47999997D01*
X83583720Y-48125960D01*
X83744040Y-48286280D01*
X83870003Y-48474797D01*
X83956768Y-48684266D01*
X84001000Y-48906636D01*
X84001000Y-49133364D01*
X83956768Y-49355734D01*
X83870003Y-49565203D01*
X83744040Y-49753720D01*
X83583720Y-49914040D01*
X83395203Y-50040003D01*
X83185734Y-50126768D01*
X83074549Y-50148884D01*
X82963365Y-50171000D01*
X82736635Y-50171000D01*
X82625451Y-50148884D01*
X82514266Y-50126768D01*
X82304797Y-50040003D01*
X82116280Y-49914040D01*
X81955960Y-49753720D01*
X81829997Y-49565203D01*
X81743232Y-49355734D01*
X81699000Y-49133364D01*
X81699000Y-48906636D01*
X81743232Y-48684266D01*
X81829997Y-48474797D01*
X81955960Y-48286280D01*
X82116280Y-48125960D01*
X82304797Y-47999997D01*
X82514266Y-47913232D01*
X82625451Y-47891116D01*
X82736635Y-47869000D01*
X82963365Y-47869000D01*
X83074549Y-47891116D01*
G37*
G36*
X10174549Y-47891116D02*
G01*
X10285734Y-47913232D01*
X10495203Y-47999997D01*
X10683720Y-48125960D01*
X10844040Y-48286280D01*
X10970003Y-48474797D01*
X11056768Y-48684266D01*
X11101000Y-48906636D01*
X11101000Y-49133364D01*
X11056768Y-49355734D01*
X10970003Y-49565203D01*
X10844040Y-49753720D01*
X10683720Y-49914040D01*
X10495203Y-50040003D01*
X10285734Y-50126768D01*
X10174549Y-50148884D01*
X10063365Y-50171000D01*
X9836635Y-50171000D01*
X9725451Y-50148884D01*
X9614266Y-50126768D01*
X9404797Y-50040003D01*
X9216280Y-49914040D01*
X9055960Y-49753720D01*
X8929997Y-49565203D01*
X8843232Y-49355734D01*
X8799000Y-49133364D01*
X8799000Y-48906636D01*
X8843232Y-48684266D01*
X8929997Y-48474797D01*
X9055960Y-48286280D01*
X9216280Y-48125960D01*
X9404797Y-47999997D01*
X9614266Y-47913232D01*
X9725451Y-47891116D01*
X9836635Y-47869000D01*
X10063365Y-47869000D01*
X10174549Y-47891116D01*
G37*
G36*
X57943512Y-41873927D02*
G01*
X58092812Y-41903624D01*
X58256784Y-41971544D01*
X58404354Y-42070147D01*
X58529853Y-42195646D01*
X58628456Y-42343216D01*
X58696376Y-42507188D01*
X58731000Y-42681259D01*
X58731000Y-42858741D01*
X58696376Y-43032812D01*
X58628456Y-43196784D01*
X58529853Y-43344354D01*
X58404354Y-43469853D01*
X58256784Y-43568456D01*
X58092812Y-43636376D01*
X57943512Y-43666073D01*
X57918742Y-43671000D01*
X57741258Y-43671000D01*
X57716488Y-43666073D01*
X57567188Y-43636376D01*
X57403216Y-43568456D01*
X57255646Y-43469853D01*
X57130147Y-43344354D01*
X57031544Y-43196784D01*
X56963624Y-43032812D01*
X56929000Y-42858741D01*
X56929000Y-42681259D01*
X56963624Y-42507188D01*
X57031544Y-42343216D01*
X57130147Y-42195646D01*
X57255646Y-42070147D01*
X57403216Y-41971544D01*
X57567188Y-41903624D01*
X57716488Y-41873927D01*
X57741258Y-41869000D01*
X57918742Y-41869000D01*
X57943512Y-41873927D01*
G37*
G36*
X35083512Y-41873927D02*
G01*
X35232812Y-41903624D01*
X35396784Y-41971544D01*
X35544354Y-42070147D01*
X35669853Y-42195646D01*
X35768456Y-42343216D01*
X35836376Y-42507188D01*
X35871000Y-42681259D01*
X35871000Y-42858741D01*
X35836376Y-43032812D01*
X35768456Y-43196784D01*
X35669853Y-43344354D01*
X35544354Y-43469853D01*
X35396784Y-43568456D01*
X35232812Y-43636376D01*
X35083512Y-43666073D01*
X35058742Y-43671000D01*
X34881258Y-43671000D01*
X34856488Y-43666073D01*
X34707188Y-43636376D01*
X34543216Y-43568456D01*
X34395646Y-43469853D01*
X34270147Y-43344354D01*
X34171544Y-43196784D01*
X34103624Y-43032812D01*
X34069000Y-42858741D01*
X34069000Y-42681259D01*
X34103624Y-42507188D01*
X34171544Y-42343216D01*
X34270147Y-42195646D01*
X34395646Y-42070147D01*
X34543216Y-41971544D01*
X34707188Y-41903624D01*
X34856488Y-41873927D01*
X34881258Y-41869000D01*
X35058742Y-41869000D01*
X35083512Y-41873927D01*
G37*
G36*
X27463512Y-41873927D02*
G01*
X27612812Y-41903624D01*
X27776784Y-41971544D01*
X27924354Y-42070147D01*
X28049853Y-42195646D01*
X28148456Y-42343216D01*
X28216376Y-42507188D01*
X28251000Y-42681259D01*
X28251000Y-42858741D01*
X28216376Y-43032812D01*
X28148456Y-43196784D01*
X28049853Y-43344354D01*
X27924354Y-43469853D01*
X27776784Y-43568456D01*
X27612812Y-43636376D01*
X27463512Y-43666073D01*
X27438742Y-43671000D01*
X27261258Y-43671000D01*
X27236488Y-43666073D01*
X27087188Y-43636376D01*
X26923216Y-43568456D01*
X26775646Y-43469853D01*
X26650147Y-43344354D01*
X26551544Y-43196784D01*
X26483624Y-43032812D01*
X26449000Y-42858741D01*
X26449000Y-42681259D01*
X26483624Y-42507188D01*
X26551544Y-42343216D01*
X26650147Y-42195646D01*
X26775646Y-42070147D01*
X26923216Y-41971544D01*
X27087188Y-41903624D01*
X27236488Y-41873927D01*
X27261258Y-41869000D01*
X27438742Y-41869000D01*
X27463512Y-41873927D01*
G37*
G36*
X37623512Y-41873927D02*
G01*
X37772812Y-41903624D01*
X37936784Y-41971544D01*
X38084354Y-42070147D01*
X38209853Y-42195646D01*
X38308456Y-42343216D01*
X38376376Y-42507188D01*
X38411000Y-42681259D01*
X38411000Y-42858741D01*
X38376376Y-43032812D01*
X38308456Y-43196784D01*
X38209853Y-43344354D01*
X38084354Y-43469853D01*
X37936784Y-43568456D01*
X37772812Y-43636376D01*
X37623512Y-43666073D01*
X37598742Y-43671000D01*
X37421258Y-43671000D01*
X37396488Y-43666073D01*
X37247188Y-43636376D01*
X37083216Y-43568456D01*
X36935646Y-43469853D01*
X36810147Y-43344354D01*
X36711544Y-43196784D01*
X36643624Y-43032812D01*
X36609000Y-42858741D01*
X36609000Y-42681259D01*
X36643624Y-42507188D01*
X36711544Y-42343216D01*
X36810147Y-42195646D01*
X36935646Y-42070147D01*
X37083216Y-41971544D01*
X37247188Y-41903624D01*
X37396488Y-41873927D01*
X37421258Y-41869000D01*
X37598742Y-41869000D01*
X37623512Y-41873927D01*
G37*
G36*
X40163512Y-41873927D02*
G01*
X40312812Y-41903624D01*
X40476784Y-41971544D01*
X40624354Y-42070147D01*
X40749853Y-42195646D01*
X40848456Y-42343216D01*
X40916376Y-42507188D01*
X40951000Y-42681259D01*
X40951000Y-42858741D01*
X40916376Y-43032812D01*
X40848456Y-43196784D01*
X40749853Y-43344354D01*
X40624354Y-43469853D01*
X40476784Y-43568456D01*
X40312812Y-43636376D01*
X40163512Y-43666073D01*
X40138742Y-43671000D01*
X39961258Y-43671000D01*
X39936488Y-43666073D01*
X39787188Y-43636376D01*
X39623216Y-43568456D01*
X39475646Y-43469853D01*
X39350147Y-43344354D01*
X39251544Y-43196784D01*
X39183624Y-43032812D01*
X39149000Y-42858741D01*
X39149000Y-42681259D01*
X39183624Y-42507188D01*
X39251544Y-42343216D01*
X39350147Y-42195646D01*
X39475646Y-42070147D01*
X39623216Y-41971544D01*
X39787188Y-41903624D01*
X39936488Y-41873927D01*
X39961258Y-41869000D01*
X40138742Y-41869000D01*
X40163512Y-41873927D01*
G37*
G36*
X30003512Y-41873927D02*
G01*
X30152812Y-41903624D01*
X30316784Y-41971544D01*
X30464354Y-42070147D01*
X30589853Y-42195646D01*
X30688456Y-42343216D01*
X30756376Y-42507188D01*
X30791000Y-42681259D01*
X30791000Y-42858741D01*
X30756376Y-43032812D01*
X30688456Y-43196784D01*
X30589853Y-43344354D01*
X30464354Y-43469853D01*
X30316784Y-43568456D01*
X30152812Y-43636376D01*
X30003512Y-43666073D01*
X29978742Y-43671000D01*
X29801258Y-43671000D01*
X29776488Y-43666073D01*
X29627188Y-43636376D01*
X29463216Y-43568456D01*
X29315646Y-43469853D01*
X29190147Y-43344354D01*
X29091544Y-43196784D01*
X29023624Y-43032812D01*
X28989000Y-42858741D01*
X28989000Y-42681259D01*
X29023624Y-42507188D01*
X29091544Y-42343216D01*
X29190147Y-42195646D01*
X29315646Y-42070147D01*
X29463216Y-41971544D01*
X29627188Y-41903624D01*
X29776488Y-41873927D01*
X29801258Y-41869000D01*
X29978742Y-41869000D01*
X30003512Y-41873927D01*
G37*
G36*
X42703512Y-41873927D02*
G01*
X42852812Y-41903624D01*
X43016784Y-41971544D01*
X43164354Y-42070147D01*
X43289853Y-42195646D01*
X43388456Y-42343216D01*
X43456376Y-42507188D01*
X43491000Y-42681259D01*
X43491000Y-42858741D01*
X43456376Y-43032812D01*
X43388456Y-43196784D01*
X43289853Y-43344354D01*
X43164354Y-43469853D01*
X43016784Y-43568456D01*
X42852812Y-43636376D01*
X42703512Y-43666073D01*
X42678742Y-43671000D01*
X42501258Y-43671000D01*
X42476488Y-43666073D01*
X42327188Y-43636376D01*
X42163216Y-43568456D01*
X42015646Y-43469853D01*
X41890147Y-43344354D01*
X41791544Y-43196784D01*
X41723624Y-43032812D01*
X41689000Y-42858741D01*
X41689000Y-42681259D01*
X41723624Y-42507188D01*
X41791544Y-42343216D01*
X41890147Y-42195646D01*
X42015646Y-42070147D01*
X42163216Y-41971544D01*
X42327188Y-41903624D01*
X42476488Y-41873927D01*
X42501258Y-41869000D01*
X42678742Y-41869000D01*
X42703512Y-41873927D01*
G37*
G36*
X45243512Y-41873927D02*
G01*
X45392812Y-41903624D01*
X45556784Y-41971544D01*
X45704354Y-42070147D01*
X45829853Y-42195646D01*
X45928456Y-42343216D01*
X45996376Y-42507188D01*
X46031000Y-42681259D01*
X46031000Y-42858741D01*
X45996376Y-43032812D01*
X45928456Y-43196784D01*
X45829853Y-43344354D01*
X45704354Y-43469853D01*
X45556784Y-43568456D01*
X45392812Y-43636376D01*
X45243512Y-43666073D01*
X45218742Y-43671000D01*
X45041258Y-43671000D01*
X45016488Y-43666073D01*
X44867188Y-43636376D01*
X44703216Y-43568456D01*
X44555646Y-43469853D01*
X44430147Y-43344354D01*
X44331544Y-43196784D01*
X44263624Y-43032812D01*
X44229000Y-42858741D01*
X44229000Y-42681259D01*
X44263624Y-42507188D01*
X44331544Y-42343216D01*
X44430147Y-42195646D01*
X44555646Y-42070147D01*
X44703216Y-41971544D01*
X44867188Y-41903624D01*
X45016488Y-41873927D01*
X45041258Y-41869000D01*
X45218742Y-41869000D01*
X45243512Y-41873927D01*
G37*
G36*
X47783512Y-41873927D02*
G01*
X47932812Y-41903624D01*
X48096784Y-41971544D01*
X48244354Y-42070147D01*
X48369853Y-42195646D01*
X48468456Y-42343216D01*
X48536376Y-42507188D01*
X48571000Y-42681259D01*
X48571000Y-42858741D01*
X48536376Y-43032812D01*
X48468456Y-43196784D01*
X48369853Y-43344354D01*
X48244354Y-43469853D01*
X48096784Y-43568456D01*
X47932812Y-43636376D01*
X47783512Y-43666073D01*
X47758742Y-43671000D01*
X47581258Y-43671000D01*
X47556488Y-43666073D01*
X47407188Y-43636376D01*
X47243216Y-43568456D01*
X47095646Y-43469853D01*
X46970147Y-43344354D01*
X46871544Y-43196784D01*
X46803624Y-43032812D01*
X46769000Y-42858741D01*
X46769000Y-42681259D01*
X46803624Y-42507188D01*
X46871544Y-42343216D01*
X46970147Y-42195646D01*
X47095646Y-42070147D01*
X47243216Y-41971544D01*
X47407188Y-41903624D01*
X47556488Y-41873927D01*
X47581258Y-41869000D01*
X47758742Y-41869000D01*
X47783512Y-41873927D01*
G37*
G36*
X60483512Y-41873927D02*
G01*
X60632812Y-41903624D01*
X60796784Y-41971544D01*
X60944354Y-42070147D01*
X61069853Y-42195646D01*
X61168456Y-42343216D01*
X61236376Y-42507188D01*
X61271000Y-42681259D01*
X61271000Y-42858741D01*
X61236376Y-43032812D01*
X61168456Y-43196784D01*
X61069853Y-43344354D01*
X60944354Y-43469853D01*
X60796784Y-43568456D01*
X60632812Y-43636376D01*
X60483512Y-43666073D01*
X60458742Y-43671000D01*
X60281258Y-43671000D01*
X60256488Y-43666073D01*
X60107188Y-43636376D01*
X59943216Y-43568456D01*
X59795646Y-43469853D01*
X59670147Y-43344354D01*
X59571544Y-43196784D01*
X59503624Y-43032812D01*
X59469000Y-42858741D01*
X59469000Y-42681259D01*
X59503624Y-42507188D01*
X59571544Y-42343216D01*
X59670147Y-42195646D01*
X59795646Y-42070147D01*
X59943216Y-41971544D01*
X60107188Y-41903624D01*
X60256488Y-41873927D01*
X60281258Y-41869000D01*
X60458742Y-41869000D01*
X60483512Y-41873927D01*
G37*
G36*
X32543512Y-41873927D02*
G01*
X32692812Y-41903624D01*
X32856784Y-41971544D01*
X33004354Y-42070147D01*
X33129853Y-42195646D01*
X33228456Y-42343216D01*
X33296376Y-42507188D01*
X33331000Y-42681259D01*
X33331000Y-42858741D01*
X33296376Y-43032812D01*
X33228456Y-43196784D01*
X33129853Y-43344354D01*
X33004354Y-43469853D01*
X32856784Y-43568456D01*
X32692812Y-43636376D01*
X32543512Y-43666073D01*
X32518742Y-43671000D01*
X32341258Y-43671000D01*
X32316488Y-43666073D01*
X32167188Y-43636376D01*
X32003216Y-43568456D01*
X31855646Y-43469853D01*
X31730147Y-43344354D01*
X31631544Y-43196784D01*
X31563624Y-43032812D01*
X31529000Y-42858741D01*
X31529000Y-42681259D01*
X31563624Y-42507188D01*
X31631544Y-42343216D01*
X31730147Y-42195646D01*
X31855646Y-42070147D01*
X32003216Y-41971544D01*
X32167188Y-41903624D01*
X32316488Y-41873927D01*
X32341258Y-41869000D01*
X32518742Y-41869000D01*
X32543512Y-41873927D01*
G37*
G36*
X50323512Y-41873927D02*
G01*
X50472812Y-41903624D01*
X50636784Y-41971544D01*
X50784354Y-42070147D01*
X50909853Y-42195646D01*
X51008456Y-42343216D01*
X51076376Y-42507188D01*
X51111000Y-42681259D01*
X51111000Y-42858741D01*
X51076376Y-43032812D01*
X51008456Y-43196784D01*
X50909853Y-43344354D01*
X50784354Y-43469853D01*
X50636784Y-43568456D01*
X50472812Y-43636376D01*
X50323512Y-43666073D01*
X50298742Y-43671000D01*
X50121258Y-43671000D01*
X50096488Y-43666073D01*
X49947188Y-43636376D01*
X49783216Y-43568456D01*
X49635646Y-43469853D01*
X49510147Y-43344354D01*
X49411544Y-43196784D01*
X49343624Y-43032812D01*
X49309000Y-42858741D01*
X49309000Y-42681259D01*
X49343624Y-42507188D01*
X49411544Y-42343216D01*
X49510147Y-42195646D01*
X49635646Y-42070147D01*
X49783216Y-41971544D01*
X49947188Y-41903624D01*
X50096488Y-41873927D01*
X50121258Y-41869000D01*
X50298742Y-41869000D01*
X50323512Y-41873927D01*
G37*
G36*
X63023512Y-41873927D02*
G01*
X63172812Y-41903624D01*
X63336784Y-41971544D01*
X63484354Y-42070147D01*
X63609853Y-42195646D01*
X63708456Y-42343216D01*
X63776376Y-42507188D01*
X63811000Y-42681259D01*
X63811000Y-42858741D01*
X63776376Y-43032812D01*
X63708456Y-43196784D01*
X63609853Y-43344354D01*
X63484354Y-43469853D01*
X63336784Y-43568456D01*
X63172812Y-43636376D01*
X63023512Y-43666073D01*
X62998742Y-43671000D01*
X62821258Y-43671000D01*
X62796488Y-43666073D01*
X62647188Y-43636376D01*
X62483216Y-43568456D01*
X62335646Y-43469853D01*
X62210147Y-43344354D01*
X62111544Y-43196784D01*
X62043624Y-43032812D01*
X62009000Y-42858741D01*
X62009000Y-42681259D01*
X62043624Y-42507188D01*
X62111544Y-42343216D01*
X62210147Y-42195646D01*
X62335646Y-42070147D01*
X62483216Y-41971544D01*
X62647188Y-41903624D01*
X62796488Y-41873927D01*
X62821258Y-41869000D01*
X62998742Y-41869000D01*
X63023512Y-41873927D01*
G37*
G36*
X24923512Y-41873927D02*
G01*
X25072812Y-41903624D01*
X25236784Y-41971544D01*
X25384354Y-42070147D01*
X25509853Y-42195646D01*
X25608456Y-42343216D01*
X25676376Y-42507188D01*
X25711000Y-42681259D01*
X25711000Y-42858741D01*
X25676376Y-43032812D01*
X25608456Y-43196784D01*
X25509853Y-43344354D01*
X25384354Y-43469853D01*
X25236784Y-43568456D01*
X25072812Y-43636376D01*
X24923512Y-43666073D01*
X24898742Y-43671000D01*
X24721258Y-43671000D01*
X24696488Y-43666073D01*
X24547188Y-43636376D01*
X24383216Y-43568456D01*
X24235646Y-43469853D01*
X24110147Y-43344354D01*
X24011544Y-43196784D01*
X23943624Y-43032812D01*
X23909000Y-42858741D01*
X23909000Y-42681259D01*
X23943624Y-42507188D01*
X24011544Y-42343216D01*
X24110147Y-42195646D01*
X24235646Y-42070147D01*
X24383216Y-41971544D01*
X24547188Y-41903624D01*
X24696488Y-41873927D01*
X24721258Y-41869000D01*
X24898742Y-41869000D01*
X24923512Y-41873927D01*
G37*
G36*
X52863512Y-41873927D02*
G01*
X53012812Y-41903624D01*
X53176784Y-41971544D01*
X53324354Y-42070147D01*
X53449853Y-42195646D01*
X53548456Y-42343216D01*
X53616376Y-42507188D01*
X53651000Y-42681259D01*
X53651000Y-42858741D01*
X53616376Y-43032812D01*
X53548456Y-43196784D01*
X53449853Y-43344354D01*
X53324354Y-43469853D01*
X53176784Y-43568456D01*
X53012812Y-43636376D01*
X52863512Y-43666073D01*
X52838742Y-43671000D01*
X52661258Y-43671000D01*
X52636488Y-43666073D01*
X52487188Y-43636376D01*
X52323216Y-43568456D01*
X52175646Y-43469853D01*
X52050147Y-43344354D01*
X51951544Y-43196784D01*
X51883624Y-43032812D01*
X51849000Y-42858741D01*
X51849000Y-42681259D01*
X51883624Y-42507188D01*
X51951544Y-42343216D01*
X52050147Y-42195646D01*
X52175646Y-42070147D01*
X52323216Y-41971544D01*
X52487188Y-41903624D01*
X52636488Y-41873927D01*
X52661258Y-41869000D01*
X52838742Y-41869000D01*
X52863512Y-41873927D01*
G37*
G36*
X55403512Y-41873927D02*
G01*
X55552812Y-41903624D01*
X55716784Y-41971544D01*
X55864354Y-42070147D01*
X55989853Y-42195646D01*
X56088456Y-42343216D01*
X56156376Y-42507188D01*
X56191000Y-42681259D01*
X56191000Y-42858741D01*
X56156376Y-43032812D01*
X56088456Y-43196784D01*
X55989853Y-43344354D01*
X55864354Y-43469853D01*
X55716784Y-43568456D01*
X55552812Y-43636376D01*
X55403512Y-43666073D01*
X55378742Y-43671000D01*
X55201258Y-43671000D01*
X55176488Y-43666073D01*
X55027188Y-43636376D01*
X54863216Y-43568456D01*
X54715646Y-43469853D01*
X54590147Y-43344354D01*
X54491544Y-43196784D01*
X54423624Y-43032812D01*
X54389000Y-42858741D01*
X54389000Y-42681259D01*
X54423624Y-42507188D01*
X54491544Y-42343216D01*
X54590147Y-42195646D01*
X54715646Y-42070147D01*
X54863216Y-41971544D01*
X55027188Y-41903624D01*
X55176488Y-41873927D01*
X55201258Y-41869000D01*
X55378742Y-41869000D01*
X55403512Y-41873927D01*
G37*
G36*
X65563512Y-41873927D02*
G01*
X65712812Y-41903624D01*
X65876784Y-41971544D01*
X66024354Y-42070147D01*
X66149853Y-42195646D01*
X66248456Y-42343216D01*
X66316376Y-42507188D01*
X66351000Y-42681259D01*
X66351000Y-42858741D01*
X66316376Y-43032812D01*
X66248456Y-43196784D01*
X66149853Y-43344354D01*
X66024354Y-43469853D01*
X65876784Y-43568456D01*
X65712812Y-43636376D01*
X65563512Y-43666073D01*
X65538742Y-43671000D01*
X65361258Y-43671000D01*
X65336488Y-43666073D01*
X65187188Y-43636376D01*
X65023216Y-43568456D01*
X64875646Y-43469853D01*
X64750147Y-43344354D01*
X64651544Y-43196784D01*
X64583624Y-43032812D01*
X64549000Y-42858741D01*
X64549000Y-42681259D01*
X64583624Y-42507188D01*
X64651544Y-42343216D01*
X64750147Y-42195646D01*
X64875646Y-42070147D01*
X65023216Y-41971544D01*
X65187188Y-41903624D01*
X65336488Y-41873927D01*
X65361258Y-41869000D01*
X65538742Y-41869000D01*
X65563512Y-41873927D01*
G37*
G36*
X68103512Y-41873927D02*
G01*
X68252812Y-41903624D01*
X68416784Y-41971544D01*
X68564354Y-42070147D01*
X68689853Y-42195646D01*
X68788456Y-42343216D01*
X68856376Y-42507188D01*
X68891000Y-42681259D01*
X68891000Y-42858741D01*
X68856376Y-43032812D01*
X68788456Y-43196784D01*
X68689853Y-43344354D01*
X68564354Y-43469853D01*
X68416784Y-43568456D01*
X68252812Y-43636376D01*
X68103512Y-43666073D01*
X68078742Y-43671000D01*
X67901258Y-43671000D01*
X67876488Y-43666073D01*
X67727188Y-43636376D01*
X67563216Y-43568456D01*
X67415646Y-43469853D01*
X67290147Y-43344354D01*
X67191544Y-43196784D01*
X67123624Y-43032812D01*
X67089000Y-42858741D01*
X67089000Y-42681259D01*
X67123624Y-42507188D01*
X67191544Y-42343216D01*
X67290147Y-42195646D01*
X67415646Y-42070147D01*
X67563216Y-41971544D01*
X67727188Y-41903624D01*
X67876488Y-41873927D01*
X67901258Y-41869000D01*
X68078742Y-41869000D01*
X68103512Y-41873927D01*
G37*
G36*
X22383512Y-41873927D02*
G01*
X22532812Y-41903624D01*
X22696784Y-41971544D01*
X22844354Y-42070147D01*
X22969853Y-42195646D01*
X23068456Y-42343216D01*
X23136376Y-42507188D01*
X23171000Y-42681259D01*
X23171000Y-42858741D01*
X23136376Y-43032812D01*
X23068456Y-43196784D01*
X22969853Y-43344354D01*
X22844354Y-43469853D01*
X22696784Y-43568456D01*
X22532812Y-43636376D01*
X22383512Y-43666073D01*
X22358742Y-43671000D01*
X22181258Y-43671000D01*
X22156488Y-43666073D01*
X22007188Y-43636376D01*
X21843216Y-43568456D01*
X21695646Y-43469853D01*
X21570147Y-43344354D01*
X21471544Y-43196784D01*
X21403624Y-43032812D01*
X21369000Y-42858741D01*
X21369000Y-42681259D01*
X21403624Y-42507188D01*
X21471544Y-42343216D01*
X21570147Y-42195646D01*
X21695646Y-42070147D01*
X21843216Y-41971544D01*
X22007188Y-41903624D01*
X22156488Y-41873927D01*
X22181258Y-41869000D01*
X22358742Y-41869000D01*
X22383512Y-41873927D01*
G37*
G36*
X70643512Y-41873927D02*
G01*
X70792812Y-41903624D01*
X70956784Y-41971544D01*
X71104354Y-42070147D01*
X71229853Y-42195646D01*
X71328456Y-42343216D01*
X71396376Y-42507188D01*
X71431000Y-42681259D01*
X71431000Y-42858741D01*
X71396376Y-43032812D01*
X71328456Y-43196784D01*
X71229853Y-43344354D01*
X71104354Y-43469853D01*
X70956784Y-43568456D01*
X70792812Y-43636376D01*
X70643512Y-43666073D01*
X70618742Y-43671000D01*
X70441258Y-43671000D01*
X70416488Y-43666073D01*
X70267188Y-43636376D01*
X70103216Y-43568456D01*
X69955646Y-43469853D01*
X69830147Y-43344354D01*
X69731544Y-43196784D01*
X69663624Y-43032812D01*
X69629000Y-42858741D01*
X69629000Y-42681259D01*
X69663624Y-42507188D01*
X69731544Y-42343216D01*
X69830147Y-42195646D01*
X69955646Y-42070147D01*
X70103216Y-41971544D01*
X70267188Y-41903624D01*
X70416488Y-41873927D01*
X70441258Y-41869000D01*
X70618742Y-41869000D01*
X70643512Y-41873927D01*
G37*
G36*
X75925331Y-39768211D02*
G01*
X76253092Y-39903974D01*
X76548070Y-40101072D01*
X76798928Y-40351930D01*
X76996026Y-40646908D01*
X77131789Y-40974669D01*
X77201000Y-41322616D01*
X77201000Y-41677384D01*
X77131789Y-42025331D01*
X76996026Y-42353092D01*
X76798928Y-42648070D01*
X76548070Y-42898928D01*
X76253092Y-43096026D01*
X75925331Y-43231789D01*
X75577384Y-43301000D01*
X75222616Y-43301000D01*
X74874669Y-43231789D01*
X74546908Y-43096026D01*
X74251930Y-42898928D01*
X74001072Y-42648070D01*
X73803974Y-42353092D01*
X73668211Y-42025331D01*
X73599000Y-41677384D01*
X73599000Y-41322616D01*
X73668211Y-40974669D01*
X73803974Y-40646908D01*
X74001072Y-40351930D01*
X74251930Y-40101072D01*
X74546908Y-39903974D01*
X74874669Y-39768211D01*
X75222616Y-39699000D01*
X75577384Y-39699000D01*
X75925331Y-39768211D01*
G37*
G36*
X17925331Y-39768211D02*
G01*
X18253092Y-39903974D01*
X18548070Y-40101072D01*
X18798928Y-40351930D01*
X18996026Y-40646908D01*
X19131789Y-40974669D01*
X19201000Y-41322616D01*
X19201000Y-41677384D01*
X19131789Y-42025331D01*
X18996026Y-42353092D01*
X18798928Y-42648070D01*
X18548070Y-42898928D01*
X18253092Y-43096026D01*
X17925331Y-43231789D01*
X17577384Y-43301000D01*
X17222616Y-43301000D01*
X16874669Y-43231789D01*
X16546908Y-43096026D01*
X16251930Y-42898928D01*
X16001072Y-42648070D01*
X15803974Y-42353092D01*
X15668211Y-42025331D01*
X15599000Y-41677384D01*
X15599000Y-41322616D01*
X15668211Y-40974669D01*
X15803974Y-40646908D01*
X16001072Y-40351930D01*
X16251930Y-40101072D01*
X16546908Y-39903974D01*
X16874669Y-39768211D01*
X17222616Y-39699000D01*
X17577384Y-39699000D01*
X17925331Y-39768211D01*
G37*
G36*
X50323512Y-39333927D02*
G01*
X50472812Y-39363624D01*
X50636784Y-39431544D01*
X50784354Y-39530147D01*
X50909853Y-39655646D01*
X51008456Y-39803216D01*
X51076376Y-39967188D01*
X51111000Y-40141259D01*
X51111000Y-40318741D01*
X51076376Y-40492812D01*
X51008456Y-40656784D01*
X50909853Y-40804354D01*
X50784354Y-40929853D01*
X50636784Y-41028456D01*
X50472812Y-41096376D01*
X50323512Y-41126073D01*
X50298742Y-41131000D01*
X50121258Y-41131000D01*
X50096488Y-41126073D01*
X49947188Y-41096376D01*
X49783216Y-41028456D01*
X49635646Y-40929853D01*
X49510147Y-40804354D01*
X49411544Y-40656784D01*
X49343624Y-40492812D01*
X49309000Y-40318741D01*
X49309000Y-40141259D01*
X49343624Y-39967188D01*
X49411544Y-39803216D01*
X49510147Y-39655646D01*
X49635646Y-39530147D01*
X49783216Y-39431544D01*
X49947188Y-39363624D01*
X50096488Y-39333927D01*
X50121258Y-39329000D01*
X50298742Y-39329000D01*
X50323512Y-39333927D01*
G37*
G36*
X37623512Y-39333927D02*
G01*
X37772812Y-39363624D01*
X37936784Y-39431544D01*
X38084354Y-39530147D01*
X38209853Y-39655646D01*
X38308456Y-39803216D01*
X38376376Y-39967188D01*
X38411000Y-40141259D01*
X38411000Y-40318741D01*
X38376376Y-40492812D01*
X38308456Y-40656784D01*
X38209853Y-40804354D01*
X38084354Y-40929853D01*
X37936784Y-41028456D01*
X37772812Y-41096376D01*
X37623512Y-41126073D01*
X37598742Y-41131000D01*
X37421258Y-41131000D01*
X37396488Y-41126073D01*
X37247188Y-41096376D01*
X37083216Y-41028456D01*
X36935646Y-40929853D01*
X36810147Y-40804354D01*
X36711544Y-40656784D01*
X36643624Y-40492812D01*
X36609000Y-40318741D01*
X36609000Y-40141259D01*
X36643624Y-39967188D01*
X36711544Y-39803216D01*
X36810147Y-39655646D01*
X36935646Y-39530147D01*
X37083216Y-39431544D01*
X37247188Y-39363624D01*
X37396488Y-39333927D01*
X37421258Y-39329000D01*
X37598742Y-39329000D01*
X37623512Y-39333927D01*
G37*
G36*
X40163512Y-39333927D02*
G01*
X40312812Y-39363624D01*
X40476784Y-39431544D01*
X40624354Y-39530147D01*
X40749853Y-39655646D01*
X40848456Y-39803216D01*
X40916376Y-39967188D01*
X40951000Y-40141259D01*
X40951000Y-40318741D01*
X40916376Y-40492812D01*
X40848456Y-40656784D01*
X40749853Y-40804354D01*
X40624354Y-40929853D01*
X40476784Y-41028456D01*
X40312812Y-41096376D01*
X40163512Y-41126073D01*
X40138742Y-41131000D01*
X39961258Y-41131000D01*
X39936488Y-41126073D01*
X39787188Y-41096376D01*
X39623216Y-41028456D01*
X39475646Y-40929853D01*
X39350147Y-40804354D01*
X39251544Y-40656784D01*
X39183624Y-40492812D01*
X39149000Y-40318741D01*
X39149000Y-40141259D01*
X39183624Y-39967188D01*
X39251544Y-39803216D01*
X39350147Y-39655646D01*
X39475646Y-39530147D01*
X39623216Y-39431544D01*
X39787188Y-39363624D01*
X39936488Y-39333927D01*
X39961258Y-39329000D01*
X40138742Y-39329000D01*
X40163512Y-39333927D01*
G37*
G36*
X42703512Y-39333927D02*
G01*
X42852812Y-39363624D01*
X43016784Y-39431544D01*
X43164354Y-39530147D01*
X43289853Y-39655646D01*
X43388456Y-39803216D01*
X43456376Y-39967188D01*
X43491000Y-40141259D01*
X43491000Y-40318741D01*
X43456376Y-40492812D01*
X43388456Y-40656784D01*
X43289853Y-40804354D01*
X43164354Y-40929853D01*
X43016784Y-41028456D01*
X42852812Y-41096376D01*
X42703512Y-41126073D01*
X42678742Y-41131000D01*
X42501258Y-41131000D01*
X42476488Y-41126073D01*
X42327188Y-41096376D01*
X42163216Y-41028456D01*
X42015646Y-40929853D01*
X41890147Y-40804354D01*
X41791544Y-40656784D01*
X41723624Y-40492812D01*
X41689000Y-40318741D01*
X41689000Y-40141259D01*
X41723624Y-39967188D01*
X41791544Y-39803216D01*
X41890147Y-39655646D01*
X42015646Y-39530147D01*
X42163216Y-39431544D01*
X42327188Y-39363624D01*
X42476488Y-39333927D01*
X42501258Y-39329000D01*
X42678742Y-39329000D01*
X42703512Y-39333927D01*
G37*
G36*
X32543512Y-39333927D02*
G01*
X32692812Y-39363624D01*
X32856784Y-39431544D01*
X33004354Y-39530147D01*
X33129853Y-39655646D01*
X33228456Y-39803216D01*
X33296376Y-39967188D01*
X33331000Y-40141259D01*
X33331000Y-40318741D01*
X33296376Y-40492812D01*
X33228456Y-40656784D01*
X33129853Y-40804354D01*
X33004354Y-40929853D01*
X32856784Y-41028456D01*
X32692812Y-41096376D01*
X32543512Y-41126073D01*
X32518742Y-41131000D01*
X32341258Y-41131000D01*
X32316488Y-41126073D01*
X32167188Y-41096376D01*
X32003216Y-41028456D01*
X31855646Y-40929853D01*
X31730147Y-40804354D01*
X31631544Y-40656784D01*
X31563624Y-40492812D01*
X31529000Y-40318741D01*
X31529000Y-40141259D01*
X31563624Y-39967188D01*
X31631544Y-39803216D01*
X31730147Y-39655646D01*
X31855646Y-39530147D01*
X32003216Y-39431544D01*
X32167188Y-39363624D01*
X32316488Y-39333927D01*
X32341258Y-39329000D01*
X32518742Y-39329000D01*
X32543512Y-39333927D01*
G37*
G36*
X30003512Y-39333927D02*
G01*
X30152812Y-39363624D01*
X30316784Y-39431544D01*
X30464354Y-39530147D01*
X30589853Y-39655646D01*
X30688456Y-39803216D01*
X30756376Y-39967188D01*
X30791000Y-40141259D01*
X30791000Y-40318741D01*
X30756376Y-40492812D01*
X30688456Y-40656784D01*
X30589853Y-40804354D01*
X30464354Y-40929853D01*
X30316784Y-41028456D01*
X30152812Y-41096376D01*
X30003512Y-41126073D01*
X29978742Y-41131000D01*
X29801258Y-41131000D01*
X29776488Y-41126073D01*
X29627188Y-41096376D01*
X29463216Y-41028456D01*
X29315646Y-40929853D01*
X29190147Y-40804354D01*
X29091544Y-40656784D01*
X29023624Y-40492812D01*
X28989000Y-40318741D01*
X28989000Y-40141259D01*
X29023624Y-39967188D01*
X29091544Y-39803216D01*
X29190147Y-39655646D01*
X29315646Y-39530147D01*
X29463216Y-39431544D01*
X29627188Y-39363624D01*
X29776488Y-39333927D01*
X29801258Y-39329000D01*
X29978742Y-39329000D01*
X30003512Y-39333927D01*
G37*
G36*
X27463512Y-39333927D02*
G01*
X27612812Y-39363624D01*
X27776784Y-39431544D01*
X27924354Y-39530147D01*
X28049853Y-39655646D01*
X28148456Y-39803216D01*
X28216376Y-39967188D01*
X28251000Y-40141259D01*
X28251000Y-40318741D01*
X28216376Y-40492812D01*
X28148456Y-40656784D01*
X28049853Y-40804354D01*
X27924354Y-40929853D01*
X27776784Y-41028456D01*
X27612812Y-41096376D01*
X27463512Y-41126073D01*
X27438742Y-41131000D01*
X27261258Y-41131000D01*
X27236488Y-41126073D01*
X27087188Y-41096376D01*
X26923216Y-41028456D01*
X26775646Y-40929853D01*
X26650147Y-40804354D01*
X26551544Y-40656784D01*
X26483624Y-40492812D01*
X26449000Y-40318741D01*
X26449000Y-40141259D01*
X26483624Y-39967188D01*
X26551544Y-39803216D01*
X26650147Y-39655646D01*
X26775646Y-39530147D01*
X26923216Y-39431544D01*
X27087188Y-39363624D01*
X27236488Y-39333927D01*
X27261258Y-39329000D01*
X27438742Y-39329000D01*
X27463512Y-39333927D01*
G37*
G36*
X24923512Y-39333927D02*
G01*
X25072812Y-39363624D01*
X25236784Y-39431544D01*
X25384354Y-39530147D01*
X25509853Y-39655646D01*
X25608456Y-39803216D01*
X25676376Y-39967188D01*
X25711000Y-40141259D01*
X25711000Y-40318741D01*
X25676376Y-40492812D01*
X25608456Y-40656784D01*
X25509853Y-40804354D01*
X25384354Y-40929853D01*
X25236784Y-41028456D01*
X25072812Y-41096376D01*
X24923512Y-41126073D01*
X24898742Y-41131000D01*
X24721258Y-41131000D01*
X24696488Y-41126073D01*
X24547188Y-41096376D01*
X24383216Y-41028456D01*
X24235646Y-40929853D01*
X24110147Y-40804354D01*
X24011544Y-40656784D01*
X23943624Y-40492812D01*
X23909000Y-40318741D01*
X23909000Y-40141259D01*
X23943624Y-39967188D01*
X24011544Y-39803216D01*
X24110147Y-39655646D01*
X24235646Y-39530147D01*
X24383216Y-39431544D01*
X24547188Y-39363624D01*
X24696488Y-39333927D01*
X24721258Y-39329000D01*
X24898742Y-39329000D01*
X24923512Y-39333927D01*
G37*
G36*
X22383512Y-39333927D02*
G01*
X22532812Y-39363624D01*
X22696784Y-39431544D01*
X22844354Y-39530147D01*
X22969853Y-39655646D01*
X23068456Y-39803216D01*
X23136376Y-39967188D01*
X23171000Y-40141259D01*
X23171000Y-40318741D01*
X23136376Y-40492812D01*
X23068456Y-40656784D01*
X22969853Y-40804354D01*
X22844354Y-40929853D01*
X22696784Y-41028456D01*
X22532812Y-41096376D01*
X22383512Y-41126073D01*
X22358742Y-41131000D01*
X22181258Y-41131000D01*
X22156488Y-41126073D01*
X22007188Y-41096376D01*
X21843216Y-41028456D01*
X21695646Y-40929853D01*
X21570147Y-40804354D01*
X21471544Y-40656784D01*
X21403624Y-40492812D01*
X21369000Y-40318741D01*
X21369000Y-40141259D01*
X21403624Y-39967188D01*
X21471544Y-39803216D01*
X21570147Y-39655646D01*
X21695646Y-39530147D01*
X21843216Y-39431544D01*
X22007188Y-39363624D01*
X22156488Y-39333927D01*
X22181258Y-39329000D01*
X22358742Y-39329000D01*
X22383512Y-39333927D01*
G37*
G36*
X71431000Y-41131000D02*
G01*
X69629000Y-41131000D01*
X69629000Y-39329000D01*
X71431000Y-39329000D01*
X71431000Y-41131000D01*
G37*
G36*
X68103512Y-39333927D02*
G01*
X68252812Y-39363624D01*
X68416784Y-39431544D01*
X68564354Y-39530147D01*
X68689853Y-39655646D01*
X68788456Y-39803216D01*
X68856376Y-39967188D01*
X68891000Y-40141259D01*
X68891000Y-40318741D01*
X68856376Y-40492812D01*
X68788456Y-40656784D01*
X68689853Y-40804354D01*
X68564354Y-40929853D01*
X68416784Y-41028456D01*
X68252812Y-41096376D01*
X68103512Y-41126073D01*
X68078742Y-41131000D01*
X67901258Y-41131000D01*
X67876488Y-41126073D01*
X67727188Y-41096376D01*
X67563216Y-41028456D01*
X67415646Y-40929853D01*
X67290147Y-40804354D01*
X67191544Y-40656784D01*
X67123624Y-40492812D01*
X67089000Y-40318741D01*
X67089000Y-40141259D01*
X67123624Y-39967188D01*
X67191544Y-39803216D01*
X67290147Y-39655646D01*
X67415646Y-39530147D01*
X67563216Y-39431544D01*
X67727188Y-39363624D01*
X67876488Y-39333927D01*
X67901258Y-39329000D01*
X68078742Y-39329000D01*
X68103512Y-39333927D01*
G37*
G36*
X45243512Y-39333927D02*
G01*
X45392812Y-39363624D01*
X45556784Y-39431544D01*
X45704354Y-39530147D01*
X45829853Y-39655646D01*
X45928456Y-39803216D01*
X45996376Y-39967188D01*
X46031000Y-40141259D01*
X46031000Y-40318741D01*
X45996376Y-40492812D01*
X45928456Y-40656784D01*
X45829853Y-40804354D01*
X45704354Y-40929853D01*
X45556784Y-41028456D01*
X45392812Y-41096376D01*
X45243512Y-41126073D01*
X45218742Y-41131000D01*
X45041258Y-41131000D01*
X45016488Y-41126073D01*
X44867188Y-41096376D01*
X44703216Y-41028456D01*
X44555646Y-40929853D01*
X44430147Y-40804354D01*
X44331544Y-40656784D01*
X44263624Y-40492812D01*
X44229000Y-40318741D01*
X44229000Y-40141259D01*
X44263624Y-39967188D01*
X44331544Y-39803216D01*
X44430147Y-39655646D01*
X44555646Y-39530147D01*
X44703216Y-39431544D01*
X44867188Y-39363624D01*
X45016488Y-39333927D01*
X45041258Y-39329000D01*
X45218742Y-39329000D01*
X45243512Y-39333927D01*
G37*
G36*
X65563512Y-39333927D02*
G01*
X65712812Y-39363624D01*
X65876784Y-39431544D01*
X66024354Y-39530147D01*
X66149853Y-39655646D01*
X66248456Y-39803216D01*
X66316376Y-39967188D01*
X66351000Y-40141259D01*
X66351000Y-40318741D01*
X66316376Y-40492812D01*
X66248456Y-40656784D01*
X66149853Y-40804354D01*
X66024354Y-40929853D01*
X65876784Y-41028456D01*
X65712812Y-41096376D01*
X65563512Y-41126073D01*
X65538742Y-41131000D01*
X65361258Y-41131000D01*
X65336488Y-41126073D01*
X65187188Y-41096376D01*
X65023216Y-41028456D01*
X64875646Y-40929853D01*
X64750147Y-40804354D01*
X64651544Y-40656784D01*
X64583624Y-40492812D01*
X64549000Y-40318741D01*
X64549000Y-40141259D01*
X64583624Y-39967188D01*
X64651544Y-39803216D01*
X64750147Y-39655646D01*
X64875646Y-39530147D01*
X65023216Y-39431544D01*
X65187188Y-39363624D01*
X65336488Y-39333927D01*
X65361258Y-39329000D01*
X65538742Y-39329000D01*
X65563512Y-39333927D01*
G37*
G36*
X47783512Y-39333927D02*
G01*
X47932812Y-39363624D01*
X48096784Y-39431544D01*
X48244354Y-39530147D01*
X48369853Y-39655646D01*
X48468456Y-39803216D01*
X48536376Y-39967188D01*
X48571000Y-40141259D01*
X48571000Y-40318741D01*
X48536376Y-40492812D01*
X48468456Y-40656784D01*
X48369853Y-40804354D01*
X48244354Y-40929853D01*
X48096784Y-41028456D01*
X47932812Y-41096376D01*
X47783512Y-41126073D01*
X47758742Y-41131000D01*
X47581258Y-41131000D01*
X47556488Y-41126073D01*
X47407188Y-41096376D01*
X47243216Y-41028456D01*
X47095646Y-40929853D01*
X46970147Y-40804354D01*
X46871544Y-40656784D01*
X46803624Y-40492812D01*
X46769000Y-40318741D01*
X46769000Y-40141259D01*
X46803624Y-39967188D01*
X46871544Y-39803216D01*
X46970147Y-39655646D01*
X47095646Y-39530147D01*
X47243216Y-39431544D01*
X47407188Y-39363624D01*
X47556488Y-39333927D01*
X47581258Y-39329000D01*
X47758742Y-39329000D01*
X47783512Y-39333927D01*
G37*
G36*
X63023512Y-39333927D02*
G01*
X63172812Y-39363624D01*
X63336784Y-39431544D01*
X63484354Y-39530147D01*
X63609853Y-39655646D01*
X63708456Y-39803216D01*
X63776376Y-39967188D01*
X63811000Y-40141259D01*
X63811000Y-40318741D01*
X63776376Y-40492812D01*
X63708456Y-40656784D01*
X63609853Y-40804354D01*
X63484354Y-40929853D01*
X63336784Y-41028456D01*
X63172812Y-41096376D01*
X63023512Y-41126073D01*
X62998742Y-41131000D01*
X62821258Y-41131000D01*
X62796488Y-41126073D01*
X62647188Y-41096376D01*
X62483216Y-41028456D01*
X62335646Y-40929853D01*
X62210147Y-40804354D01*
X62111544Y-40656784D01*
X62043624Y-40492812D01*
X62009000Y-40318741D01*
X62009000Y-40141259D01*
X62043624Y-39967188D01*
X62111544Y-39803216D01*
X62210147Y-39655646D01*
X62335646Y-39530147D01*
X62483216Y-39431544D01*
X62647188Y-39363624D01*
X62796488Y-39333927D01*
X62821258Y-39329000D01*
X62998742Y-39329000D01*
X63023512Y-39333927D01*
G37*
G36*
X60483512Y-39333927D02*
G01*
X60632812Y-39363624D01*
X60796784Y-39431544D01*
X60944354Y-39530147D01*
X61069853Y-39655646D01*
X61168456Y-39803216D01*
X61236376Y-39967188D01*
X61271000Y-40141259D01*
X61271000Y-40318741D01*
X61236376Y-40492812D01*
X61168456Y-40656784D01*
X61069853Y-40804354D01*
X60944354Y-40929853D01*
X60796784Y-41028456D01*
X60632812Y-41096376D01*
X60483512Y-41126073D01*
X60458742Y-41131000D01*
X60281258Y-41131000D01*
X60256488Y-41126073D01*
X60107188Y-41096376D01*
X59943216Y-41028456D01*
X59795646Y-40929853D01*
X59670147Y-40804354D01*
X59571544Y-40656784D01*
X59503624Y-40492812D01*
X59469000Y-40318741D01*
X59469000Y-40141259D01*
X59503624Y-39967188D01*
X59571544Y-39803216D01*
X59670147Y-39655646D01*
X59795646Y-39530147D01*
X59943216Y-39431544D01*
X60107188Y-39363624D01*
X60256488Y-39333927D01*
X60281258Y-39329000D01*
X60458742Y-39329000D01*
X60483512Y-39333927D01*
G37*
G36*
X57943512Y-39333927D02*
G01*
X58092812Y-39363624D01*
X58256784Y-39431544D01*
X58404354Y-39530147D01*
X58529853Y-39655646D01*
X58628456Y-39803216D01*
X58696376Y-39967188D01*
X58731000Y-40141259D01*
X58731000Y-40318741D01*
X58696376Y-40492812D01*
X58628456Y-40656784D01*
X58529853Y-40804354D01*
X58404354Y-40929853D01*
X58256784Y-41028456D01*
X58092812Y-41096376D01*
X57943512Y-41126073D01*
X57918742Y-41131000D01*
X57741258Y-41131000D01*
X57716488Y-41126073D01*
X57567188Y-41096376D01*
X57403216Y-41028456D01*
X57255646Y-40929853D01*
X57130147Y-40804354D01*
X57031544Y-40656784D01*
X56963624Y-40492812D01*
X56929000Y-40318741D01*
X56929000Y-40141259D01*
X56963624Y-39967188D01*
X57031544Y-39803216D01*
X57130147Y-39655646D01*
X57255646Y-39530147D01*
X57403216Y-39431544D01*
X57567188Y-39363624D01*
X57716488Y-39333927D01*
X57741258Y-39329000D01*
X57918742Y-39329000D01*
X57943512Y-39333927D01*
G37*
G36*
X55403512Y-39333927D02*
G01*
X55552812Y-39363624D01*
X55716784Y-39431544D01*
X55864354Y-39530147D01*
X55989853Y-39655646D01*
X56088456Y-39803216D01*
X56156376Y-39967188D01*
X56191000Y-40141259D01*
X56191000Y-40318741D01*
X56156376Y-40492812D01*
X56088456Y-40656784D01*
X55989853Y-40804354D01*
X55864354Y-40929853D01*
X55716784Y-41028456D01*
X55552812Y-41096376D01*
X55403512Y-41126073D01*
X55378742Y-41131000D01*
X55201258Y-41131000D01*
X55176488Y-41126073D01*
X55027188Y-41096376D01*
X54863216Y-41028456D01*
X54715646Y-40929853D01*
X54590147Y-40804354D01*
X54491544Y-40656784D01*
X54423624Y-40492812D01*
X54389000Y-40318741D01*
X54389000Y-40141259D01*
X54423624Y-39967188D01*
X54491544Y-39803216D01*
X54590147Y-39655646D01*
X54715646Y-39530147D01*
X54863216Y-39431544D01*
X55027188Y-39363624D01*
X55176488Y-39333927D01*
X55201258Y-39329000D01*
X55378742Y-39329000D01*
X55403512Y-39333927D01*
G37*
G36*
X52863512Y-39333927D02*
G01*
X53012812Y-39363624D01*
X53176784Y-39431544D01*
X53324354Y-39530147D01*
X53449853Y-39655646D01*
X53548456Y-39803216D01*
X53616376Y-39967188D01*
X53651000Y-40141259D01*
X53651000Y-40318741D01*
X53616376Y-40492812D01*
X53548456Y-40656784D01*
X53449853Y-40804354D01*
X53324354Y-40929853D01*
X53176784Y-41028456D01*
X53012812Y-41096376D01*
X52863512Y-41126073D01*
X52838742Y-41131000D01*
X52661258Y-41131000D01*
X52636488Y-41126073D01*
X52487188Y-41096376D01*
X52323216Y-41028456D01*
X52175646Y-40929853D01*
X52050147Y-40804354D01*
X51951544Y-40656784D01*
X51883624Y-40492812D01*
X51849000Y-40318741D01*
X51849000Y-40141259D01*
X51883624Y-39967188D01*
X51951544Y-39803216D01*
X52050147Y-39655646D01*
X52175646Y-39530147D01*
X52323216Y-39431544D01*
X52487188Y-39363624D01*
X52636488Y-39333927D01*
X52661258Y-39329000D01*
X52838742Y-39329000D01*
X52863512Y-39333927D01*
G37*
G36*
X35083512Y-39333927D02*
G01*
X35232812Y-39363624D01*
X35396784Y-39431544D01*
X35544354Y-39530147D01*
X35669853Y-39655646D01*
X35768456Y-39803216D01*
X35836376Y-39967188D01*
X35871000Y-40141259D01*
X35871000Y-40318741D01*
X35836376Y-40492812D01*
X35768456Y-40656784D01*
X35669853Y-40804354D01*
X35544354Y-40929853D01*
X35396784Y-41028456D01*
X35232812Y-41096376D01*
X35083512Y-41126073D01*
X35058742Y-41131000D01*
X34881258Y-41131000D01*
X34856488Y-41126073D01*
X34707188Y-41096376D01*
X34543216Y-41028456D01*
X34395646Y-40929853D01*
X34270147Y-40804354D01*
X34171544Y-40656784D01*
X34103624Y-40492812D01*
X34069000Y-40318741D01*
X34069000Y-40141259D01*
X34103624Y-39967188D01*
X34171544Y-39803216D01*
X34270147Y-39655646D01*
X34395646Y-39530147D01*
X34543216Y-39431544D01*
X34707188Y-39363624D01*
X34856488Y-39333927D01*
X34881258Y-39329000D01*
X35058742Y-39329000D01*
X35083512Y-39333927D01*
G37*
G36*
X83074549Y-28591116D02*
G01*
X83185734Y-28613232D01*
X83395203Y-28699997D01*
X83583720Y-28825960D01*
X83744040Y-28986280D01*
X83870003Y-29174797D01*
X83956768Y-29384266D01*
X84001000Y-29606636D01*
X84001000Y-29833364D01*
X83956768Y-30055734D01*
X83870003Y-30265203D01*
X83744040Y-30453720D01*
X83583720Y-30614040D01*
X83395203Y-30740003D01*
X83185734Y-30826768D01*
X83074549Y-30848884D01*
X82963365Y-30871000D01*
X82736635Y-30871000D01*
X82625451Y-30848884D01*
X82514266Y-30826768D01*
X82304797Y-30740003D01*
X82116280Y-30614040D01*
X81955960Y-30453720D01*
X81829997Y-30265203D01*
X81743232Y-30055734D01*
X81699000Y-29833364D01*
X81699000Y-29606636D01*
X81743232Y-29384266D01*
X81829997Y-29174797D01*
X81955960Y-28986280D01*
X82116280Y-28825960D01*
X82304797Y-28699997D01*
X82514266Y-28613232D01*
X82625451Y-28591116D01*
X82736635Y-28569000D01*
X82963365Y-28569000D01*
X83074549Y-28591116D01*
G37*
G36*
X10174549Y-28591116D02*
G01*
X10285734Y-28613232D01*
X10495203Y-28699997D01*
X10683720Y-28825960D01*
X10844040Y-28986280D01*
X10970003Y-29174797D01*
X11056768Y-29384266D01*
X11101000Y-29606636D01*
X11101000Y-29833364D01*
X11056768Y-30055734D01*
X10970003Y-30265203D01*
X10844040Y-30453720D01*
X10683720Y-30614040D01*
X10495203Y-30740003D01*
X10285734Y-30826768D01*
X10174549Y-30848884D01*
X10063365Y-30871000D01*
X9836635Y-30871000D01*
X9725451Y-30848884D01*
X9614266Y-30826768D01*
X9404797Y-30740003D01*
X9216280Y-30614040D01*
X9055960Y-30453720D01*
X8929997Y-30265203D01*
X8843232Y-30055734D01*
X8799000Y-29833364D01*
X8799000Y-29606636D01*
X8843232Y-29384266D01*
X8929997Y-29174797D01*
X9055960Y-28986280D01*
X9216280Y-28825960D01*
X9404797Y-28699997D01*
X9614266Y-28613232D01*
X9725451Y-28591116D01*
X9836635Y-28569000D01*
X10063365Y-28569000D01*
X10174549Y-28591116D01*
G37*
G36*
X75925331Y-16768211D02*
G01*
X76253092Y-16903974D01*
X76548070Y-17101072D01*
X76798928Y-17351930D01*
X76996026Y-17646908D01*
X77131789Y-17974669D01*
X77201000Y-18322616D01*
X77201000Y-18677384D01*
X77131789Y-19025331D01*
X76996026Y-19353092D01*
X76798928Y-19648070D01*
X76548070Y-19898928D01*
X76253092Y-20096026D01*
X75925331Y-20231789D01*
X75577384Y-20301000D01*
X75222616Y-20301000D01*
X74874669Y-20231789D01*
X74546908Y-20096026D01*
X74251930Y-19898928D01*
X74001072Y-19648070D01*
X73803974Y-19353092D01*
X73668211Y-19025331D01*
X73599000Y-18677384D01*
X73599000Y-18322616D01*
X73668211Y-17974669D01*
X73803974Y-17646908D01*
X74001072Y-17351930D01*
X74251930Y-17101072D01*
X74546908Y-16903974D01*
X74874669Y-16768211D01*
X75222616Y-16699000D01*
X75577384Y-16699000D01*
X75925331Y-16768211D01*
G37*
G36*
X17925331Y-16768211D02*
G01*
X18253092Y-16903974D01*
X18548070Y-17101072D01*
X18798928Y-17351930D01*
X18996026Y-17646908D01*
X19131789Y-17974669D01*
X19201000Y-18322616D01*
X19201000Y-18677384D01*
X19131789Y-19025331D01*
X18996026Y-19353092D01*
X18798928Y-19648070D01*
X18548070Y-19898928D01*
X18253092Y-20096026D01*
X17925331Y-20231789D01*
X17577384Y-20301000D01*
X17222616Y-20301000D01*
X16874669Y-20231789D01*
X16546908Y-20096026D01*
X16251930Y-19898928D01*
X16001072Y-19648070D01*
X15803974Y-19353092D01*
X15668211Y-19025331D01*
X15599000Y-18677384D01*
X15599000Y-18322616D01*
X15668211Y-17974669D01*
X15803974Y-17646908D01*
X16001072Y-17351930D01*
X16251930Y-17101072D01*
X16546908Y-16903974D01*
X16874669Y-16768211D01*
X17222616Y-16699000D01*
X17577384Y-16699000D01*
X17925331Y-16768211D01*
G37*
G36*
X10174549Y-9291116D02*
G01*
X10285734Y-9313232D01*
X10495203Y-9399997D01*
X10683720Y-9525960D01*
X10844040Y-9686280D01*
X10970003Y-9874797D01*
X11056768Y-10084266D01*
X11101000Y-10306636D01*
X11101000Y-10533364D01*
X11056768Y-10755734D01*
X10970003Y-10965203D01*
X10844040Y-11153720D01*
X10683720Y-11314040D01*
X10495203Y-11440003D01*
X10285734Y-11526768D01*
X10174549Y-11548884D01*
X10063365Y-11571000D01*
X9836635Y-11571000D01*
X9725451Y-11548884D01*
X9614266Y-11526768D01*
X9404797Y-11440003D01*
X9216280Y-11314040D01*
X9055960Y-11153720D01*
X8929997Y-10965203D01*
X8843232Y-10755734D01*
X8799000Y-10533364D01*
X8799000Y-10306636D01*
X8843232Y-10084266D01*
X8929997Y-9874797D01*
X9055960Y-9686280D01*
X9216280Y-9525960D01*
X9404797Y-9399997D01*
X9614266Y-9313232D01*
X9725451Y-9291116D01*
X9836635Y-9269000D01*
X10063365Y-9269000D01*
X10174549Y-9291116D01*
G37*
G36*
X83074549Y-9291116D02*
G01*
X83185734Y-9313232D01*
X83395203Y-9399997D01*
X83583720Y-9525960D01*
X83744040Y-9686280D01*
X83870003Y-9874797D01*
X83956768Y-10084266D01*
X84001000Y-10306636D01*
X84001000Y-10533364D01*
X83956768Y-10755734D01*
X83870003Y-10965203D01*
X83744040Y-11153720D01*
X83583720Y-11314040D01*
X83395203Y-11440003D01*
X83185734Y-11526768D01*
X83074549Y-11548884D01*
X82963365Y-11571000D01*
X82736635Y-11571000D01*
X82625451Y-11548884D01*
X82514266Y-11526768D01*
X82304797Y-11440003D01*
X82116280Y-11314040D01*
X81955960Y-11153720D01*
X81829997Y-10965203D01*
X81743232Y-10755734D01*
X81699000Y-10533364D01*
X81699000Y-10306636D01*
X81743232Y-10084266D01*
X81829997Y-9874797D01*
X81955960Y-9686280D01*
X82116280Y-9525960D01*
X82304797Y-9399997D01*
X82514266Y-9313232D01*
X82625451Y-9291116D01*
X82736635Y-9269000D01*
X82963365Y-9269000D01*
X83074549Y-9291116D01*
G37*
G36*
X4225331Y-4268211D02*
G01*
X4553092Y-4403974D01*
X4848070Y-4601072D01*
X5098928Y-4851930D01*
X5296026Y-5146908D01*
X5431789Y-5474669D01*
X5501000Y-5822616D01*
X5501000Y-6177384D01*
X5431789Y-6525331D01*
X5296026Y-6853092D01*
X5098928Y-7148070D01*
X4848070Y-7398928D01*
X4553092Y-7596026D01*
X4225331Y-7731789D01*
X3877384Y-7801000D01*
X3522616Y-7801000D01*
X3174669Y-7731789D01*
X2846908Y-7596026D01*
X2551930Y-7398928D01*
X2301072Y-7148070D01*
X2103974Y-6853092D01*
X1968211Y-6525331D01*
X1899000Y-6177384D01*
X1899000Y-5822616D01*
X1968211Y-5474669D01*
X2103974Y-5146908D01*
X2301072Y-4851930D01*
X2551930Y-4601072D01*
X2846908Y-4403974D01*
X3174669Y-4268211D01*
X3522616Y-4199000D01*
X3877384Y-4199000D01*
X4225331Y-4268211D01*
G37*
G36*
X89625331Y-4268211D02*
G01*
X89953092Y-4403974D01*
X90248070Y-4601072D01*
X90498928Y-4851930D01*
X90696026Y-5146908D01*
X90831789Y-5474669D01*
X90901000Y-5822616D01*
X90901000Y-6177384D01*
X90831789Y-6525331D01*
X90696026Y-6853092D01*
X90498928Y-7148070D01*
X90248070Y-7398928D01*
X89953092Y-7596026D01*
X89625331Y-7731789D01*
X89277384Y-7801000D01*
X88922616Y-7801000D01*
X88574669Y-7731789D01*
X88246908Y-7596026D01*
X87951930Y-7398928D01*
X87701072Y-7148070D01*
X87503974Y-6853092D01*
X87368211Y-6525331D01*
X87299000Y-6177384D01*
X87299000Y-5822616D01*
X87368211Y-5474669D01*
X87503974Y-5146908D01*
X87701072Y-4851930D01*
X87951930Y-4601072D01*
X88246908Y-4403974D01*
X88574669Y-4268211D01*
X88922616Y-4199000D01*
X89277384Y-4199000D01*
X89625331Y-4268211D01*
G37*
M02*
