G04 #@! TF.GenerationSoftware,KiCad,Pcbnew,(5.1.5-0-10_14)*
G04 #@! TF.CreationDate,2020-06-18T21:13:27+02:00*
G04 #@! TF.ProjectId,accu,61636375-2e6b-4696-9361-645f70636258,rev?*
G04 #@! TF.SameCoordinates,Original*
G04 #@! TF.FileFunction,Legend,Top*
G04 #@! TF.FilePolarity,Positive*
%FSLAX46Y46*%
G04 Gerber Fmt 4.6, Leading zero omitted, Abs format (unit mm)*
G04 Created by KiCad (PCBNEW (5.1.5-0-10_14)) date 2020-06-18 21:13:27*
%MOMM*%
%LPD*%
G04 APERTURE LIST*
%ADD10C,0.120000*%
%ADD11C,0.150000*%
G04 APERTURE END LIST*
D10*
X84740000Y-140000D02*
X84740000Y-40360000D01*
X84740000Y-40360000D02*
X6760000Y-40360000D01*
X6760000Y-140000D02*
X84740000Y-140000D01*
X6760000Y-40360000D02*
X6760000Y-140000D01*
X22690000Y-10410000D02*
X19530000Y-10410000D01*
X16030000Y-10410000D02*
X12870000Y-10410000D01*
X16030000Y-33130000D02*
X12870000Y-33130000D01*
X12870000Y-33130000D02*
X12870000Y-10410000D01*
X22690000Y-33130000D02*
X22690000Y-10410000D01*
X22690000Y-33130000D02*
X19530000Y-33130000D01*
X34120000Y-33130000D02*
X30960000Y-33130000D01*
X34120000Y-33130000D02*
X34120000Y-10410000D01*
X24300000Y-33130000D02*
X24300000Y-10410000D01*
X27460000Y-33130000D02*
X24300000Y-33130000D01*
X27460000Y-10410000D02*
X24300000Y-10410000D01*
X34120000Y-10410000D02*
X30960000Y-10410000D01*
X53050000Y-28060001D02*
X35850000Y-28060001D01*
X35850000Y-28060001D02*
X35850000Y-60001D01*
X53050000Y-60001D02*
X35850000Y-60001D01*
X53050000Y-28060001D02*
X53050000Y-60001D01*
D11*
X23708571Y-23389047D02*
X23708571Y-23722380D01*
X24232380Y-23722380D02*
X23232380Y-23722380D01*
X23232380Y-23246190D01*
X23565714Y-22436666D02*
X24232380Y-22436666D01*
X23565714Y-22865238D02*
X24089523Y-22865238D01*
X24184761Y-22817619D01*
X24232380Y-22722380D01*
X24232380Y-22579523D01*
X24184761Y-22484285D01*
X24137142Y-22436666D01*
X24184761Y-22008095D02*
X24232380Y-21912857D01*
X24232380Y-21722380D01*
X24184761Y-21627142D01*
X24089523Y-21579523D01*
X24041904Y-21579523D01*
X23946666Y-21627142D01*
X23899047Y-21722380D01*
X23899047Y-21865238D01*
X23851428Y-21960476D01*
X23756190Y-22008095D01*
X23708571Y-22008095D01*
X23613333Y-21960476D01*
X23565714Y-21865238D01*
X23565714Y-21722380D01*
X23613333Y-21627142D01*
X24184761Y-20770000D02*
X24232380Y-20865238D01*
X24232380Y-21055714D01*
X24184761Y-21150952D01*
X24089523Y-21198571D01*
X23708571Y-21198571D01*
X23613333Y-21150952D01*
X23565714Y-21055714D01*
X23565714Y-20865238D01*
X23613333Y-20770000D01*
X23708571Y-20722380D01*
X23803809Y-20722380D01*
X23899047Y-21198571D01*
X24232380Y-19770000D02*
X24232380Y-20341428D01*
X24232380Y-20055714D02*
X23232380Y-20055714D01*
X23375238Y-20150952D01*
X23470476Y-20246190D01*
X23518095Y-20341428D01*
X35138571Y-23389047D02*
X35138571Y-23722380D01*
X35662380Y-23722380D02*
X34662380Y-23722380D01*
X34662380Y-23246190D01*
X34995714Y-22436666D02*
X35662380Y-22436666D01*
X34995714Y-22865238D02*
X35519523Y-22865238D01*
X35614761Y-22817619D01*
X35662380Y-22722380D01*
X35662380Y-22579523D01*
X35614761Y-22484285D01*
X35567142Y-22436666D01*
X35614761Y-22008095D02*
X35662380Y-21912857D01*
X35662380Y-21722380D01*
X35614761Y-21627142D01*
X35519523Y-21579523D01*
X35471904Y-21579523D01*
X35376666Y-21627142D01*
X35329047Y-21722380D01*
X35329047Y-21865238D01*
X35281428Y-21960476D01*
X35186190Y-22008095D01*
X35138571Y-22008095D01*
X35043333Y-21960476D01*
X34995714Y-21865238D01*
X34995714Y-21722380D01*
X35043333Y-21627142D01*
X35614761Y-20770000D02*
X35662380Y-20865238D01*
X35662380Y-21055714D01*
X35614761Y-21150952D01*
X35519523Y-21198571D01*
X35138571Y-21198571D01*
X35043333Y-21150952D01*
X34995714Y-21055714D01*
X34995714Y-20865238D01*
X35043333Y-20770000D01*
X35138571Y-20722380D01*
X35233809Y-20722380D01*
X35329047Y-21198571D01*
X34757619Y-20341428D02*
X34710000Y-20293809D01*
X34662380Y-20198571D01*
X34662380Y-19960476D01*
X34710000Y-19865238D01*
X34757619Y-19817619D01*
X34852857Y-19770000D01*
X34948095Y-19770000D01*
X35090952Y-19817619D01*
X35662380Y-20389047D01*
X35662380Y-19770000D01*
X60142380Y-28733571D02*
X60094761Y-28828809D01*
X60047142Y-28876428D01*
X59951904Y-28924047D01*
X59666190Y-28924047D01*
X59570952Y-28876428D01*
X59523333Y-28828809D01*
X59475714Y-28733571D01*
X59475714Y-28590714D01*
X59523333Y-28495476D01*
X59570952Y-28447857D01*
X59666190Y-28400238D01*
X59951904Y-28400238D01*
X60047142Y-28447857D01*
X60094761Y-28495476D01*
X60142380Y-28590714D01*
X60142380Y-28733571D01*
X59475714Y-27543095D02*
X60142380Y-27543095D01*
X59475714Y-27971666D02*
X59999523Y-27971666D01*
X60094761Y-27924047D01*
X60142380Y-27828809D01*
X60142380Y-27685952D01*
X60094761Y-27590714D01*
X60047142Y-27543095D01*
X59475714Y-27209761D02*
X59475714Y-26828809D01*
X59142380Y-27066904D02*
X59999523Y-27066904D01*
X60094761Y-27019285D01*
X60142380Y-26924047D01*
X60142380Y-26828809D01*
X59761428Y-26495476D02*
X59761428Y-25733571D01*
X75382380Y-28733571D02*
X75334761Y-28828809D01*
X75287142Y-28876428D01*
X75191904Y-28924047D01*
X74906190Y-28924047D01*
X74810952Y-28876428D01*
X74763333Y-28828809D01*
X74715714Y-28733571D01*
X74715714Y-28590714D01*
X74763333Y-28495476D01*
X74810952Y-28447857D01*
X74906190Y-28400238D01*
X75191904Y-28400238D01*
X75287142Y-28447857D01*
X75334761Y-28495476D01*
X75382380Y-28590714D01*
X75382380Y-28733571D01*
X74715714Y-27543095D02*
X75382380Y-27543095D01*
X74715714Y-27971666D02*
X75239523Y-27971666D01*
X75334761Y-27924047D01*
X75382380Y-27828809D01*
X75382380Y-27685952D01*
X75334761Y-27590714D01*
X75287142Y-27543095D01*
X74715714Y-27209761D02*
X74715714Y-26828809D01*
X74382380Y-27066904D02*
X75239523Y-27066904D01*
X75334761Y-27019285D01*
X75382380Y-26924047D01*
X75382380Y-26828809D01*
X75001428Y-26495476D02*
X75001428Y-25733571D01*
X75382380Y-26114523D02*
X74620476Y-26114523D01*
X43688095Y2997618D02*
X43688095Y2188094D01*
X43735714Y2092856D01*
X43783333Y2045237D01*
X43878571Y1997618D01*
X44069047Y1997618D01*
X44164285Y2045237D01*
X44211904Y2092856D01*
X44259523Y2188094D01*
X44259523Y2997618D01*
X45259523Y1997618D02*
X44688095Y1997618D01*
X44973809Y1997618D02*
X44973809Y2997618D01*
X44878571Y2854760D01*
X44783333Y2759522D01*
X44688095Y2711903D01*
X41759523Y-30022381D02*
X42330952Y-30022381D01*
X42045238Y-31022381D02*
X42045238Y-30022381D01*
X42664285Y-31022381D02*
X42664285Y-30022381D01*
X43045238Y-30022381D01*
X43140476Y-30070001D01*
X43188095Y-30117620D01*
X43235714Y-30212858D01*
X43235714Y-30355715D01*
X43188095Y-30450953D01*
X43140476Y-30498572D01*
X43045238Y-30546191D01*
X42664285Y-30546191D01*
X44092857Y-30355715D02*
X44092857Y-31022381D01*
X43854761Y-29974762D02*
X43616666Y-30689048D01*
X44235714Y-30689048D01*
X44807142Y-30022381D02*
X44902380Y-30022381D01*
X44997619Y-30070001D01*
X45045238Y-30117620D01*
X45092857Y-30212858D01*
X45140476Y-30403334D01*
X45140476Y-30641429D01*
X45092857Y-30831905D01*
X45045238Y-30927143D01*
X44997619Y-30974762D01*
X44902380Y-31022381D01*
X44807142Y-31022381D01*
X44711904Y-30974762D01*
X44664285Y-30927143D01*
X44616666Y-30831905D01*
X44569047Y-30641429D01*
X44569047Y-30403334D01*
X44616666Y-30212858D01*
X44664285Y-30117620D01*
X44711904Y-30070001D01*
X44807142Y-30022381D01*
X46045238Y-30022381D02*
X45569047Y-30022381D01*
X45521428Y-30498572D01*
X45569047Y-30450953D01*
X45664285Y-30403334D01*
X45902380Y-30403334D01*
X45997619Y-30450953D01*
X46045238Y-30498572D01*
X46092857Y-30593810D01*
X46092857Y-30831905D01*
X46045238Y-30927143D01*
X45997619Y-30974762D01*
X45902380Y-31022381D01*
X45664285Y-31022381D01*
X45569047Y-30974762D01*
X45521428Y-30927143D01*
X46950000Y-30022381D02*
X46759523Y-30022381D01*
X46664285Y-30070001D01*
X46616666Y-30117620D01*
X46521428Y-30260477D01*
X46473809Y-30450953D01*
X46473809Y-30831905D01*
X46521428Y-30927143D01*
X46569047Y-30974762D01*
X46664285Y-31022381D01*
X46854761Y-31022381D01*
X46950000Y-30974762D01*
X46997619Y-30927143D01*
X47045238Y-30831905D01*
X47045238Y-30593810D01*
X46997619Y-30498572D01*
X46950000Y-30450953D01*
X46854761Y-30403334D01*
X46664285Y-30403334D01*
X46569047Y-30450953D01*
X46521428Y-30498572D01*
X46473809Y-30593810D01*
M02*
