M48
; DRILL file {KiCad (5.1.5-0-10_14)} date 2020 June 18, Thursday 21:14:03
; FORMAT={-:-/ absolute / inch / decimal}
; #@! TF.CreationDate,2020-06-18T21:14:03+02:00
; #@! TF.GenerationSoftware,Kicad,Pcbnew,(5.1.5-0-10_14)
FMAT,2
INCH
T1C0.0394
T2C0.0512
T3C0.0591
T4C0.0787
T5C0.1063
T6C0.1378
%
G90
G05
T1
X1.4744Y-0.1008
X1.4744Y-1.0063
X1.6122Y-1.0063
X1.8878Y-1.0063
X2.0256Y-0.1008
X2.0256Y-1.0063
T2
X0.7Y-0.4142
X0.7Y-1.3
X1.15Y-0.4142
X1.15Y-1.3
T3
X0.3661Y-0.4173
X0.3661Y-1.1772
X3.2362Y-0.4173
X3.2362Y-1.1772
T4
X2.8Y-0.95
X2.8Y-1.2
X2.5Y-0.95
X2.5Y-1.2
T5
X0.7Y-0.8571
X1.15Y-0.8571
T6
X0.1004Y-1.3878
X3.502Y-0.2067
X3.502Y-1.3878
X0.1004Y-0.2067
T0
M30
