G04 #@! TF.GenerationSoftware,KiCad,Pcbnew,(5.1.5-0-10_14)*
G04 #@! TF.CreationDate,2020-06-18T21:35:01+02:00*
G04 #@! TF.ProjectId,rover2,726f7665-7232-42e6-9b69-6361645f7063,rev?*
G04 #@! TF.SameCoordinates,Original*
G04 #@! TF.FileFunction,Legend,Top*
G04 #@! TF.FilePolarity,Positive*
%FSLAX46Y46*%
G04 Gerber Fmt 4.6, Leading zero omitted, Abs format (unit mm)*
G04 Created by KiCad (PCBNEW (5.1.5-0-10_14)) date 2020-06-18 21:35:01*
%MOMM*%
%LPD*%
G04 APERTURE LIST*
%ADD10C,0.250000*%
%ADD11C,0.300000*%
%ADD12C,0.120000*%
%ADD13C,0.150000*%
G04 APERTURE END LIST*
D10*
X44666666Y-15047619D02*
X44714285Y-15000000D01*
X44809523Y-14952380D01*
X45047619Y-14952380D01*
X45142857Y-15000000D01*
X45190476Y-15047619D01*
X45238095Y-15142857D01*
X45238095Y-15238095D01*
X45190476Y-15380952D01*
X44619047Y-15952380D01*
X45238095Y-15952380D01*
X45714285Y-15904761D02*
X45714285Y-15952380D01*
X45666666Y-16047619D01*
X45619047Y-16095238D01*
X46619047Y-14952380D02*
X46142857Y-14952380D01*
X46095238Y-15428571D01*
X46142857Y-15380952D01*
X46238095Y-15333333D01*
X46476190Y-15333333D01*
X46571428Y-15380952D01*
X46619047Y-15428571D01*
X46666666Y-15523809D01*
X46666666Y-15761904D01*
X46619047Y-15857142D01*
X46571428Y-15904761D01*
X46476190Y-15952380D01*
X46238095Y-15952380D01*
X46142857Y-15904761D01*
X46095238Y-15857142D01*
X47000000Y-15285714D02*
X47238095Y-15952380D01*
X47476190Y-15285714D01*
X48619047Y-15571428D02*
X49380952Y-15571428D01*
X51047619Y-15285714D02*
X51047619Y-15952380D01*
X50809523Y-14904761D02*
X50571428Y-15619047D01*
X51190476Y-15619047D01*
X51619047Y-15904761D02*
X51619047Y-15952380D01*
X51571428Y-16047619D01*
X51523809Y-16095238D01*
X52000000Y-15047619D02*
X52047619Y-15000000D01*
X52142857Y-14952380D01*
X52380952Y-14952380D01*
X52476190Y-15000000D01*
X52523809Y-15047619D01*
X52571428Y-15142857D01*
X52571428Y-15238095D01*
X52523809Y-15380952D01*
X51952380Y-15952380D01*
X52571428Y-15952380D01*
X52904761Y-15285714D02*
X53142857Y-15952380D01*
X53380952Y-15285714D01*
D11*
X57848571Y-8997142D02*
X58991428Y-8997142D01*
X58420000Y-9568571D02*
X58420000Y-8425714D01*
X60388571Y-8997142D02*
X61531428Y-8997142D01*
D10*
X28519523Y-15025714D02*
X28519523Y-15835238D01*
X28471904Y-15930476D01*
X28424285Y-15978095D01*
X28329047Y-16025714D01*
X28186190Y-16025714D01*
X28090952Y-15978095D01*
X28519523Y-15644761D02*
X28424285Y-15692380D01*
X28233809Y-15692380D01*
X28138571Y-15644761D01*
X28090952Y-15597142D01*
X28043333Y-15501904D01*
X28043333Y-15216190D01*
X28090952Y-15120952D01*
X28138571Y-15073333D01*
X28233809Y-15025714D01*
X28424285Y-15025714D01*
X28519523Y-15073333D01*
X28995714Y-15025714D02*
X28995714Y-15692380D01*
X28995714Y-15120952D02*
X29043333Y-15073333D01*
X29138571Y-15025714D01*
X29281428Y-15025714D01*
X29376666Y-15073333D01*
X29424285Y-15168571D01*
X29424285Y-15692380D01*
X30329047Y-15692380D02*
X30329047Y-14692380D01*
X30329047Y-15644761D02*
X30233809Y-15692380D01*
X30043333Y-15692380D01*
X29948095Y-15644761D01*
X29900476Y-15597142D01*
X29852857Y-15501904D01*
X29852857Y-15216190D01*
X29900476Y-15120952D01*
X29948095Y-15073333D01*
X30043333Y-15025714D01*
X30233809Y-15025714D01*
X30329047Y-15073333D01*
X23971428Y-15025714D02*
X24209523Y-15692380D01*
X24447619Y-15025714D01*
X24971428Y-15692380D02*
X24876190Y-15644761D01*
X24828571Y-15597142D01*
X24780952Y-15501904D01*
X24780952Y-15216190D01*
X24828571Y-15120952D01*
X24876190Y-15073333D01*
X24971428Y-15025714D01*
X25114285Y-15025714D01*
X25209523Y-15073333D01*
X25257142Y-15120952D01*
X25304761Y-15216190D01*
X25304761Y-15501904D01*
X25257142Y-15597142D01*
X25209523Y-15644761D01*
X25114285Y-15692380D01*
X24971428Y-15692380D01*
X26161904Y-15025714D02*
X26161904Y-15692380D01*
X25733333Y-15025714D02*
X25733333Y-15549523D01*
X25780952Y-15644761D01*
X25876190Y-15692380D01*
X26019047Y-15692380D01*
X26114285Y-15644761D01*
X26161904Y-15597142D01*
X26495238Y-15025714D02*
X26876190Y-15025714D01*
X26638095Y-14692380D02*
X26638095Y-15549523D01*
X26685714Y-15644761D01*
X26780952Y-15692380D01*
X26876190Y-15692380D01*
X32091428Y-15025714D02*
X32329523Y-15692380D01*
X32567619Y-15025714D01*
X32948571Y-15692380D02*
X32948571Y-15025714D01*
X32948571Y-14692380D02*
X32900952Y-14740000D01*
X32948571Y-14787619D01*
X32996190Y-14740000D01*
X32948571Y-14692380D01*
X32948571Y-14787619D01*
X33424761Y-15025714D02*
X33424761Y-15692380D01*
X33424761Y-15120952D02*
X33472380Y-15073333D01*
X33567619Y-15025714D01*
X33710476Y-15025714D01*
X33805714Y-15073333D01*
X33853333Y-15168571D01*
X33853333Y-15692380D01*
D12*
X21650000Y-1210000D02*
X18990000Y-1210000D01*
X21650000Y-3810000D02*
X21650000Y-1210000D01*
X18990000Y-3810000D02*
X18990000Y-1210000D01*
X21650000Y-3810000D02*
X18990000Y-3810000D01*
X21650000Y-5080000D02*
X21650000Y-6410000D01*
X21650000Y-6410000D02*
X20320000Y-6410000D01*
X12640000Y-1210000D02*
X13970000Y-1210000D01*
X12640000Y-2540000D02*
X12640000Y-1210000D01*
X12640000Y-3810000D02*
X15300000Y-3810000D01*
X15300000Y-3810000D02*
X15300000Y-6410000D01*
X12640000Y-3810000D02*
X12640000Y-6410000D01*
X12640000Y-6410000D02*
X15300000Y-6410000D01*
X57090000Y-3750000D02*
X57090000Y-6410000D01*
X59690000Y-3750000D02*
X57090000Y-3750000D01*
X59690000Y-6410000D02*
X57090000Y-6410000D01*
X59690000Y-3750000D02*
X59690000Y-6410000D01*
X60960000Y-3750000D02*
X62290000Y-3750000D01*
X62290000Y-3750000D02*
X62290000Y-5080000D01*
X62290000Y-11370000D02*
X62290000Y-12700000D01*
X60960000Y-11370000D02*
X62290000Y-11370000D01*
X59690000Y-11370000D02*
X59690000Y-14030000D01*
X59690000Y-14030000D02*
X57090000Y-14030000D01*
X59690000Y-11370000D02*
X57090000Y-11370000D01*
X57090000Y-11370000D02*
X57090000Y-14030000D01*
X38040000Y-7680000D02*
X40700000Y-7680000D01*
X38040000Y-5080000D02*
X38040000Y-7680000D01*
X40700000Y-5080000D02*
X40700000Y-7680000D01*
X38040000Y-5080000D02*
X40700000Y-5080000D01*
X38040000Y-3810000D02*
X38040000Y-2480000D01*
X38040000Y-2480000D02*
X39370000Y-2480000D01*
X25146000Y-1079500D02*
X33274000Y-1079500D01*
X33274000Y-1079500D02*
X33274000Y-14160500D01*
X33274000Y-14160500D02*
X25146000Y-14160500D01*
X25146000Y-14160500D02*
X25146000Y-1079500D01*
D13*
X50498571Y-13898571D02*
X50641428Y-13946190D01*
X50689047Y-13993809D01*
X50736666Y-14089047D01*
X50736666Y-14231904D01*
X50689047Y-14327142D01*
X50641428Y-14374761D01*
X50546190Y-14422380D01*
X50165238Y-14422380D01*
X50165238Y-13422380D01*
X50498571Y-13422380D01*
X50593809Y-13470000D01*
X50641428Y-13517619D01*
X50689047Y-13612857D01*
X50689047Y-13708095D01*
X50641428Y-13803333D01*
X50593809Y-13850952D01*
X50498571Y-13898571D01*
X50165238Y-13898571D01*
X51593809Y-14422380D02*
X51593809Y-13898571D01*
X51546190Y-13803333D01*
X51450952Y-13755714D01*
X51260476Y-13755714D01*
X51165238Y-13803333D01*
X51593809Y-14374761D02*
X51498571Y-14422380D01*
X51260476Y-14422380D01*
X51165238Y-14374761D01*
X51117619Y-14279523D01*
X51117619Y-14184285D01*
X51165238Y-14089047D01*
X51260476Y-14041428D01*
X51498571Y-14041428D01*
X51593809Y-13993809D01*
X51927142Y-13755714D02*
X52308095Y-13755714D01*
X52070000Y-13422380D02*
X52070000Y-14279523D01*
X52117619Y-14374761D01*
X52212857Y-14422380D01*
X52308095Y-14422380D01*
X52498571Y-13755714D02*
X52879523Y-13755714D01*
X52641428Y-13422380D02*
X52641428Y-14279523D01*
X52689047Y-14374761D01*
X52784285Y-14422380D01*
X52879523Y-14422380D01*
X53212857Y-14041428D02*
X53974761Y-14041428D01*
X53593809Y-14422380D02*
X53593809Y-13660476D01*
X43767619Y-13898571D02*
X43910476Y-13946190D01*
X43958095Y-13993809D01*
X44005714Y-14089047D01*
X44005714Y-14231904D01*
X43958095Y-14327142D01*
X43910476Y-14374761D01*
X43815238Y-14422380D01*
X43434285Y-14422380D01*
X43434285Y-13422380D01*
X43767619Y-13422380D01*
X43862857Y-13470000D01*
X43910476Y-13517619D01*
X43958095Y-13612857D01*
X43958095Y-13708095D01*
X43910476Y-13803333D01*
X43862857Y-13850952D01*
X43767619Y-13898571D01*
X43434285Y-13898571D01*
X44862857Y-14422380D02*
X44862857Y-13898571D01*
X44815238Y-13803333D01*
X44720000Y-13755714D01*
X44529523Y-13755714D01*
X44434285Y-13803333D01*
X44862857Y-14374761D02*
X44767619Y-14422380D01*
X44529523Y-14422380D01*
X44434285Y-14374761D01*
X44386666Y-14279523D01*
X44386666Y-14184285D01*
X44434285Y-14089047D01*
X44529523Y-14041428D01*
X44767619Y-14041428D01*
X44862857Y-13993809D01*
X45196190Y-13755714D02*
X45577142Y-13755714D01*
X45339047Y-13422380D02*
X45339047Y-14279523D01*
X45386666Y-14374761D01*
X45481904Y-14422380D01*
X45577142Y-14422380D01*
X45767619Y-13755714D02*
X46148571Y-13755714D01*
X45910476Y-13422380D02*
X45910476Y-14279523D01*
X45958095Y-14374761D01*
X46053333Y-14422380D01*
X46148571Y-14422380D01*
X47243809Y-14041428D02*
X48005714Y-14041428D01*
X19772380Y-14834761D02*
X20581904Y-14834761D01*
X20677142Y-14787142D01*
X20724761Y-14739523D01*
X20772380Y-14644285D01*
X20772380Y-14453809D01*
X20724761Y-14358571D01*
X20677142Y-14310952D01*
X20581904Y-14263333D01*
X19772380Y-14263333D01*
X20724761Y-13834761D02*
X20772380Y-13691904D01*
X20772380Y-13453809D01*
X20724761Y-13358571D01*
X20677142Y-13310952D01*
X20581904Y-13263333D01*
X20486666Y-13263333D01*
X20391428Y-13310952D01*
X20343809Y-13358571D01*
X20296190Y-13453809D01*
X20248571Y-13644285D01*
X20200952Y-13739523D01*
X20153333Y-13787142D01*
X20058095Y-13834761D01*
X19962857Y-13834761D01*
X19867619Y-13787142D01*
X19820000Y-13739523D01*
X19772380Y-13644285D01*
X19772380Y-13406190D01*
X19820000Y-13263333D01*
X20248571Y-12501428D02*
X20296190Y-12358571D01*
X20343809Y-12310952D01*
X20439047Y-12263333D01*
X20581904Y-12263333D01*
X20677142Y-12310952D01*
X20724761Y-12358571D01*
X20772380Y-12453809D01*
X20772380Y-12834761D01*
X19772380Y-12834761D01*
X19772380Y-12501428D01*
X19820000Y-12406190D01*
X19867619Y-12358571D01*
X19962857Y-12310952D01*
X20058095Y-12310952D01*
X20153333Y-12358571D01*
X20200952Y-12406190D01*
X20248571Y-12501428D01*
X20248571Y-12834761D01*
X20772380Y-10644285D02*
X20248571Y-10644285D01*
X20153333Y-10691904D01*
X20105714Y-10787142D01*
X20105714Y-10977619D01*
X20153333Y-11072857D01*
X20724761Y-10644285D02*
X20772380Y-10739523D01*
X20772380Y-10977619D01*
X20724761Y-11072857D01*
X20629523Y-11120476D01*
X20534285Y-11120476D01*
X20439047Y-11072857D01*
X20391428Y-10977619D01*
X20391428Y-10739523D01*
X20343809Y-10644285D01*
X20724761Y-9739523D02*
X20772380Y-9834761D01*
X20772380Y-10025238D01*
X20724761Y-10120476D01*
X20677142Y-10168095D01*
X20581904Y-10215714D01*
X20296190Y-10215714D01*
X20200952Y-10168095D01*
X20153333Y-10120476D01*
X20105714Y-10025238D01*
X20105714Y-9834761D01*
X20153333Y-9739523D01*
X20724761Y-8882380D02*
X20772380Y-8977619D01*
X20772380Y-9168095D01*
X20724761Y-9263333D01*
X20677142Y-9310952D01*
X20581904Y-9358571D01*
X20296190Y-9358571D01*
X20200952Y-9310952D01*
X20153333Y-9263333D01*
X20105714Y-9168095D01*
X20105714Y-8977619D01*
X20153333Y-8882380D01*
X20105714Y-8025238D02*
X20772380Y-8025238D01*
X20105714Y-8453809D02*
X20629523Y-8453809D01*
X20724761Y-8406190D01*
X20772380Y-8310952D01*
X20772380Y-8168095D01*
X20724761Y-8072857D01*
X20677142Y-8025238D01*
X13422380Y-15501428D02*
X14231904Y-15501428D01*
X14327142Y-15453809D01*
X14374761Y-15406190D01*
X14422380Y-15310952D01*
X14422380Y-15120476D01*
X14374761Y-15025238D01*
X14327142Y-14977619D01*
X14231904Y-14930000D01*
X13422380Y-14930000D01*
X14374761Y-14501428D02*
X14422380Y-14358571D01*
X14422380Y-14120476D01*
X14374761Y-14025238D01*
X14327142Y-13977619D01*
X14231904Y-13930000D01*
X14136666Y-13930000D01*
X14041428Y-13977619D01*
X13993809Y-14025238D01*
X13946190Y-14120476D01*
X13898571Y-14310952D01*
X13850952Y-14406190D01*
X13803333Y-14453809D01*
X13708095Y-14501428D01*
X13612857Y-14501428D01*
X13517619Y-14453809D01*
X13470000Y-14406190D01*
X13422380Y-14310952D01*
X13422380Y-14072857D01*
X13470000Y-13930000D01*
X13898571Y-13168095D02*
X13946190Y-13025238D01*
X13993809Y-12977619D01*
X14089047Y-12930000D01*
X14231904Y-12930000D01*
X14327142Y-12977619D01*
X14374761Y-13025238D01*
X14422380Y-13120476D01*
X14422380Y-13501428D01*
X13422380Y-13501428D01*
X13422380Y-13168095D01*
X13470000Y-13072857D01*
X13517619Y-13025238D01*
X13612857Y-12977619D01*
X13708095Y-12977619D01*
X13803333Y-13025238D01*
X13850952Y-13072857D01*
X13898571Y-13168095D01*
X13898571Y-13501428D01*
X13755714Y-11739523D02*
X14755714Y-11739523D01*
X13803333Y-11739523D02*
X13755714Y-11644285D01*
X13755714Y-11453809D01*
X13803333Y-11358571D01*
X13850952Y-11310952D01*
X13946190Y-11263333D01*
X14231904Y-11263333D01*
X14327142Y-11310952D01*
X14374761Y-11358571D01*
X14422380Y-11453809D01*
X14422380Y-11644285D01*
X14374761Y-11739523D01*
X13755714Y-10930000D02*
X14422380Y-10739523D01*
X13946190Y-10549047D01*
X14422380Y-10358571D01*
X13755714Y-10168095D01*
X14422380Y-9787142D02*
X13755714Y-9787142D01*
X13946190Y-9787142D02*
X13850952Y-9739523D01*
X13803333Y-9691904D01*
X13755714Y-9596666D01*
X13755714Y-9501428D01*
X14422380Y-8406190D02*
X13422380Y-8406190D01*
X14422380Y-7930000D02*
X13422380Y-7930000D01*
X14422380Y-7358571D01*
X13422380Y-7358571D01*
X57491904Y-1992380D02*
X57491904Y-2801904D01*
X57539523Y-2897142D01*
X57587142Y-2944761D01*
X57682380Y-2992380D01*
X57872857Y-2992380D01*
X57968095Y-2944761D01*
X58015714Y-2897142D01*
X58063333Y-2801904D01*
X58063333Y-1992380D01*
X58491904Y-2944761D02*
X58634761Y-2992380D01*
X58872857Y-2992380D01*
X58968095Y-2944761D01*
X59015714Y-2897142D01*
X59063333Y-2801904D01*
X59063333Y-2706666D01*
X59015714Y-2611428D01*
X58968095Y-2563809D01*
X58872857Y-2516190D01*
X58682380Y-2468571D01*
X58587142Y-2420952D01*
X58539523Y-2373333D01*
X58491904Y-2278095D01*
X58491904Y-2182857D01*
X58539523Y-2087619D01*
X58587142Y-2040000D01*
X58682380Y-1992380D01*
X58920476Y-1992380D01*
X59063333Y-2040000D01*
X59825238Y-2468571D02*
X59968095Y-2516190D01*
X60015714Y-2563809D01*
X60063333Y-2659047D01*
X60063333Y-2801904D01*
X60015714Y-2897142D01*
X59968095Y-2944761D01*
X59872857Y-2992380D01*
X59491904Y-2992380D01*
X59491904Y-1992380D01*
X59825238Y-1992380D01*
X59920476Y-2040000D01*
X59968095Y-2087619D01*
X60015714Y-2182857D01*
X60015714Y-2278095D01*
X59968095Y-2373333D01*
X59920476Y-2420952D01*
X59825238Y-2468571D01*
X59491904Y-2468571D01*
X61253809Y-2325714D02*
X61253809Y-3325714D01*
X61253809Y-2373333D02*
X61349047Y-2325714D01*
X61539523Y-2325714D01*
X61634761Y-2373333D01*
X61682380Y-2420952D01*
X61730000Y-2516190D01*
X61730000Y-2801904D01*
X61682380Y-2897142D01*
X61634761Y-2944761D01*
X61539523Y-2992380D01*
X61349047Y-2992380D01*
X61253809Y-2944761D01*
X62063333Y-2325714D02*
X62253809Y-2992380D01*
X62444285Y-2516190D01*
X62634761Y-2992380D01*
X62825238Y-2325714D01*
X63206190Y-2992380D02*
X63206190Y-2325714D01*
X63206190Y-2516190D02*
X63253809Y-2420952D01*
X63301428Y-2373333D01*
X63396666Y-2325714D01*
X63491904Y-2325714D01*
X64777619Y-1992380D02*
X64968095Y-1992380D01*
X65063333Y-2040000D01*
X65158571Y-2135238D01*
X65206190Y-2325714D01*
X65206190Y-2659047D01*
X65158571Y-2849523D01*
X65063333Y-2944761D01*
X64968095Y-2992380D01*
X64777619Y-2992380D01*
X64682380Y-2944761D01*
X64587142Y-2849523D01*
X64539523Y-2659047D01*
X64539523Y-2325714D01*
X64587142Y-2135238D01*
X64682380Y-2040000D01*
X64777619Y-1992380D01*
X65634761Y-1992380D02*
X65634761Y-2801904D01*
X65682380Y-2897142D01*
X65730000Y-2944761D01*
X65825238Y-2992380D01*
X66015714Y-2992380D01*
X66110952Y-2944761D01*
X66158571Y-2897142D01*
X66206190Y-2801904D01*
X66206190Y-1992380D01*
X66539523Y-1992380D02*
X67110952Y-1992380D01*
X66825238Y-2992380D02*
X66825238Y-1992380D01*
X57436190Y-14692380D02*
X56960000Y-14692380D01*
X56912380Y-15168571D01*
X56960000Y-15120952D01*
X57055238Y-15073333D01*
X57293333Y-15073333D01*
X57388571Y-15120952D01*
X57436190Y-15168571D01*
X57483809Y-15263809D01*
X57483809Y-15501904D01*
X57436190Y-15597142D01*
X57388571Y-15644761D01*
X57293333Y-15692380D01*
X57055238Y-15692380D01*
X56960000Y-15644761D01*
X56912380Y-15597142D01*
X57769523Y-14692380D02*
X58102857Y-15692380D01*
X58436190Y-14692380D01*
X59531428Y-15692380D02*
X59531428Y-15025714D01*
X59531428Y-15216190D02*
X59579047Y-15120952D01*
X59626666Y-15073333D01*
X59721904Y-15025714D01*
X59817142Y-15025714D01*
X60531428Y-15644761D02*
X60436190Y-15692380D01*
X60245714Y-15692380D01*
X60150476Y-15644761D01*
X60102857Y-15549523D01*
X60102857Y-15168571D01*
X60150476Y-15073333D01*
X60245714Y-15025714D01*
X60436190Y-15025714D01*
X60531428Y-15073333D01*
X60579047Y-15168571D01*
X60579047Y-15263809D01*
X60102857Y-15359047D01*
X61436190Y-15644761D02*
X61340952Y-15692380D01*
X61150476Y-15692380D01*
X61055238Y-15644761D01*
X61007619Y-15597142D01*
X60960000Y-15501904D01*
X60960000Y-15216190D01*
X61007619Y-15120952D01*
X61055238Y-15073333D01*
X61150476Y-15025714D01*
X61340952Y-15025714D01*
X61436190Y-15073333D01*
X62245714Y-15644761D02*
X62150476Y-15692380D01*
X61960000Y-15692380D01*
X61864761Y-15644761D01*
X61817142Y-15549523D01*
X61817142Y-15168571D01*
X61864761Y-15073333D01*
X61960000Y-15025714D01*
X62150476Y-15025714D01*
X62245714Y-15073333D01*
X62293333Y-15168571D01*
X62293333Y-15263809D01*
X61817142Y-15359047D01*
X62721904Y-15692380D02*
X62721904Y-15025714D01*
X62721904Y-14692380D02*
X62674285Y-14740000D01*
X62721904Y-14787619D01*
X62769523Y-14740000D01*
X62721904Y-14692380D01*
X62721904Y-14787619D01*
X63102857Y-15025714D02*
X63340952Y-15692380D01*
X63579047Y-15025714D01*
X64340952Y-15644761D02*
X64245714Y-15692380D01*
X64055238Y-15692380D01*
X63960000Y-15644761D01*
X63912380Y-15549523D01*
X63912380Y-15168571D01*
X63960000Y-15073333D01*
X64055238Y-15025714D01*
X64245714Y-15025714D01*
X64340952Y-15073333D01*
X64388571Y-15168571D01*
X64388571Y-15263809D01*
X63912380Y-15359047D01*
X64817142Y-15692380D02*
X64817142Y-15025714D01*
X64817142Y-15216190D02*
X64864761Y-15120952D01*
X64912380Y-15073333D01*
X65007619Y-15025714D01*
X65102857Y-15025714D01*
X37377619Y-1127619D02*
X37377619Y-1318095D01*
X37330000Y-1413333D01*
X37234761Y-1508571D01*
X37044285Y-1556190D01*
X36710952Y-1556190D01*
X36520476Y-1508571D01*
X36425238Y-1413333D01*
X36377619Y-1318095D01*
X36377619Y-1127619D01*
X36425238Y-1032380D01*
X36520476Y-937142D01*
X36710952Y-889523D01*
X37044285Y-889523D01*
X37234761Y-937142D01*
X37330000Y-1032380D01*
X37377619Y-1127619D01*
X36377619Y-1984761D02*
X37377619Y-1984761D01*
X36377619Y-2556190D01*
X37377619Y-2556190D01*
X37425238Y-3746666D02*
X36139523Y-2889523D01*
X37377619Y-4270476D02*
X37377619Y-4460952D01*
X37330000Y-4556190D01*
X37234761Y-4651428D01*
X37044285Y-4699047D01*
X36710952Y-4699047D01*
X36520476Y-4651428D01*
X36425238Y-4556190D01*
X36377619Y-4460952D01*
X36377619Y-4270476D01*
X36425238Y-4175238D01*
X36520476Y-4080000D01*
X36710952Y-4032380D01*
X37044285Y-4032380D01*
X37234761Y-4080000D01*
X37330000Y-4175238D01*
X37377619Y-4270476D01*
X36901428Y-5460952D02*
X36901428Y-5127619D01*
X36377619Y-5127619D02*
X37377619Y-5127619D01*
X37377619Y-5603809D01*
X36901428Y-6318095D02*
X36901428Y-5984761D01*
X36377619Y-5984761D02*
X37377619Y-5984761D01*
X37377619Y-6460952D01*
X36425238Y-7556190D02*
X36377619Y-7699047D01*
X36377619Y-7937142D01*
X36425238Y-8032380D01*
X36472857Y-8080000D01*
X36568095Y-8127619D01*
X36663333Y-8127619D01*
X36758571Y-8080000D01*
X36806190Y-8032380D01*
X36853809Y-7937142D01*
X36901428Y-7746666D01*
X36949047Y-7651428D01*
X36996666Y-7603809D01*
X37091904Y-7556190D01*
X37187142Y-7556190D01*
X37282380Y-7603809D01*
X37330000Y-7651428D01*
X37377619Y-7746666D01*
X37377619Y-7984761D01*
X37330000Y-8127619D01*
X37377619Y-8460952D02*
X36377619Y-8699047D01*
X37091904Y-8889523D01*
X36377619Y-9080000D01*
X37377619Y-9318095D01*
X33837619Y-1453333D02*
X34837619Y-1453333D01*
X34837619Y-1834285D01*
X34790000Y-1929523D01*
X34742380Y-1977142D01*
X34647142Y-2024761D01*
X34504285Y-2024761D01*
X34409047Y-1977142D01*
X34361428Y-1929523D01*
X34313809Y-1834285D01*
X34313809Y-1453333D01*
X34837619Y-2643809D02*
X34837619Y-2834285D01*
X34790000Y-2929523D01*
X34694761Y-3024761D01*
X34504285Y-3072380D01*
X34170952Y-3072380D01*
X33980476Y-3024761D01*
X33885238Y-2929523D01*
X33837619Y-2834285D01*
X33837619Y-2643809D01*
X33885238Y-2548571D01*
X33980476Y-2453333D01*
X34170952Y-2405714D01*
X34504285Y-2405714D01*
X34694761Y-2453333D01*
X34790000Y-2548571D01*
X34837619Y-2643809D01*
X33837619Y-3977142D02*
X33837619Y-3500952D01*
X34837619Y-3500952D01*
X34837619Y-4500952D02*
X34837619Y-4691428D01*
X34790000Y-4786666D01*
X34694761Y-4881904D01*
X34504285Y-4929523D01*
X34170952Y-4929523D01*
X33980476Y-4881904D01*
X33885238Y-4786666D01*
X33837619Y-4691428D01*
X33837619Y-4500952D01*
X33885238Y-4405714D01*
X33980476Y-4310476D01*
X34170952Y-4262857D01*
X34504285Y-4262857D01*
X34694761Y-4310476D01*
X34790000Y-4405714D01*
X34837619Y-4500952D01*
X33837619Y-5834285D02*
X33837619Y-5358095D01*
X34837619Y-5358095D01*
X34837619Y-6167619D02*
X34028095Y-6167619D01*
X33932857Y-6215238D01*
X33885238Y-6262857D01*
X33837619Y-6358095D01*
X33837619Y-6548571D01*
X33885238Y-6643809D01*
X33932857Y-6691428D01*
X34028095Y-6739047D01*
X34837619Y-6739047D01*
X33932857Y-7215238D02*
X33885238Y-7262857D01*
X33837619Y-7215238D01*
X33885238Y-7167619D01*
X33932857Y-7215238D01*
X33837619Y-7215238D01*
X34837619Y-7691428D02*
X34028095Y-7691428D01*
X33932857Y-7739047D01*
X33885238Y-7786666D01*
X33837619Y-7881904D01*
X33837619Y-8072380D01*
X33885238Y-8167619D01*
X33932857Y-8215238D01*
X34028095Y-8262857D01*
X34837619Y-8262857D01*
X34837619Y-8643809D02*
X34837619Y-9262857D01*
X34456666Y-8929523D01*
X34456666Y-9072380D01*
X34409047Y-9167619D01*
X34361428Y-9215238D01*
X34266190Y-9262857D01*
X34028095Y-9262857D01*
X33932857Y-9215238D01*
X33885238Y-9167619D01*
X33837619Y-9072380D01*
X33837619Y-8786666D01*
X33885238Y-8691428D01*
X33932857Y-8643809D01*
X34837619Y-9548571D02*
X33837619Y-9881904D01*
X34837619Y-10215238D01*
X33837619Y-11072380D02*
X33837619Y-10500952D01*
X33837619Y-10786666D02*
X34837619Y-10786666D01*
X34694761Y-10691428D01*
X34599523Y-10596190D01*
X34551904Y-10500952D01*
X34742380Y-11453333D02*
X34790000Y-11500952D01*
X34837619Y-11596190D01*
X34837619Y-11834285D01*
X34790000Y-11929523D01*
X34742380Y-11977142D01*
X34647142Y-12024761D01*
X34551904Y-12024761D01*
X34409047Y-11977142D01*
X33837619Y-11405714D01*
X33837619Y-12024761D01*
X34361428Y-12786666D02*
X34361428Y-12453333D01*
X33837619Y-12453333D02*
X34837619Y-12453333D01*
X34837619Y-12929523D01*
X34837619Y-13786666D02*
X34837619Y-13310476D01*
X34361428Y-13262857D01*
X34409047Y-13310476D01*
X34456666Y-13405714D01*
X34456666Y-13643809D01*
X34409047Y-13739047D01*
X34361428Y-13786666D01*
X34266190Y-13834285D01*
X34028095Y-13834285D01*
X33932857Y-13786666D01*
X33885238Y-13739047D01*
X33837619Y-13643809D01*
X33837619Y-13405714D01*
X33885238Y-13310476D01*
X33932857Y-13262857D01*
M02*
