G04 #@! TF.GenerationSoftware,KiCad,Pcbnew,(5.1.5-0-10_14)*
G04 #@! TF.CreationDate,2020-06-18T21:35:01+02:00*
G04 #@! TF.ProjectId,rover2,726f7665-7232-42e6-9b69-6361645f7063,rev?*
G04 #@! TF.SameCoordinates,Original*
G04 #@! TF.FileFunction,Copper,L1,Top*
G04 #@! TF.FilePolarity,Positive*
%FSLAX46Y46*%
G04 Gerber Fmt 4.6, Leading zero omitted, Abs format (unit mm)*
G04 Created by KiCad (PCBNEW (5.1.5-0-10_14)) date 2020-06-18 21:35:01*
%MOMM*%
%LPD*%
G04 APERTURE LIST*
%ADD10R,4.500880X4.500880*%
%ADD11C,4.500880*%
%ADD12R,1.700000X1.700000*%
%ADD13O,1.700000X1.700000*%
%ADD14C,1.700000*%
%ADD15C,1.000000*%
G04 APERTURE END LIST*
D10*
X52070000Y-10160000D03*
D11*
X52070000Y-3810000D03*
X45720000Y-3810000D03*
D10*
X45720000Y-10160000D03*
D12*
X20320000Y-5080000D03*
D13*
X20320000Y-2540000D03*
X13970000Y-5080000D03*
D12*
X13970000Y-2540000D03*
X60960000Y-5080000D03*
D13*
X58420000Y-5080000D03*
X58420000Y-12700000D03*
D12*
X60960000Y-12700000D03*
X39370000Y-3810000D03*
D13*
X39370000Y-6350000D03*
D14*
X26670000Y-12700000D03*
X29210000Y-12700000D03*
X31750000Y-12700000D03*
D15*
X41220000Y-3810000D02*
X39370000Y-3810000D01*
X44170441Y-6760441D02*
X41220000Y-3810000D01*
X51920881Y-6760441D02*
X44170441Y-6760441D01*
X52070000Y-6909560D02*
X51920881Y-6760441D01*
X52070000Y-10160000D02*
X52070000Y-6909560D01*
X60960000Y-5080000D02*
X60960000Y-12700000D01*
X46559561Y-14250001D02*
X59409999Y-14250001D01*
X59409999Y-14250001D02*
X60960000Y-12700000D01*
X45720000Y-13410440D02*
X46559561Y-14250001D01*
X44880439Y-14250001D02*
X45720000Y-13410440D01*
X30760001Y-14250001D02*
X44880439Y-14250001D01*
X45720000Y-13410440D02*
X45720000Y-10160000D01*
X29210000Y-12700000D02*
X30760001Y-14250001D01*
X20320000Y-5080000D02*
X13970000Y-5080000D01*
X13970000Y-2540000D02*
X20320000Y-2540000D01*
X58420000Y-12700000D02*
X58420000Y-5080000D01*
X33020000Y-12700000D02*
X39370000Y-6350000D01*
X31750000Y-12700000D02*
X33020000Y-12700000D01*
M02*
