G04 #@! TF.GenerationSoftware,KiCad,Pcbnew,(5.1.5-0-10_14)*
G04 #@! TF.CreationDate,2020-06-18T21:35:01+02:00*
G04 #@! TF.ProjectId,rover2,726f7665-7232-42e6-9b69-6361645f7063,rev?*
G04 #@! TF.SameCoordinates,Original*
G04 #@! TF.FileFunction,Soldermask,Bot*
G04 #@! TF.FilePolarity,Negative*
%FSLAX46Y46*%
G04 Gerber Fmt 4.6, Leading zero omitted, Abs format (unit mm)*
G04 Created by KiCad (PCBNEW (5.1.5-0-10_14)) date 2020-06-18 21:35:01*
%MOMM*%
%LPD*%
G04 APERTURE LIST*
%ADD10C,0.100000*%
G04 APERTURE END LIST*
D10*
G36*
X70525331Y-10268211D02*
G01*
X70853092Y-10403974D01*
X71148070Y-10601072D01*
X71398928Y-10851930D01*
X71596026Y-11146908D01*
X71731789Y-11474669D01*
X71801000Y-11822616D01*
X71801000Y-12177384D01*
X71731789Y-12525331D01*
X71596026Y-12853092D01*
X71398928Y-13148070D01*
X71148070Y-13398928D01*
X70853092Y-13596026D01*
X70525331Y-13731789D01*
X70177384Y-13801000D01*
X69822616Y-13801000D01*
X69474669Y-13731789D01*
X69146908Y-13596026D01*
X68851930Y-13398928D01*
X68601072Y-13148070D01*
X68403974Y-12853092D01*
X68268211Y-12525331D01*
X68199000Y-12177384D01*
X68199000Y-11822616D01*
X68268211Y-11474669D01*
X68403974Y-11146908D01*
X68601072Y-10851930D01*
X68851930Y-10601072D01*
X69146908Y-10403974D01*
X69474669Y-10268211D01*
X69822616Y-10199000D01*
X70177384Y-10199000D01*
X70525331Y-10268211D01*
G37*
G36*
X5525331Y-10268211D02*
G01*
X5853092Y-10403974D01*
X6148070Y-10601072D01*
X6398928Y-10851930D01*
X6596026Y-11146908D01*
X6731789Y-11474669D01*
X6801000Y-11822616D01*
X6801000Y-12177384D01*
X6731789Y-12525331D01*
X6596026Y-12853092D01*
X6398928Y-13148070D01*
X6148070Y-13398928D01*
X5853092Y-13596026D01*
X5525331Y-13731789D01*
X5177384Y-13801000D01*
X4822616Y-13801000D01*
X4474669Y-13731789D01*
X4146908Y-13596026D01*
X3851930Y-13398928D01*
X3601072Y-13148070D01*
X3403974Y-12853092D01*
X3268211Y-12525331D01*
X3199000Y-12177384D01*
X3199000Y-11822616D01*
X3268211Y-11474669D01*
X3403974Y-11146908D01*
X3601072Y-10851930D01*
X3851930Y-10601072D01*
X4146908Y-10403974D01*
X4474669Y-10268211D01*
X4822616Y-10199000D01*
X5177384Y-10199000D01*
X5525331Y-10268211D01*
G37*
G36*
X31863512Y-11803927D02*
G01*
X32012812Y-11833624D01*
X32176784Y-11901544D01*
X32324354Y-12000147D01*
X32449853Y-12125646D01*
X32548456Y-12273216D01*
X32616376Y-12437188D01*
X32651000Y-12611259D01*
X32651000Y-12788741D01*
X32616376Y-12962812D01*
X32548456Y-13126784D01*
X32449853Y-13274354D01*
X32324354Y-13399853D01*
X32176784Y-13498456D01*
X32012812Y-13566376D01*
X31863753Y-13596025D01*
X31838742Y-13601000D01*
X31661258Y-13601000D01*
X31636247Y-13596025D01*
X31487188Y-13566376D01*
X31323216Y-13498456D01*
X31175646Y-13399853D01*
X31050147Y-13274354D01*
X30951544Y-13126784D01*
X30883624Y-12962812D01*
X30849000Y-12788741D01*
X30849000Y-12611259D01*
X30883624Y-12437188D01*
X30951544Y-12273216D01*
X31050147Y-12125646D01*
X31175646Y-12000147D01*
X31323216Y-11901544D01*
X31487188Y-11833624D01*
X31636488Y-11803927D01*
X31661258Y-11799000D01*
X31838742Y-11799000D01*
X31863512Y-11803927D01*
G37*
G36*
X29323512Y-11803927D02*
G01*
X29472812Y-11833624D01*
X29636784Y-11901544D01*
X29784354Y-12000147D01*
X29909853Y-12125646D01*
X30008456Y-12273216D01*
X30076376Y-12437188D01*
X30111000Y-12611259D01*
X30111000Y-12788741D01*
X30076376Y-12962812D01*
X30008456Y-13126784D01*
X29909853Y-13274354D01*
X29784354Y-13399853D01*
X29636784Y-13498456D01*
X29472812Y-13566376D01*
X29323753Y-13596025D01*
X29298742Y-13601000D01*
X29121258Y-13601000D01*
X29096247Y-13596025D01*
X28947188Y-13566376D01*
X28783216Y-13498456D01*
X28635646Y-13399853D01*
X28510147Y-13274354D01*
X28411544Y-13126784D01*
X28343624Y-12962812D01*
X28309000Y-12788741D01*
X28309000Y-12611259D01*
X28343624Y-12437188D01*
X28411544Y-12273216D01*
X28510147Y-12125646D01*
X28635646Y-12000147D01*
X28783216Y-11901544D01*
X28947188Y-11833624D01*
X29096488Y-11803927D01*
X29121258Y-11799000D01*
X29298742Y-11799000D01*
X29323512Y-11803927D01*
G37*
G36*
X26783512Y-11803927D02*
G01*
X26932812Y-11833624D01*
X27096784Y-11901544D01*
X27244354Y-12000147D01*
X27369853Y-12125646D01*
X27468456Y-12273216D01*
X27536376Y-12437188D01*
X27571000Y-12611259D01*
X27571000Y-12788741D01*
X27536376Y-12962812D01*
X27468456Y-13126784D01*
X27369853Y-13274354D01*
X27244354Y-13399853D01*
X27096784Y-13498456D01*
X26932812Y-13566376D01*
X26783753Y-13596025D01*
X26758742Y-13601000D01*
X26581258Y-13601000D01*
X26556247Y-13596025D01*
X26407188Y-13566376D01*
X26243216Y-13498456D01*
X26095646Y-13399853D01*
X25970147Y-13274354D01*
X25871544Y-13126784D01*
X25803624Y-12962812D01*
X25769000Y-12788741D01*
X25769000Y-12611259D01*
X25803624Y-12437188D01*
X25871544Y-12273216D01*
X25970147Y-12125646D01*
X26095646Y-12000147D01*
X26243216Y-11901544D01*
X26407188Y-11833624D01*
X26556488Y-11803927D01*
X26581258Y-11799000D01*
X26758742Y-11799000D01*
X26783512Y-11803927D01*
G37*
G36*
X61861000Y-13601000D02*
G01*
X60059000Y-13601000D01*
X60059000Y-11799000D01*
X61861000Y-11799000D01*
X61861000Y-13601000D01*
G37*
G36*
X58533512Y-11803927D02*
G01*
X58682812Y-11833624D01*
X58846784Y-11901544D01*
X58994354Y-12000147D01*
X59119853Y-12125646D01*
X59218456Y-12273216D01*
X59286376Y-12437188D01*
X59321000Y-12611259D01*
X59321000Y-12788741D01*
X59286376Y-12962812D01*
X59218456Y-13126784D01*
X59119853Y-13274354D01*
X58994354Y-13399853D01*
X58846784Y-13498456D01*
X58682812Y-13566376D01*
X58533753Y-13596025D01*
X58508742Y-13601000D01*
X58331258Y-13601000D01*
X58306247Y-13596025D01*
X58157188Y-13566376D01*
X57993216Y-13498456D01*
X57845646Y-13399853D01*
X57720147Y-13274354D01*
X57621544Y-13126784D01*
X57553624Y-12962812D01*
X57519000Y-12788741D01*
X57519000Y-12611259D01*
X57553624Y-12437188D01*
X57621544Y-12273216D01*
X57720147Y-12125646D01*
X57845646Y-12000147D01*
X57993216Y-11901544D01*
X58157188Y-11833624D01*
X58306488Y-11803927D01*
X58331258Y-11799000D01*
X58508742Y-11799000D01*
X58533512Y-11803927D01*
G37*
G36*
X54371440Y-12461440D02*
G01*
X49768560Y-12461440D01*
X49768560Y-7858560D01*
X54371440Y-7858560D01*
X54371440Y-12461440D01*
G37*
G36*
X48021440Y-12461440D02*
G01*
X43418560Y-12461440D01*
X43418560Y-7858560D01*
X48021440Y-7858560D01*
X48021440Y-12461440D01*
G37*
G36*
X39483512Y-5453927D02*
G01*
X39632812Y-5483624D01*
X39796784Y-5551544D01*
X39944354Y-5650147D01*
X40069853Y-5775646D01*
X40168456Y-5923216D01*
X40236376Y-6087188D01*
X40271000Y-6261259D01*
X40271000Y-6438741D01*
X40236376Y-6612812D01*
X40168456Y-6776784D01*
X40069853Y-6924354D01*
X39944354Y-7049853D01*
X39796784Y-7148456D01*
X39632812Y-7216376D01*
X39483512Y-7246073D01*
X39458742Y-7251000D01*
X39281258Y-7251000D01*
X39256488Y-7246073D01*
X39107188Y-7216376D01*
X38943216Y-7148456D01*
X38795646Y-7049853D01*
X38670147Y-6924354D01*
X38571544Y-6776784D01*
X38503624Y-6612812D01*
X38469000Y-6438741D01*
X38469000Y-6261259D01*
X38503624Y-6087188D01*
X38571544Y-5923216D01*
X38670147Y-5775646D01*
X38795646Y-5650147D01*
X38943216Y-5551544D01*
X39107188Y-5483624D01*
X39256488Y-5453927D01*
X39281258Y-5449000D01*
X39458742Y-5449000D01*
X39483512Y-5453927D01*
G37*
G36*
X5525331Y-3268211D02*
G01*
X5853092Y-3403974D01*
X6148070Y-3601072D01*
X6398928Y-3851930D01*
X6596026Y-4146908D01*
X6731789Y-4474669D01*
X6801000Y-4822616D01*
X6801000Y-5177384D01*
X6731789Y-5525331D01*
X6596026Y-5853092D01*
X6398928Y-6148070D01*
X6148070Y-6398928D01*
X5853092Y-6596026D01*
X5525331Y-6731789D01*
X5177384Y-6801000D01*
X4822616Y-6801000D01*
X4474669Y-6731789D01*
X4146908Y-6596026D01*
X3851930Y-6398928D01*
X3601072Y-6148070D01*
X3403974Y-5853092D01*
X3268211Y-5525331D01*
X3199000Y-5177384D01*
X3199000Y-4822616D01*
X3268211Y-4474669D01*
X3403974Y-4146908D01*
X3601072Y-3851930D01*
X3851930Y-3601072D01*
X4146908Y-3403974D01*
X4474669Y-3268211D01*
X4822616Y-3199000D01*
X5177384Y-3199000D01*
X5525331Y-3268211D01*
G37*
G36*
X70525331Y-3268211D02*
G01*
X70853092Y-3403974D01*
X71148070Y-3601072D01*
X71398928Y-3851930D01*
X71596026Y-4146908D01*
X71731789Y-4474669D01*
X71801000Y-4822616D01*
X71801000Y-5177384D01*
X71731789Y-5525331D01*
X71596026Y-5853092D01*
X71398928Y-6148070D01*
X71148070Y-6398928D01*
X70853092Y-6596026D01*
X70525331Y-6731789D01*
X70177384Y-6801000D01*
X69822616Y-6801000D01*
X69474669Y-6731789D01*
X69146908Y-6596026D01*
X68851930Y-6398928D01*
X68601072Y-6148070D01*
X68403974Y-5853092D01*
X68268211Y-5525331D01*
X68199000Y-5177384D01*
X68199000Y-4822616D01*
X68268211Y-4474669D01*
X68403974Y-4146908D01*
X68601072Y-3851930D01*
X68851930Y-3601072D01*
X69146908Y-3403974D01*
X69474669Y-3268211D01*
X69822616Y-3199000D01*
X70177384Y-3199000D01*
X70525331Y-3268211D01*
G37*
G36*
X46391304Y-1597002D02*
G01*
X46810139Y-1770489D01*
X46810141Y-1770490D01*
X46914390Y-1840147D01*
X47187082Y-2022354D01*
X47507646Y-2342918D01*
X47759511Y-2719861D01*
X47932998Y-3138696D01*
X48021440Y-3583327D01*
X48021440Y-4036673D01*
X47932998Y-4481304D01*
X47759511Y-4900139D01*
X47507646Y-5277082D01*
X47187082Y-5597646D01*
X47108507Y-5650148D01*
X46810141Y-5849510D01*
X46810140Y-5849511D01*
X46810139Y-5849511D01*
X46391304Y-6022998D01*
X45946673Y-6111440D01*
X45493327Y-6111440D01*
X45048696Y-6022998D01*
X44629861Y-5849511D01*
X44629860Y-5849511D01*
X44629859Y-5849510D01*
X44331493Y-5650148D01*
X44252918Y-5597646D01*
X43932354Y-5277082D01*
X43680489Y-4900139D01*
X43507002Y-4481304D01*
X43418560Y-4036673D01*
X43418560Y-3583327D01*
X43507002Y-3138696D01*
X43680489Y-2719861D01*
X43932354Y-2342918D01*
X44252918Y-2022354D01*
X44525610Y-1840147D01*
X44629859Y-1770490D01*
X44629861Y-1770489D01*
X45048696Y-1597002D01*
X45493327Y-1508560D01*
X45946673Y-1508560D01*
X46391304Y-1597002D01*
G37*
G36*
X52741304Y-1597002D02*
G01*
X53160139Y-1770489D01*
X53160141Y-1770490D01*
X53264390Y-1840147D01*
X53537082Y-2022354D01*
X53857646Y-2342918D01*
X54109511Y-2719861D01*
X54282998Y-3138696D01*
X54371440Y-3583327D01*
X54371440Y-4036673D01*
X54282998Y-4481304D01*
X54109511Y-4900139D01*
X53857646Y-5277082D01*
X53537082Y-5597646D01*
X53458507Y-5650148D01*
X53160141Y-5849510D01*
X53160140Y-5849511D01*
X53160139Y-5849511D01*
X52741304Y-6022998D01*
X52296673Y-6111440D01*
X51843327Y-6111440D01*
X51398696Y-6022998D01*
X50979861Y-5849511D01*
X50979860Y-5849511D01*
X50979859Y-5849510D01*
X50681493Y-5650148D01*
X50602918Y-5597646D01*
X50282354Y-5277082D01*
X50030489Y-4900139D01*
X49857002Y-4481304D01*
X49768560Y-4036673D01*
X49768560Y-3583327D01*
X49857002Y-3138696D01*
X50030489Y-2719861D01*
X50282354Y-2342918D01*
X50602918Y-2022354D01*
X50875610Y-1840147D01*
X50979859Y-1770490D01*
X50979861Y-1770489D01*
X51398696Y-1597002D01*
X51843327Y-1508560D01*
X52296673Y-1508560D01*
X52741304Y-1597002D01*
G37*
G36*
X61861000Y-5981000D02*
G01*
X60059000Y-5981000D01*
X60059000Y-4179000D01*
X61861000Y-4179000D01*
X61861000Y-5981000D01*
G37*
G36*
X58533512Y-4183927D02*
G01*
X58682812Y-4213624D01*
X58846784Y-4281544D01*
X58994354Y-4380147D01*
X59119853Y-4505646D01*
X59218456Y-4653216D01*
X59286376Y-4817188D01*
X59321000Y-4991259D01*
X59321000Y-5168741D01*
X59286376Y-5342812D01*
X59218456Y-5506784D01*
X59119853Y-5654354D01*
X58994354Y-5779853D01*
X58846784Y-5878456D01*
X58682812Y-5946376D01*
X58533512Y-5976073D01*
X58508742Y-5981000D01*
X58331258Y-5981000D01*
X58306488Y-5976073D01*
X58157188Y-5946376D01*
X57993216Y-5878456D01*
X57845646Y-5779853D01*
X57720147Y-5654354D01*
X57621544Y-5506784D01*
X57553624Y-5342812D01*
X57519000Y-5168741D01*
X57519000Y-4991259D01*
X57553624Y-4817188D01*
X57621544Y-4653216D01*
X57720147Y-4505646D01*
X57845646Y-4380147D01*
X57993216Y-4281544D01*
X58157188Y-4213624D01*
X58306488Y-4183927D01*
X58331258Y-4179000D01*
X58508742Y-4179000D01*
X58533512Y-4183927D01*
G37*
G36*
X21221000Y-5981000D02*
G01*
X19419000Y-5981000D01*
X19419000Y-4179000D01*
X21221000Y-4179000D01*
X21221000Y-5981000D01*
G37*
G36*
X14083512Y-4183927D02*
G01*
X14232812Y-4213624D01*
X14396784Y-4281544D01*
X14544354Y-4380147D01*
X14669853Y-4505646D01*
X14768456Y-4653216D01*
X14836376Y-4817188D01*
X14871000Y-4991259D01*
X14871000Y-5168741D01*
X14836376Y-5342812D01*
X14768456Y-5506784D01*
X14669853Y-5654354D01*
X14544354Y-5779853D01*
X14396784Y-5878456D01*
X14232812Y-5946376D01*
X14083512Y-5976073D01*
X14058742Y-5981000D01*
X13881258Y-5981000D01*
X13856488Y-5976073D01*
X13707188Y-5946376D01*
X13543216Y-5878456D01*
X13395646Y-5779853D01*
X13270147Y-5654354D01*
X13171544Y-5506784D01*
X13103624Y-5342812D01*
X13069000Y-5168741D01*
X13069000Y-4991259D01*
X13103624Y-4817188D01*
X13171544Y-4653216D01*
X13270147Y-4505646D01*
X13395646Y-4380147D01*
X13543216Y-4281544D01*
X13707188Y-4213624D01*
X13856488Y-4183927D01*
X13881258Y-4179000D01*
X14058742Y-4179000D01*
X14083512Y-4183927D01*
G37*
G36*
X40271000Y-4711000D02*
G01*
X38469000Y-4711000D01*
X38469000Y-2909000D01*
X40271000Y-2909000D01*
X40271000Y-4711000D01*
G37*
G36*
X20433512Y-1643927D02*
G01*
X20582812Y-1673624D01*
X20746784Y-1741544D01*
X20894354Y-1840147D01*
X21019853Y-1965646D01*
X21118456Y-2113216D01*
X21186376Y-2277188D01*
X21221000Y-2451259D01*
X21221000Y-2628741D01*
X21186376Y-2802812D01*
X21118456Y-2966784D01*
X21019853Y-3114354D01*
X20894354Y-3239853D01*
X20746784Y-3338456D01*
X20582812Y-3406376D01*
X20433512Y-3436073D01*
X20408742Y-3441000D01*
X20231258Y-3441000D01*
X20206488Y-3436073D01*
X20057188Y-3406376D01*
X19893216Y-3338456D01*
X19745646Y-3239853D01*
X19620147Y-3114354D01*
X19521544Y-2966784D01*
X19453624Y-2802812D01*
X19419000Y-2628741D01*
X19419000Y-2451259D01*
X19453624Y-2277188D01*
X19521544Y-2113216D01*
X19620147Y-1965646D01*
X19745646Y-1840147D01*
X19893216Y-1741544D01*
X20057188Y-1673624D01*
X20206488Y-1643927D01*
X20231258Y-1639000D01*
X20408742Y-1639000D01*
X20433512Y-1643927D01*
G37*
G36*
X14871000Y-3441000D02*
G01*
X13069000Y-3441000D01*
X13069000Y-1639000D01*
X14871000Y-1639000D01*
X14871000Y-3441000D01*
G37*
M02*
